%TF.GenerationSoftware,KiCad,Pcbnew,9.0.6*%
%TF.CreationDate,2025-11-27T01:35:14-08:00*%
%TF.ProjectId,encoder-board,656e636f-6465-4722-9d62-6f6172642e6b,rev?*%
%TF.SameCoordinates,Original*%
%TF.FileFunction,Legend,Bot*%
%TF.FilePolarity,Positive*%
%FSLAX46Y46*%
G04 Gerber Fmt 4.6, Leading zero omitted, Abs format (unit mm)*
G04 Created by KiCad (PCBNEW 9.0.6) date 2025-11-27 01:35:14*
%MOMM*%
%LPD*%
G01*
G04 APERTURE LIST*
%ADD10C,0.200000*%
%ADD11C,0.365124*%
%ADD12C,0.150000*%
%ADD13C,0.151994*%
%ADD14C,0.059995*%
%ADD15R,1.700000X1.700000*%
%ADD16C,1.700000*%
%ADD17R,0.550013X0.800000*%
G04 APERTURE END LIST*
D10*
X110250000Y-118000000D02*
X110250000Y-119750000D01*
X114250000Y-120250000D02*
X114253863Y-120249990D01*
X114257706Y-120249960D01*
X114261529Y-120249910D01*
X114265333Y-120249841D01*
X114269117Y-120249752D01*
X114272881Y-120249644D01*
X114276626Y-120249516D01*
X114280351Y-120249369D01*
X114284058Y-120249202D01*
X114287745Y-120249017D01*
X114291413Y-120248812D01*
X114295062Y-120248589D01*
X114298692Y-120248347D01*
X114302304Y-120248086D01*
X114305897Y-120247806D01*
X114309471Y-120247508D01*
X114313028Y-120247191D01*
X114316565Y-120246856D01*
X114320085Y-120246503D01*
X114323586Y-120246131D01*
X114327069Y-120245742D01*
X114330534Y-120245334D01*
X114333982Y-120244908D01*
X114337411Y-120244465D01*
X114340824Y-120244003D01*
X114344218Y-120243524D01*
X114347595Y-120243027D01*
X114350954Y-120242513D01*
X114354297Y-120241981D01*
X114357622Y-120241431D01*
X114360930Y-120240864D01*
X114364221Y-120240280D01*
X114367496Y-120239679D01*
X114370752Y-120239060D01*
X114373993Y-120238424D01*
X114377216Y-120237772D01*
X114380425Y-120237102D01*
X114383615Y-120236415D01*
X114386790Y-120235712D01*
X114389947Y-120234991D01*
X114393091Y-120234254D01*
X114396216Y-120233501D01*
X114399327Y-120232730D01*
X114402419Y-120231943D01*
X114405499Y-120231139D01*
X114408560Y-120230319D01*
X114411608Y-120229483D01*
X114414638Y-120228630D01*
X114417655Y-120227760D01*
X114420654Y-120226875D01*
X114423640Y-120225973D01*
X114426608Y-120225056D01*
X114432502Y-120223171D01*
X114438335Y-120221223D01*
X114444109Y-120219210D01*
X114449824Y-120217133D01*
X114455481Y-120214993D01*
X114461081Y-120212790D01*
X114466623Y-120210523D01*
X114472109Y-120208194D01*
X114477539Y-120205802D01*
X114482913Y-120203347D01*
X114488232Y-120200830D01*
X114493498Y-120198251D01*
X114498709Y-120195609D01*
X114503867Y-120192905D01*
X114508972Y-120190139D01*
X114514024Y-120187311D01*
X114519025Y-120184421D01*
X114523974Y-120181469D01*
X114528871Y-120178455D01*
X114533718Y-120175378D01*
X114538515Y-120172239D01*
X114543261Y-120169038D01*
X114547958Y-120165775D01*
X114552605Y-120162449D01*
X114557203Y-120159060D01*
X114561753Y-120155608D01*
X114566253Y-120152093D01*
X114570706Y-120148516D01*
X114575110Y-120144874D01*
X114579466Y-120141169D01*
X114583774Y-120137401D01*
X114588035Y-120133568D01*
X114592249Y-120129671D01*
X114596415Y-120125709D01*
X114600534Y-120121683D01*
X114604605Y-120117591D01*
X114608630Y-120113434D01*
X114612607Y-120109211D01*
X114616537Y-120104923D01*
X114620421Y-120100568D01*
X114624257Y-120096147D01*
X114628045Y-120091658D01*
X114631786Y-120087103D01*
X114635480Y-120082480D01*
X114639126Y-120077789D01*
X114642725Y-120073031D01*
X114646275Y-120068204D01*
X114649777Y-120063308D01*
X114653231Y-120058344D01*
X114656636Y-120053311D01*
X114659992Y-120048208D01*
X114663299Y-120043036D01*
X114666556Y-120037795D01*
X114669763Y-120032483D01*
X114672919Y-120027102D01*
X114676024Y-120021650D01*
X114679078Y-120016129D01*
X114682081Y-120010537D01*
X114685030Y-120004875D01*
X114687927Y-119999144D01*
X114690770Y-119993343D01*
X114693559Y-119987472D01*
X114696294Y-119981531D01*
X114698973Y-119975522D01*
X114701595Y-119969445D01*
X114704161Y-119963299D01*
X114706669Y-119957086D01*
X114709119Y-119950807D01*
X114711510Y-119944462D01*
X114713840Y-119938053D01*
X114716110Y-119931581D01*
X114718317Y-119925047D01*
X114720461Y-119918452D01*
X114722542Y-119911800D01*
X114724558Y-119905091D01*
X114726507Y-119898329D01*
X114728390Y-119891516D01*
X114730204Y-119884655D01*
X114731948Y-119877750D01*
X114733622Y-119870805D01*
X114735224Y-119863825D01*
X114736753Y-119856816D01*
X114738206Y-119849783D01*
X114739584Y-119842734D01*
X114740884Y-119835677D01*
X114742105Y-119828622D01*
X114743244Y-119821580D01*
X114744302Y-119814565D01*
X114745275Y-119807593D01*
X114746163Y-119800684D01*
X114746963Y-119793861D01*
X114747673Y-119787155D01*
X114748292Y-119780603D01*
X114748818Y-119774256D01*
X114749248Y-119768183D01*
X114749582Y-119762484D01*
X114749817Y-119757319D01*
X114749954Y-119752981D01*
X114750000Y-119750000D01*
X110750000Y-117500000D02*
X110746137Y-117500010D01*
X110742294Y-117500040D01*
X110738471Y-117500090D01*
X110734667Y-117500159D01*
X110730883Y-117500248D01*
X110727119Y-117500356D01*
X110723374Y-117500484D01*
X110719649Y-117500631D01*
X110715942Y-117500798D01*
X110712255Y-117500983D01*
X110708587Y-117501188D01*
X110704938Y-117501411D01*
X110701308Y-117501653D01*
X110697696Y-117501914D01*
X110694103Y-117502194D01*
X110690529Y-117502492D01*
X110686972Y-117502809D01*
X110683435Y-117503144D01*
X110679915Y-117503497D01*
X110676414Y-117503869D01*
X110672931Y-117504258D01*
X110669466Y-117504666D01*
X110666018Y-117505092D01*
X110662589Y-117505535D01*
X110659176Y-117505997D01*
X110655782Y-117506476D01*
X110652405Y-117506973D01*
X110649046Y-117507487D01*
X110645703Y-117508019D01*
X110642378Y-117508569D01*
X110639070Y-117509136D01*
X110635779Y-117509720D01*
X110632504Y-117510321D01*
X110629248Y-117510940D01*
X110626007Y-117511576D01*
X110622784Y-117512228D01*
X110619575Y-117512898D01*
X110616385Y-117513585D01*
X110613210Y-117514288D01*
X110610053Y-117515009D01*
X110606909Y-117515746D01*
X110603784Y-117516499D01*
X110600673Y-117517270D01*
X110597581Y-117518057D01*
X110594501Y-117518861D01*
X110591440Y-117519681D01*
X110588392Y-117520517D01*
X110585362Y-117521370D01*
X110582345Y-117522240D01*
X110579346Y-117523125D01*
X110576360Y-117524027D01*
X110573392Y-117524944D01*
X110567498Y-117526829D01*
X110561665Y-117528777D01*
X110555891Y-117530790D01*
X110550176Y-117532867D01*
X110544519Y-117535007D01*
X110538919Y-117537210D01*
X110533377Y-117539477D01*
X110527891Y-117541806D01*
X110522461Y-117544198D01*
X110517087Y-117546653D01*
X110511768Y-117549170D01*
X110506502Y-117551749D01*
X110501291Y-117554391D01*
X110496133Y-117557095D01*
X110491028Y-117559861D01*
X110485976Y-117562689D01*
X110480975Y-117565579D01*
X110476026Y-117568531D01*
X110471129Y-117571545D01*
X110466282Y-117574622D01*
X110461485Y-117577761D01*
X110456739Y-117580962D01*
X110452042Y-117584225D01*
X110447395Y-117587551D01*
X110442797Y-117590940D01*
X110438247Y-117594392D01*
X110433747Y-117597907D01*
X110429294Y-117601484D01*
X110424890Y-117605126D01*
X110420534Y-117608831D01*
X110416226Y-117612599D01*
X110411965Y-117616432D01*
X110407751Y-117620329D01*
X110403585Y-117624291D01*
X110399466Y-117628317D01*
X110395395Y-117632409D01*
X110391370Y-117636566D01*
X110387393Y-117640789D01*
X110383463Y-117645077D01*
X110379579Y-117649432D01*
X110375743Y-117653853D01*
X110371955Y-117658342D01*
X110368214Y-117662897D01*
X110364520Y-117667520D01*
X110360874Y-117672211D01*
X110357275Y-117676969D01*
X110353725Y-117681796D01*
X110350223Y-117686692D01*
X110346769Y-117691656D01*
X110343364Y-117696689D01*
X110340008Y-117701792D01*
X110336701Y-117706964D01*
X110333444Y-117712205D01*
X110330237Y-117717517D01*
X110327081Y-117722898D01*
X110323976Y-117728350D01*
X110320922Y-117733871D01*
X110317919Y-117739463D01*
X110314970Y-117745125D01*
X110312073Y-117750856D01*
X110309230Y-117756657D01*
X110306441Y-117762528D01*
X110303706Y-117768469D01*
X110301027Y-117774478D01*
X110298405Y-117780555D01*
X110295839Y-117786701D01*
X110293331Y-117792914D01*
X110290881Y-117799193D01*
X110288490Y-117805538D01*
X110286160Y-117811947D01*
X110283890Y-117818419D01*
X110281683Y-117824953D01*
X110279539Y-117831548D01*
X110277458Y-117838200D01*
X110275442Y-117844909D01*
X110273493Y-117851671D01*
X110271610Y-117858484D01*
X110269796Y-117865345D01*
X110268052Y-117872250D01*
X110266378Y-117879195D01*
X110264776Y-117886175D01*
X110263247Y-117893184D01*
X110261794Y-117900217D01*
X110260416Y-117907266D01*
X110259116Y-117914323D01*
X110257895Y-117921378D01*
X110256756Y-117928420D01*
X110255698Y-117935435D01*
X110254725Y-117942407D01*
X110253837Y-117949316D01*
X110253037Y-117956139D01*
X110252327Y-117962845D01*
X110251708Y-117969397D01*
X110251182Y-117975744D01*
X110250752Y-117981817D01*
X110250418Y-117987516D01*
X110250183Y-117992681D01*
X110250046Y-117997019D01*
X110250000Y-118000000D01*
D11*
X111917059Y-118831824D02*
X111282059Y-118831824D01*
D10*
X114750000Y-118000000D02*
X114749990Y-117996137D01*
X114749960Y-117992294D01*
X114749910Y-117988471D01*
X114749841Y-117984667D01*
X114749752Y-117980883D01*
X114749644Y-117977119D01*
X114749516Y-117973374D01*
X114749369Y-117969649D01*
X114749202Y-117965942D01*
X114749017Y-117962255D01*
X114748812Y-117958587D01*
X114748589Y-117954938D01*
X114748347Y-117951308D01*
X114748086Y-117947696D01*
X114747806Y-117944103D01*
X114747508Y-117940529D01*
X114747191Y-117936972D01*
X114746856Y-117933435D01*
X114746503Y-117929915D01*
X114746131Y-117926414D01*
X114745742Y-117922931D01*
X114745334Y-117919466D01*
X114744908Y-117916018D01*
X114744465Y-117912589D01*
X114744003Y-117909176D01*
X114743524Y-117905782D01*
X114743027Y-117902405D01*
X114742513Y-117899046D01*
X114741981Y-117895703D01*
X114741431Y-117892378D01*
X114740864Y-117889070D01*
X114740280Y-117885779D01*
X114739679Y-117882504D01*
X114739060Y-117879248D01*
X114738424Y-117876007D01*
X114737772Y-117872784D01*
X114737102Y-117869575D01*
X114736415Y-117866385D01*
X114735712Y-117863210D01*
X114734991Y-117860053D01*
X114734254Y-117856909D01*
X114733501Y-117853784D01*
X114732730Y-117850673D01*
X114731943Y-117847581D01*
X114731139Y-117844501D01*
X114730319Y-117841440D01*
X114729483Y-117838392D01*
X114728630Y-117835362D01*
X114727760Y-117832345D01*
X114726875Y-117829346D01*
X114725973Y-117826360D01*
X114725056Y-117823392D01*
X114723171Y-117817498D01*
X114721223Y-117811665D01*
X114719210Y-117805891D01*
X114717133Y-117800176D01*
X114714993Y-117794519D01*
X114712790Y-117788919D01*
X114710523Y-117783377D01*
X114708194Y-117777891D01*
X114705802Y-117772461D01*
X114703347Y-117767087D01*
X114700830Y-117761768D01*
X114698251Y-117756502D01*
X114695609Y-117751291D01*
X114692905Y-117746133D01*
X114690139Y-117741028D01*
X114687311Y-117735976D01*
X114684421Y-117730975D01*
X114681469Y-117726026D01*
X114678455Y-117721129D01*
X114675378Y-117716282D01*
X114672239Y-117711485D01*
X114669038Y-117706739D01*
X114665775Y-117702042D01*
X114662449Y-117697395D01*
X114659060Y-117692797D01*
X114655608Y-117688247D01*
X114652093Y-117683747D01*
X114648516Y-117679294D01*
X114644874Y-117674890D01*
X114641169Y-117670534D01*
X114637401Y-117666226D01*
X114633568Y-117661965D01*
X114629671Y-117657751D01*
X114625709Y-117653585D01*
X114621683Y-117649466D01*
X114617591Y-117645395D01*
X114613434Y-117641370D01*
X114609211Y-117637393D01*
X114604923Y-117633463D01*
X114600568Y-117629579D01*
X114596147Y-117625743D01*
X114591658Y-117621955D01*
X114587103Y-117618214D01*
X114582480Y-117614520D01*
X114577789Y-117610874D01*
X114573031Y-117607275D01*
X114568204Y-117603725D01*
X114563308Y-117600223D01*
X114558344Y-117596769D01*
X114553311Y-117593364D01*
X114548208Y-117590008D01*
X114543036Y-117586701D01*
X114537795Y-117583444D01*
X114532483Y-117580237D01*
X114527102Y-117577081D01*
X114521650Y-117573976D01*
X114516129Y-117570922D01*
X114510537Y-117567919D01*
X114504875Y-117564970D01*
X114499144Y-117562073D01*
X114493343Y-117559230D01*
X114487472Y-117556441D01*
X114481531Y-117553706D01*
X114475522Y-117551027D01*
X114469445Y-117548405D01*
X114463299Y-117545839D01*
X114457086Y-117543331D01*
X114450807Y-117540881D01*
X114444462Y-117538490D01*
X114438053Y-117536160D01*
X114431581Y-117533890D01*
X114425047Y-117531683D01*
X114418452Y-117529539D01*
X114411800Y-117527458D01*
X114405091Y-117525442D01*
X114398329Y-117523493D01*
X114391516Y-117521610D01*
X114384655Y-117519796D01*
X114377750Y-117518052D01*
X114370805Y-117516378D01*
X114363825Y-117514776D01*
X114356816Y-117513247D01*
X114349783Y-117511794D01*
X114342734Y-117510416D01*
X114335677Y-117509116D01*
X114328622Y-117507895D01*
X114321580Y-117506756D01*
X114314565Y-117505698D01*
X114307593Y-117504725D01*
X114300684Y-117503837D01*
X114293861Y-117503037D01*
X114287155Y-117502327D01*
X114280603Y-117501708D01*
X114274256Y-117501182D01*
X114268183Y-117500752D01*
X114262484Y-117500418D01*
X114257319Y-117500183D01*
X114252981Y-117500046D01*
X114250000Y-117500000D01*
X114250000Y-117500000D02*
X110750000Y-117500000D01*
D11*
X111636526Y-118038999D02*
X111672985Y-118041756D01*
X111708891Y-118046315D01*
X111744202Y-118052647D01*
X111778872Y-118060723D01*
X111812860Y-118070514D01*
X111846121Y-118081991D01*
X111878612Y-118095125D01*
X111910289Y-118109886D01*
X111941108Y-118126247D01*
X111971026Y-118144177D01*
X112000000Y-118163648D01*
X112027985Y-118184630D01*
X112054938Y-118207095D01*
X112080816Y-118231013D01*
X112105575Y-118256355D01*
X112129171Y-118283093D01*
X112151560Y-118311197D01*
X112172700Y-118340638D01*
X112192546Y-118371387D01*
X112211055Y-118403415D01*
X112228184Y-118436693D01*
X112243888Y-118471192D01*
X112258124Y-118506882D01*
X112270848Y-118543736D01*
X112282018Y-118581723D01*
X112291588Y-118620814D01*
X112299517Y-118660982D01*
X112305759Y-118702195D01*
X112310272Y-118744426D01*
X112313011Y-118787645D01*
X112313934Y-118831824D01*
X112313011Y-118876002D01*
X112310272Y-118919222D01*
X112305759Y-118961453D01*
X112299517Y-119002666D01*
X112291588Y-119042833D01*
X112282018Y-119081925D01*
X112270848Y-119119912D01*
X112258124Y-119156765D01*
X112243888Y-119192456D01*
X112228184Y-119226955D01*
X112211055Y-119260233D01*
X112192546Y-119292261D01*
X112172700Y-119323010D01*
X112151560Y-119352451D01*
X112129171Y-119380555D01*
X112105575Y-119407293D01*
X112080816Y-119432635D01*
X112054938Y-119456553D01*
X112027985Y-119479018D01*
X112000000Y-119500000D01*
X111971026Y-119519471D01*
X111941108Y-119537401D01*
X111910289Y-119553761D01*
X111878612Y-119568523D01*
X111846121Y-119581657D01*
X111812860Y-119593134D01*
X111778872Y-119602925D01*
X111744202Y-119611001D01*
X111708891Y-119617333D01*
X111672985Y-119621892D01*
X111636526Y-119624648D01*
X111599559Y-119625574D01*
X111562592Y-119624648D01*
X111526133Y-119621892D01*
X111490227Y-119617333D01*
X111454917Y-119611001D01*
X111420246Y-119602925D01*
X111386258Y-119593134D01*
X111352997Y-119581657D01*
X111320507Y-119568523D01*
X111288830Y-119553761D01*
X111258010Y-119537401D01*
X111228092Y-119519471D01*
X111199119Y-119500000D01*
X111171133Y-119479018D01*
X111144180Y-119456553D01*
X111118302Y-119432635D01*
X111093544Y-119407293D01*
X111069948Y-119380555D01*
X111047558Y-119352451D01*
X111026418Y-119323010D01*
X111006572Y-119292261D01*
X110988063Y-119260233D01*
X110970935Y-119226955D01*
X110955231Y-119192456D01*
X110940995Y-119156765D01*
X110928270Y-119119912D01*
X110917101Y-119081925D01*
X110907530Y-119042833D01*
X110899602Y-119002666D01*
X110893360Y-118961453D01*
X110888847Y-118919222D01*
X110886107Y-118876002D01*
X110885184Y-118831824D01*
X110886107Y-118787645D01*
X110888847Y-118744426D01*
X110893360Y-118702195D01*
X110899602Y-118660982D01*
X110907530Y-118620814D01*
X110917101Y-118581723D01*
X110928270Y-118543736D01*
X110940995Y-118506882D01*
X110955231Y-118471192D01*
X110970935Y-118436693D01*
X110988063Y-118403415D01*
X111006572Y-118371387D01*
X111026418Y-118340638D01*
X111047558Y-118311197D01*
X111069948Y-118283093D01*
X111093544Y-118256355D01*
X111118302Y-118231013D01*
X111144180Y-118207095D01*
X111171133Y-118184630D01*
X111199119Y-118163648D01*
X111228092Y-118144177D01*
X111258010Y-118126247D01*
X111288830Y-118109886D01*
X111320507Y-118095125D01*
X111352997Y-118081991D01*
X111386258Y-118070514D01*
X111420246Y-118060723D01*
X111454917Y-118052647D01*
X111490227Y-118046315D01*
X111526133Y-118041756D01*
X111562592Y-118038999D01*
X111599559Y-118038074D01*
X111636526Y-118038999D01*
D10*
X110250000Y-119750000D02*
X110250010Y-119753863D01*
X110250040Y-119757706D01*
X110250090Y-119761529D01*
X110250159Y-119765333D01*
X110250248Y-119769117D01*
X110250356Y-119772881D01*
X110250484Y-119776626D01*
X110250631Y-119780351D01*
X110250798Y-119784058D01*
X110250983Y-119787745D01*
X110251188Y-119791413D01*
X110251411Y-119795062D01*
X110251653Y-119798692D01*
X110251914Y-119802304D01*
X110252194Y-119805897D01*
X110252492Y-119809471D01*
X110252809Y-119813028D01*
X110253144Y-119816565D01*
X110253497Y-119820085D01*
X110253869Y-119823586D01*
X110254258Y-119827069D01*
X110254666Y-119830534D01*
X110255092Y-119833982D01*
X110255535Y-119837411D01*
X110255997Y-119840824D01*
X110256476Y-119844218D01*
X110256973Y-119847595D01*
X110257487Y-119850954D01*
X110258019Y-119854297D01*
X110258569Y-119857622D01*
X110259136Y-119860930D01*
X110259720Y-119864221D01*
X110260321Y-119867496D01*
X110260940Y-119870752D01*
X110261576Y-119873993D01*
X110262228Y-119877216D01*
X110262898Y-119880425D01*
X110263585Y-119883615D01*
X110264288Y-119886790D01*
X110265009Y-119889947D01*
X110265746Y-119893091D01*
X110266499Y-119896216D01*
X110267270Y-119899327D01*
X110268057Y-119902419D01*
X110268861Y-119905499D01*
X110269681Y-119908560D01*
X110270517Y-119911608D01*
X110271370Y-119914638D01*
X110272240Y-119917655D01*
X110273125Y-119920654D01*
X110274027Y-119923640D01*
X110274944Y-119926608D01*
X110276829Y-119932502D01*
X110278777Y-119938335D01*
X110280790Y-119944109D01*
X110282867Y-119949824D01*
X110285007Y-119955481D01*
X110287210Y-119961081D01*
X110289477Y-119966623D01*
X110291806Y-119972109D01*
X110294198Y-119977539D01*
X110296653Y-119982913D01*
X110299170Y-119988232D01*
X110301749Y-119993498D01*
X110304391Y-119998709D01*
X110307095Y-120003867D01*
X110309861Y-120008972D01*
X110312689Y-120014024D01*
X110315579Y-120019025D01*
X110318531Y-120023974D01*
X110321545Y-120028871D01*
X110324622Y-120033718D01*
X110327761Y-120038515D01*
X110330962Y-120043261D01*
X110334225Y-120047958D01*
X110337551Y-120052605D01*
X110340940Y-120057203D01*
X110344392Y-120061753D01*
X110347907Y-120066253D01*
X110351484Y-120070706D01*
X110355126Y-120075110D01*
X110358831Y-120079466D01*
X110362599Y-120083774D01*
X110366432Y-120088035D01*
X110370329Y-120092249D01*
X110374291Y-120096415D01*
X110378317Y-120100534D01*
X110382409Y-120104605D01*
X110386566Y-120108630D01*
X110390789Y-120112607D01*
X110395077Y-120116537D01*
X110399432Y-120120421D01*
X110403853Y-120124257D01*
X110408342Y-120128045D01*
X110412897Y-120131786D01*
X110417520Y-120135480D01*
X110422211Y-120139126D01*
X110426969Y-120142725D01*
X110431796Y-120146275D01*
X110436692Y-120149777D01*
X110441656Y-120153231D01*
X110446689Y-120156636D01*
X110451792Y-120159992D01*
X110456964Y-120163299D01*
X110462205Y-120166556D01*
X110467517Y-120169763D01*
X110472898Y-120172919D01*
X110478350Y-120176024D01*
X110483871Y-120179078D01*
X110489463Y-120182081D01*
X110495125Y-120185030D01*
X110500856Y-120187927D01*
X110506657Y-120190770D01*
X110512528Y-120193559D01*
X110518469Y-120196294D01*
X110524478Y-120198973D01*
X110530555Y-120201595D01*
X110536701Y-120204161D01*
X110542914Y-120206669D01*
X110549193Y-120209119D01*
X110555538Y-120211510D01*
X110561947Y-120213840D01*
X110568419Y-120216110D01*
X110574953Y-120218317D01*
X110581548Y-120220461D01*
X110588200Y-120222542D01*
X110594909Y-120224558D01*
X110601671Y-120226507D01*
X110608484Y-120228390D01*
X110615345Y-120230204D01*
X110622250Y-120231948D01*
X110629195Y-120233622D01*
X110636175Y-120235224D01*
X110643184Y-120236753D01*
X110650217Y-120238206D01*
X110657266Y-120239584D01*
X110664323Y-120240884D01*
X110671378Y-120242105D01*
X110678420Y-120243244D01*
X110685435Y-120244302D01*
X110692407Y-120245275D01*
X110699316Y-120246163D01*
X110706139Y-120246963D01*
X110712845Y-120247673D01*
X110719397Y-120248292D01*
X110725744Y-120248818D01*
X110731817Y-120249248D01*
X110737516Y-120249582D01*
X110742681Y-120249817D01*
X110747019Y-120249954D01*
X110750000Y-120250000D01*
D11*
X114139559Y-119625574D02*
X113345809Y-118038074D01*
D10*
X114750000Y-119750000D02*
X114750000Y-118000000D01*
X110750000Y-120250000D02*
X114250000Y-120250000D01*
D11*
X113345809Y-118038074D02*
X112552059Y-119625574D01*
D12*
X117345237Y-108322200D02*
X117202380Y-108369819D01*
X117202380Y-108369819D02*
X116964285Y-108369819D01*
X116964285Y-108369819D02*
X116869047Y-108322200D01*
X116869047Y-108322200D02*
X116821428Y-108274580D01*
X116821428Y-108274580D02*
X116773809Y-108179342D01*
X116773809Y-108179342D02*
X116773809Y-108084104D01*
X116773809Y-108084104D02*
X116821428Y-107988866D01*
X116821428Y-107988866D02*
X116869047Y-107941247D01*
X116869047Y-107941247D02*
X116964285Y-107893628D01*
X116964285Y-107893628D02*
X117154761Y-107846009D01*
X117154761Y-107846009D02*
X117249999Y-107798390D01*
X117249999Y-107798390D02*
X117297618Y-107750771D01*
X117297618Y-107750771D02*
X117345237Y-107655533D01*
X117345237Y-107655533D02*
X117345237Y-107560295D01*
X117345237Y-107560295D02*
X117297618Y-107465057D01*
X117297618Y-107465057D02*
X117249999Y-107417438D01*
X117249999Y-107417438D02*
X117154761Y-107369819D01*
X117154761Y-107369819D02*
X116916666Y-107369819D01*
X116916666Y-107369819D02*
X116773809Y-107417438D01*
X116345237Y-108369819D02*
X116345237Y-107369819D01*
X116345237Y-107369819D02*
X115773809Y-108369819D01*
X115773809Y-108369819D02*
X115773809Y-107369819D01*
X115345237Y-108322200D02*
X115202380Y-108369819D01*
X115202380Y-108369819D02*
X114964285Y-108369819D01*
X114964285Y-108369819D02*
X114869047Y-108322200D01*
X114869047Y-108322200D02*
X114821428Y-108274580D01*
X114821428Y-108274580D02*
X114773809Y-108179342D01*
X114773809Y-108179342D02*
X114773809Y-108084104D01*
X114773809Y-108084104D02*
X114821428Y-107988866D01*
X114821428Y-107988866D02*
X114869047Y-107941247D01*
X114869047Y-107941247D02*
X114964285Y-107893628D01*
X114964285Y-107893628D02*
X115154761Y-107846009D01*
X115154761Y-107846009D02*
X115249999Y-107798390D01*
X115249999Y-107798390D02*
X115297618Y-107750771D01*
X115297618Y-107750771D02*
X115345237Y-107655533D01*
X115345237Y-107655533D02*
X115345237Y-107560295D01*
X115345237Y-107560295D02*
X115297618Y-107465057D01*
X115297618Y-107465057D02*
X115249999Y-107417438D01*
X115249999Y-107417438D02*
X115154761Y-107369819D01*
X115154761Y-107369819D02*
X114916666Y-107369819D01*
X114916666Y-107369819D02*
X114773809Y-107417438D01*
X114583333Y-108465057D02*
X113821428Y-108465057D01*
X113630951Y-108084104D02*
X113154761Y-108084104D01*
X113726189Y-108369819D02*
X113392856Y-107369819D01*
X113392856Y-107369819D02*
X113059523Y-108369819D01*
X112166666Y-108322200D02*
X112023809Y-108369819D01*
X112023809Y-108369819D02*
X111785714Y-108369819D01*
X111785714Y-108369819D02*
X111690476Y-108322200D01*
X111690476Y-108322200D02*
X111642857Y-108274580D01*
X111642857Y-108274580D02*
X111595238Y-108179342D01*
X111595238Y-108179342D02*
X111595238Y-108084104D01*
X111595238Y-108084104D02*
X111642857Y-107988866D01*
X111642857Y-107988866D02*
X111690476Y-107941247D01*
X111690476Y-107941247D02*
X111785714Y-107893628D01*
X111785714Y-107893628D02*
X111976190Y-107846009D01*
X111976190Y-107846009D02*
X112071428Y-107798390D01*
X112071428Y-107798390D02*
X112119047Y-107750771D01*
X112119047Y-107750771D02*
X112166666Y-107655533D01*
X112166666Y-107655533D02*
X112166666Y-107560295D01*
X112166666Y-107560295D02*
X112119047Y-107465057D01*
X112119047Y-107465057D02*
X112071428Y-107417438D01*
X112071428Y-107417438D02*
X111976190Y-107369819D01*
X111976190Y-107369819D02*
X111738095Y-107369819D01*
X111738095Y-107369819D02*
X111595238Y-107417438D01*
X111166666Y-108369819D02*
X111166666Y-107369819D01*
X111166666Y-107369819D02*
X110595238Y-108369819D01*
X110595238Y-108369819D02*
X110595238Y-107369819D01*
X110166666Y-108322200D02*
X110023809Y-108369819D01*
X110023809Y-108369819D02*
X109785714Y-108369819D01*
X109785714Y-108369819D02*
X109690476Y-108322200D01*
X109690476Y-108322200D02*
X109642857Y-108274580D01*
X109642857Y-108274580D02*
X109595238Y-108179342D01*
X109595238Y-108179342D02*
X109595238Y-108084104D01*
X109595238Y-108084104D02*
X109642857Y-107988866D01*
X109642857Y-107988866D02*
X109690476Y-107941247D01*
X109690476Y-107941247D02*
X109785714Y-107893628D01*
X109785714Y-107893628D02*
X109976190Y-107846009D01*
X109976190Y-107846009D02*
X110071428Y-107798390D01*
X110071428Y-107798390D02*
X110119047Y-107750771D01*
X110119047Y-107750771D02*
X110166666Y-107655533D01*
X110166666Y-107655533D02*
X110166666Y-107560295D01*
X110166666Y-107560295D02*
X110119047Y-107465057D01*
X110119047Y-107465057D02*
X110071428Y-107417438D01*
X110071428Y-107417438D02*
X109976190Y-107369819D01*
X109976190Y-107369819D02*
X109738095Y-107369819D01*
X109738095Y-107369819D02*
X109595238Y-107417438D01*
X109404762Y-108465057D02*
X108642857Y-108465057D01*
X108071428Y-107846009D02*
X107928571Y-107893628D01*
X107928571Y-107893628D02*
X107880952Y-107941247D01*
X107880952Y-107941247D02*
X107833333Y-108036485D01*
X107833333Y-108036485D02*
X107833333Y-108179342D01*
X107833333Y-108179342D02*
X107880952Y-108274580D01*
X107880952Y-108274580D02*
X107928571Y-108322200D01*
X107928571Y-108322200D02*
X108023809Y-108369819D01*
X108023809Y-108369819D02*
X108404761Y-108369819D01*
X108404761Y-108369819D02*
X108404761Y-107369819D01*
X108404761Y-107369819D02*
X108071428Y-107369819D01*
X108071428Y-107369819D02*
X107976190Y-107417438D01*
X107976190Y-107417438D02*
X107928571Y-107465057D01*
X107928571Y-107465057D02*
X107880952Y-107560295D01*
X107880952Y-107560295D02*
X107880952Y-107655533D01*
X107880952Y-107655533D02*
X107928571Y-107750771D01*
X107928571Y-107750771D02*
X107976190Y-107798390D01*
X107976190Y-107798390D02*
X108071428Y-107846009D01*
X108071428Y-107846009D02*
X108404761Y-107846009D01*
X114761904Y-101454819D02*
X114761904Y-102264342D01*
X114761904Y-102264342D02*
X114714285Y-102359580D01*
X114714285Y-102359580D02*
X114666666Y-102407200D01*
X114666666Y-102407200D02*
X114571428Y-102454819D01*
X114571428Y-102454819D02*
X114380952Y-102454819D01*
X114380952Y-102454819D02*
X114285714Y-102407200D01*
X114285714Y-102407200D02*
X114238095Y-102359580D01*
X114238095Y-102359580D02*
X114190476Y-102264342D01*
X114190476Y-102264342D02*
X114190476Y-101454819D01*
X113190476Y-102454819D02*
X113761904Y-102454819D01*
X113476190Y-102454819D02*
X113476190Y-101454819D01*
X113476190Y-101454819D02*
X113571428Y-101597676D01*
X113571428Y-101597676D02*
X113666666Y-101692914D01*
X113666666Y-101692914D02*
X113761904Y-101740533D01*
X111761904Y-101454819D02*
X111761904Y-102264342D01*
X111761904Y-102264342D02*
X111714285Y-102359580D01*
X111714285Y-102359580D02*
X111666666Y-102407200D01*
X111666666Y-102407200D02*
X111571428Y-102454819D01*
X111571428Y-102454819D02*
X111380952Y-102454819D01*
X111380952Y-102454819D02*
X111285714Y-102407200D01*
X111285714Y-102407200D02*
X111238095Y-102359580D01*
X111238095Y-102359580D02*
X111190476Y-102264342D01*
X111190476Y-102264342D02*
X111190476Y-101454819D01*
X110761904Y-101550057D02*
X110714285Y-101502438D01*
X110714285Y-101502438D02*
X110619047Y-101454819D01*
X110619047Y-101454819D02*
X110380952Y-101454819D01*
X110380952Y-101454819D02*
X110285714Y-101502438D01*
X110285714Y-101502438D02*
X110238095Y-101550057D01*
X110238095Y-101550057D02*
X110190476Y-101645295D01*
X110190476Y-101645295D02*
X110190476Y-101740533D01*
X110190476Y-101740533D02*
X110238095Y-101883390D01*
X110238095Y-101883390D02*
X110809523Y-102454819D01*
X110809523Y-102454819D02*
X110190476Y-102454819D01*
D13*
%TO.C,U1*%
X113111100Y-103700025D02*
X113111100Y-106300051D01*
X113111100Y-103700025D02*
X114889103Y-103700025D01*
X113111100Y-106300051D02*
X114889027Y-106300051D01*
X113175032Y-106550013D02*
X114825019Y-106550013D01*
X114889103Y-103700025D02*
X114889027Y-106300051D01*
D10*
X113300051Y-103300025D02*
G75*
G02*
X113100051Y-103300025I-100000J0D01*
G01*
X113100051Y-103300025D02*
G75*
G02*
X113300051Y-103300025I100000J0D01*
G01*
D14*
X113329972Y-104050038D02*
G75*
G02*
X113269978Y-104050038I-29997J0D01*
G01*
X113269978Y-104050038D02*
G75*
G02*
X113329972Y-104050038I29997J0D01*
G01*
D13*
%TO.C,U2*%
X110111100Y-103700025D02*
X110111100Y-106300051D01*
X110111100Y-103700025D02*
X111889103Y-103700025D01*
X110111100Y-106300051D02*
X111889027Y-106300051D01*
X110175032Y-106550013D02*
X111825019Y-106550013D01*
X111889103Y-103700025D02*
X111889027Y-106300051D01*
D10*
X110300051Y-103300025D02*
G75*
G02*
X110100051Y-103300025I-100000J0D01*
G01*
X110100051Y-103300025D02*
G75*
G02*
X110300051Y-103300025I100000J0D01*
G01*
D14*
X110329972Y-104050038D02*
G75*
G02*
X110269978Y-104050038I-29997J0D01*
G01*
X110269978Y-104050038D02*
G75*
G02*
X110329972Y-104050038I29997J0D01*
G01*
%TD*%
%LPC*%
D15*
%TO.C,J1*%
X108380000Y-123000000D03*
D16*
X110920000Y-123000000D03*
X113460000Y-123000000D03*
X116000000Y-123000000D03*
%TD*%
D17*
%TO.C,U1*%
X113599949Y-104335027D03*
X114400051Y-104335027D03*
X114400051Y-105664973D03*
X113600203Y-105664973D03*
%TD*%
%TO.C,U2*%
X110599949Y-104335027D03*
X111400051Y-104335027D03*
X111400051Y-105664973D03*
X110600203Y-105664973D03*
%TD*%
%LPD*%
M02*
