%TF.GenerationSoftware,KiCad,Pcbnew,9.0.6*%
%TF.CreationDate,2025-11-27T01:35:14-08:00*%
%TF.ProjectId,encoder-board,656e636f-6465-4722-9d62-6f6172642e6b,rev?*%
%TF.SameCoordinates,Original*%
%TF.FileFunction,Copper,L4,Bot*%
%TF.FilePolarity,Positive*%
%FSLAX46Y46*%
G04 Gerber Fmt 4.6, Leading zero omitted, Abs format (unit mm)*
G04 Created by KiCad (PCBNEW 9.0.6) date 2025-11-27 01:35:14*
%MOMM*%
%LPD*%
G01*
G04 APERTURE LIST*
%TA.AperFunction,ComponentPad*%
%ADD10R,1.700000X1.700000*%
%TD*%
%TA.AperFunction,ComponentPad*%
%ADD11C,1.700000*%
%TD*%
%TA.AperFunction,SMDPad,CuDef*%
%ADD12R,0.550013X0.800000*%
%TD*%
%TA.AperFunction,ViaPad*%
%ADD13C,0.800000*%
%TD*%
%TA.AperFunction,ViaPad*%
%ADD14C,0.450000*%
%TD*%
%TA.AperFunction,Conductor*%
%ADD15C,0.250000*%
%TD*%
G04 APERTURE END LIST*
D10*
%TO.P,J1,1,Pin_1*%
%TO.N,GND*%
X108380000Y-123000000D03*
D11*
%TO.P,J1,2,Pin_2*%
%TO.N,SENSE_B*%
X110920000Y-123000000D03*
%TO.P,J1,3,Pin_3*%
%TO.N,SENSE_A*%
X113460000Y-123000000D03*
%TO.P,J1,4,Pin_4*%
%TO.N,+5V*%
X116000000Y-123000000D03*
%TD*%
D12*
%TO.P,U1,1*%
%TO.N,+5V*%
X113599949Y-104335027D03*
%TO.P,U1,2*%
%TO.N,SENSE_A*%
X114400051Y-104335027D03*
%TO.P,U1,3,A*%
%TO.N,Net-(U1-A)*%
X114400051Y-105664973D03*
%TO.P,U1,4,K*%
%TO.N,GND*%
X113600203Y-105664973D03*
%TD*%
%TO.P,U2,1*%
%TO.N,+5V*%
X110599949Y-104335027D03*
%TO.P,U2,2*%
%TO.N,SENSE_B*%
X111400051Y-104335027D03*
%TO.P,U2,3,A*%
%TO.N,Net-(U2-A)*%
X111400051Y-105664973D03*
%TO.P,U2,4,K*%
%TO.N,GND*%
X110600203Y-105664973D03*
%TD*%
D13*
%TO.N,GND*%
X123500000Y-113000000D03*
X123500000Y-111000000D03*
X101500000Y-115000000D03*
X101500000Y-119000000D03*
X122000000Y-119000000D03*
X122000000Y-121000000D03*
X122000000Y-117000000D03*
X122000000Y-103000000D03*
X101500000Y-109000000D03*
X122000000Y-115000000D03*
X112500000Y-114500000D03*
X105000000Y-124000000D03*
X101500000Y-103000000D03*
D14*
X116750000Y-107750000D03*
D13*
X112500000Y-117500000D03*
X103000000Y-121000000D03*
X101500000Y-105000000D03*
X101500000Y-107000000D03*
X101500000Y-117000000D03*
X103000000Y-113000000D03*
X103000000Y-115000000D03*
X123500000Y-103000000D03*
X103000000Y-109000000D03*
X122000000Y-105000000D03*
X122000000Y-107000000D03*
X101500000Y-113000000D03*
X112500000Y-111500000D03*
X103000000Y-117000000D03*
D14*
X113000000Y-106750000D03*
X108250000Y-107750000D03*
D13*
X103000000Y-103000000D03*
X122000000Y-111000000D03*
D14*
X116740000Y-102330000D03*
D13*
X123500000Y-117000000D03*
X103000000Y-107000000D03*
D14*
X109750000Y-105250000D03*
D13*
X103000000Y-119000000D03*
X123500000Y-115000000D03*
X123500000Y-109000000D03*
X122000000Y-109000000D03*
D14*
X109750000Y-105950000D03*
X108260000Y-101710000D03*
D13*
X106500000Y-122000000D03*
X123500000Y-121000000D03*
D14*
X108250000Y-102340000D03*
D13*
X103000000Y-111000000D03*
D14*
X116740000Y-101600000D03*
D13*
X105000000Y-122000000D03*
X123500000Y-119000000D03*
D14*
X116750000Y-108250000D03*
D13*
X106500000Y-124000000D03*
D14*
X108250000Y-108250000D03*
D13*
X123500000Y-105000000D03*
X101500000Y-121000000D03*
X101500000Y-111000000D03*
D14*
X113750000Y-106750000D03*
D13*
X123500000Y-107000000D03*
X122000000Y-113000000D03*
X103000000Y-105000000D03*
D14*
%TO.N,Net-(U1-A)*%
X116914973Y-105664973D03*
%TO.N,Net-(U2-A)*%
X108000000Y-106500000D03*
%TO.N,SENSE_A*%
X115250000Y-104750000D03*
D13*
%TO.N,+5V*%
X118500000Y-121962500D03*
D14*
X113860000Y-103270000D03*
X119250000Y-104000000D03*
X105750000Y-104000000D03*
X110930000Y-103269898D03*
%TO.N,SENSE_B*%
X111750000Y-107250000D03*
%TD*%
D15*
%TO.N,GND*%
X113600203Y-106600203D02*
X113600203Y-105664973D01*
X109750000Y-105250000D02*
X110185230Y-105250000D01*
X110315176Y-105950000D02*
X110600203Y-105664973D01*
X113000000Y-106265176D02*
X113000000Y-106750000D01*
X113750000Y-106750000D02*
X113600203Y-106600203D01*
X109750000Y-105950000D02*
X110315176Y-105950000D01*
X113600203Y-105664973D02*
X113000000Y-106265176D01*
X110185230Y-105250000D02*
X110600203Y-105664973D01*
%TO.N,Net-(U1-A)*%
X116914973Y-105664973D02*
X114400051Y-105664973D01*
%TO.N,Net-(U2-A)*%
X108000000Y-106500000D02*
X111000000Y-106500000D01*
X111400051Y-106099949D02*
X111400051Y-105664973D01*
X111000000Y-106500000D02*
X111400051Y-106099949D01*
%TO.N,SENSE_A*%
X115250000Y-104750000D02*
X114835027Y-104335027D01*
X114835027Y-104335027D02*
X114400051Y-104335027D01*
%TO.N,+5V*%
X110599949Y-103599949D02*
X110599949Y-104335027D01*
X113599949Y-103530051D02*
X113599949Y-104335027D01*
X110930000Y-103269898D02*
X110599949Y-103599949D01*
X113860000Y-103270000D02*
X113599949Y-103530051D01*
%TO.N,SENSE_B*%
X111835027Y-104335027D02*
X111400051Y-104335027D01*
X112125000Y-106875000D02*
X112125000Y-104625000D01*
X112125000Y-104625000D02*
X111835027Y-104335027D01*
X111750000Y-107250000D02*
X112125000Y-106875000D01*
%TD*%
%TA.AperFunction,Conductor*%
%TO.N,GND*%
G36*
X122001464Y-100000534D02*
G01*
X122204102Y-100005347D01*
X122210177Y-100005642D01*
X122401379Y-100019637D01*
X122407694Y-100020264D01*
X122589554Y-100043032D01*
X122596085Y-100044026D01*
X122768413Y-100075029D01*
X122775115Y-100076428D01*
X122939573Y-100115532D01*
X122946372Y-100117355D01*
X123099981Y-100163291D01*
X123110304Y-100166882D01*
X123400922Y-100282570D01*
X123414596Y-100289006D01*
X123675909Y-100432094D01*
X123688954Y-100440331D01*
X123925346Y-100611066D01*
X123937238Y-100620835D01*
X124150597Y-100819538D01*
X124160987Y-100830466D01*
X124176912Y-100849401D01*
X124352365Y-101058020D01*
X124361033Y-101069645D01*
X124530385Y-101326869D01*
X124537295Y-101338749D01*
X124666252Y-101591768D01*
X124683554Y-101625714D01*
X124688805Y-101637494D01*
X124809852Y-101952098D01*
X124813628Y-101963543D01*
X124906426Y-102298756D01*
X124908941Y-102309769D01*
X124969690Y-102645641D01*
X124971250Y-102657518D01*
X124999080Y-102994923D01*
X124999500Y-103005116D01*
X124999500Y-121998520D01*
X124999465Y-122001465D01*
X124994651Y-122204087D01*
X124994355Y-122210194D01*
X124980363Y-122401344D01*
X124979734Y-122407695D01*
X124956968Y-122589547D01*
X124955969Y-122596100D01*
X124924970Y-122768403D01*
X124923566Y-122775131D01*
X124884472Y-122939552D01*
X124882636Y-122946396D01*
X124836708Y-123099976D01*
X124833114Y-123110309D01*
X124717433Y-123400908D01*
X124710988Y-123414602D01*
X124567899Y-123675915D01*
X124559660Y-123688963D01*
X124388937Y-123925339D01*
X124379157Y-123937245D01*
X124180461Y-124150597D01*
X124169531Y-124160988D01*
X123941978Y-124352365D01*
X123930353Y-124361033D01*
X123673129Y-124530385D01*
X123661249Y-124537295D01*
X123374291Y-124683550D01*
X123362511Y-124688801D01*
X123047900Y-124809852D01*
X123036455Y-124813628D01*
X122701244Y-124906425D01*
X122690231Y-124908940D01*
X122354355Y-124969691D01*
X122342478Y-124971251D01*
X122005075Y-124999080D01*
X121994882Y-124999500D01*
X103001480Y-124999500D01*
X102998535Y-124999465D01*
X102795911Y-124994651D01*
X102789804Y-124994355D01*
X102598654Y-124980363D01*
X102592303Y-124979734D01*
X102410451Y-124956968D01*
X102403898Y-124955969D01*
X102231595Y-124924970D01*
X102224867Y-124923566D01*
X102060446Y-124884472D01*
X102053602Y-124882636D01*
X101900022Y-124836708D01*
X101889689Y-124833114D01*
X101599090Y-124717433D01*
X101585396Y-124710988D01*
X101324083Y-124567899D01*
X101311035Y-124559660D01*
X101074659Y-124388937D01*
X101062758Y-124379161D01*
X100849392Y-124180451D01*
X100839010Y-124169531D01*
X100828459Y-124156986D01*
X100647631Y-123941975D01*
X100638965Y-123930353D01*
X100629634Y-123916181D01*
X100469612Y-123673128D01*
X100462703Y-123661249D01*
X100456082Y-123648259D01*
X100316447Y-123374288D01*
X100311201Y-123362522D01*
X100190144Y-123047895D01*
X100186370Y-123036455D01*
X100160628Y-122943466D01*
X100093569Y-122701229D01*
X100091061Y-122690247D01*
X100030304Y-122354339D01*
X100028749Y-122342493D01*
X100008927Y-122102155D01*
X107030000Y-122102155D01*
X107030000Y-122750000D01*
X107946988Y-122750000D01*
X107914075Y-122807007D01*
X107880000Y-122934174D01*
X107880000Y-123065826D01*
X107914075Y-123192993D01*
X107946988Y-123250000D01*
X107030000Y-123250000D01*
X107030000Y-123897844D01*
X107036401Y-123957372D01*
X107036403Y-123957379D01*
X107086645Y-124092086D01*
X107086649Y-124092093D01*
X107172809Y-124207187D01*
X107172812Y-124207190D01*
X107287906Y-124293350D01*
X107287913Y-124293354D01*
X107422620Y-124343596D01*
X107422627Y-124343598D01*
X107482155Y-124349999D01*
X107482172Y-124350000D01*
X108130000Y-124350000D01*
X108130000Y-123433012D01*
X108187007Y-123465925D01*
X108314174Y-123500000D01*
X108445826Y-123500000D01*
X108572993Y-123465925D01*
X108630000Y-123433012D01*
X108630000Y-124350000D01*
X109277828Y-124350000D01*
X109277844Y-124349999D01*
X109337372Y-124343598D01*
X109337379Y-124343596D01*
X109472086Y-124293354D01*
X109472093Y-124293350D01*
X109587187Y-124207190D01*
X109587190Y-124207187D01*
X109673350Y-124092093D01*
X109673354Y-124092086D01*
X109722422Y-123960529D01*
X109764293Y-123904595D01*
X109829757Y-123880178D01*
X109898030Y-123895030D01*
X109926285Y-123916181D01*
X110040213Y-124030109D01*
X110212179Y-124155048D01*
X110212181Y-124155049D01*
X110212184Y-124155051D01*
X110401588Y-124251557D01*
X110603757Y-124317246D01*
X110813713Y-124350500D01*
X110813714Y-124350500D01*
X111026286Y-124350500D01*
X111026287Y-124350500D01*
X111236243Y-124317246D01*
X111438412Y-124251557D01*
X111627816Y-124155051D01*
X111714471Y-124092093D01*
X111799786Y-124030109D01*
X111799788Y-124030106D01*
X111799792Y-124030104D01*
X111950104Y-123879792D01*
X111950106Y-123879788D01*
X111950109Y-123879786D01*
X112075048Y-123707820D01*
X112075047Y-123707820D01*
X112075051Y-123707816D01*
X112079514Y-123699054D01*
X112127488Y-123648259D01*
X112195308Y-123631463D01*
X112261444Y-123653999D01*
X112300486Y-123699056D01*
X112304951Y-123707820D01*
X112429890Y-123879786D01*
X112580213Y-124030109D01*
X112752179Y-124155048D01*
X112752181Y-124155049D01*
X112752184Y-124155051D01*
X112941588Y-124251557D01*
X113143757Y-124317246D01*
X113353713Y-124350500D01*
X113353714Y-124350500D01*
X113566286Y-124350500D01*
X113566287Y-124350500D01*
X113776243Y-124317246D01*
X113978412Y-124251557D01*
X114167816Y-124155051D01*
X114254471Y-124092093D01*
X114339786Y-124030109D01*
X114339788Y-124030106D01*
X114339792Y-124030104D01*
X114490104Y-123879792D01*
X114490106Y-123879788D01*
X114490109Y-123879786D01*
X114615048Y-123707820D01*
X114615047Y-123707820D01*
X114615051Y-123707816D01*
X114619514Y-123699054D01*
X114667488Y-123648259D01*
X114735308Y-123631463D01*
X114801444Y-123653999D01*
X114840486Y-123699056D01*
X114844951Y-123707820D01*
X114969890Y-123879786D01*
X115120213Y-124030109D01*
X115292179Y-124155048D01*
X115292181Y-124155049D01*
X115292184Y-124155051D01*
X115481588Y-124251557D01*
X115683757Y-124317246D01*
X115893713Y-124350500D01*
X115893714Y-124350500D01*
X116106286Y-124350500D01*
X116106287Y-124350500D01*
X116316243Y-124317246D01*
X116518412Y-124251557D01*
X116707816Y-124155051D01*
X116794471Y-124092093D01*
X116879786Y-124030109D01*
X116879788Y-124030106D01*
X116879792Y-124030104D01*
X117030104Y-123879792D01*
X117030106Y-123879788D01*
X117030109Y-123879786D01*
X117155048Y-123707820D01*
X117155047Y-123707820D01*
X117155051Y-123707816D01*
X117251557Y-123518412D01*
X117317246Y-123316243D01*
X117350500Y-123106287D01*
X117350500Y-122893713D01*
X117317246Y-122683757D01*
X117251557Y-122481588D01*
X117155051Y-122292184D01*
X117155049Y-122292181D01*
X117155048Y-122292179D01*
X117030109Y-122120213D01*
X116879790Y-121969894D01*
X116877231Y-121968035D01*
X116877229Y-121968033D01*
X116747533Y-121873804D01*
X117599500Y-121873804D01*
X117599500Y-122051195D01*
X117634103Y-122225158D01*
X117634106Y-122225167D01*
X117701983Y-122389040D01*
X117701990Y-122389053D01*
X117800535Y-122536534D01*
X117800538Y-122536538D01*
X117925961Y-122661961D01*
X117925965Y-122661964D01*
X118073446Y-122760509D01*
X118073459Y-122760516D01*
X118185701Y-122807007D01*
X118237334Y-122828394D01*
X118237336Y-122828394D01*
X118237341Y-122828396D01*
X118411304Y-122862999D01*
X118411307Y-122863000D01*
X118411309Y-122863000D01*
X118588693Y-122863000D01*
X118588694Y-122862999D01*
X118646682Y-122851464D01*
X118762658Y-122828396D01*
X118762661Y-122828394D01*
X118762666Y-122828394D01*
X118926547Y-122760513D01*
X119074035Y-122661964D01*
X119199464Y-122536535D01*
X119298013Y-122389047D01*
X119365894Y-122225166D01*
X119369480Y-122207142D01*
X119400499Y-122051195D01*
X119400500Y-122051193D01*
X119400500Y-121873806D01*
X119400499Y-121873804D01*
X119365896Y-121699841D01*
X119365893Y-121699832D01*
X119298016Y-121535959D01*
X119298009Y-121535946D01*
X119199464Y-121388465D01*
X119199461Y-121388461D01*
X119074038Y-121263038D01*
X119074034Y-121263035D01*
X118926553Y-121164490D01*
X118926540Y-121164483D01*
X118762667Y-121096606D01*
X118762658Y-121096603D01*
X118588694Y-121062000D01*
X118588691Y-121062000D01*
X118411309Y-121062000D01*
X118411306Y-121062000D01*
X118237341Y-121096603D01*
X118237332Y-121096606D01*
X118073459Y-121164483D01*
X118073446Y-121164490D01*
X117925965Y-121263035D01*
X117925961Y-121263038D01*
X117800538Y-121388461D01*
X117800535Y-121388465D01*
X117701990Y-121535946D01*
X117701983Y-121535959D01*
X117634106Y-121699832D01*
X117634103Y-121699841D01*
X117599500Y-121873804D01*
X116747533Y-121873804D01*
X116707820Y-121844951D01*
X116518414Y-121748444D01*
X116518413Y-121748443D01*
X116518412Y-121748443D01*
X116316243Y-121682754D01*
X116316241Y-121682753D01*
X116316240Y-121682753D01*
X116154957Y-121657208D01*
X116106287Y-121649500D01*
X115893713Y-121649500D01*
X115845042Y-121657208D01*
X115683760Y-121682753D01*
X115481585Y-121748444D01*
X115292179Y-121844951D01*
X115120213Y-121969890D01*
X114969890Y-122120213D01*
X114844949Y-122292182D01*
X114840484Y-122300946D01*
X114792509Y-122351742D01*
X114724688Y-122368536D01*
X114658553Y-122345998D01*
X114619516Y-122300946D01*
X114615050Y-122292182D01*
X114490109Y-122120213D01*
X114339786Y-121969890D01*
X114167820Y-121844951D01*
X113978414Y-121748444D01*
X113978413Y-121748443D01*
X113978412Y-121748443D01*
X113776243Y-121682754D01*
X113776241Y-121682753D01*
X113776240Y-121682753D01*
X113614957Y-121657208D01*
X113566287Y-121649500D01*
X113353713Y-121649500D01*
X113305042Y-121657208D01*
X113143760Y-121682753D01*
X112941585Y-121748444D01*
X112752179Y-121844951D01*
X112580213Y-121969890D01*
X112429890Y-122120213D01*
X112304949Y-122292182D01*
X112300484Y-122300946D01*
X112252509Y-122351742D01*
X112184688Y-122368536D01*
X112118553Y-122345998D01*
X112079516Y-122300946D01*
X112075050Y-122292182D01*
X111950109Y-122120213D01*
X111799786Y-121969890D01*
X111627820Y-121844951D01*
X111438414Y-121748444D01*
X111438413Y-121748443D01*
X111438412Y-121748443D01*
X111236243Y-121682754D01*
X111236241Y-121682753D01*
X111236240Y-121682753D01*
X111074957Y-121657208D01*
X111026287Y-121649500D01*
X110813713Y-121649500D01*
X110765042Y-121657208D01*
X110603760Y-121682753D01*
X110401585Y-121748444D01*
X110212179Y-121844951D01*
X110040215Y-121969889D01*
X109926285Y-122083819D01*
X109864962Y-122117303D01*
X109795270Y-122112319D01*
X109739337Y-122070447D01*
X109722422Y-122039470D01*
X109673354Y-121907913D01*
X109673350Y-121907906D01*
X109587190Y-121792812D01*
X109587187Y-121792809D01*
X109472093Y-121706649D01*
X109472086Y-121706645D01*
X109337379Y-121656403D01*
X109337372Y-121656401D01*
X109277844Y-121650000D01*
X108630000Y-121650000D01*
X108630000Y-122566988D01*
X108572993Y-122534075D01*
X108445826Y-122500000D01*
X108314174Y-122500000D01*
X108187007Y-122534075D01*
X108130000Y-122566988D01*
X108130000Y-121650000D01*
X107482155Y-121650000D01*
X107422627Y-121656401D01*
X107422620Y-121656403D01*
X107287913Y-121706645D01*
X107287906Y-121706649D01*
X107172812Y-121792809D01*
X107172809Y-121792812D01*
X107086649Y-121907906D01*
X107086645Y-121907913D01*
X107036403Y-122042620D01*
X107036401Y-122042627D01*
X107030000Y-122102155D01*
X100008927Y-122102155D01*
X100004724Y-122051193D01*
X100000920Y-122005074D01*
X100000500Y-121994882D01*
X100000500Y-106571457D01*
X107274499Y-106571457D01*
X107302379Y-106711614D01*
X107302381Y-106711620D01*
X107357069Y-106843650D01*
X107357074Y-106843659D01*
X107436467Y-106962478D01*
X107436470Y-106962482D01*
X107537517Y-107063529D01*
X107537521Y-107063532D01*
X107656340Y-107142925D01*
X107656346Y-107142928D01*
X107656347Y-107142929D01*
X107788380Y-107197619D01*
X107788384Y-107197619D01*
X107788385Y-107197620D01*
X107928542Y-107225500D01*
X107928545Y-107225500D01*
X108071457Y-107225500D01*
X108176248Y-107204655D01*
X108211620Y-107197619D01*
X108343653Y-107142929D01*
X108343660Y-107142923D01*
X108348861Y-107140145D01*
X108407320Y-107125500D01*
X110900500Y-107125500D01*
X110967539Y-107145185D01*
X111013294Y-107197989D01*
X111024500Y-107249500D01*
X111024500Y-107321455D01*
X111024500Y-107321457D01*
X111024499Y-107321457D01*
X111052379Y-107461614D01*
X111052381Y-107461620D01*
X111107069Y-107593650D01*
X111107074Y-107593659D01*
X111186467Y-107712478D01*
X111186470Y-107712482D01*
X111287517Y-107813529D01*
X111287521Y-107813532D01*
X111406340Y-107892925D01*
X111406346Y-107892928D01*
X111406347Y-107892929D01*
X111538380Y-107947619D01*
X111538384Y-107947619D01*
X111538385Y-107947620D01*
X111678542Y-107975500D01*
X111678545Y-107975500D01*
X111821457Y-107975500D01*
X111915751Y-107956742D01*
X111961620Y-107947619D01*
X112093653Y-107892929D01*
X112212479Y-107813532D01*
X112313532Y-107712479D01*
X112392929Y-107593653D01*
X112447619Y-107461620D01*
X112447621Y-107461605D01*
X112449334Y-107455963D01*
X112456761Y-107443570D01*
X112459164Y-107432527D01*
X112480312Y-107404276D01*
X112523729Y-107360860D01*
X112523733Y-107360858D01*
X112610858Y-107273733D01*
X112661716Y-107197619D01*
X112679312Y-107171286D01*
X112712652Y-107090792D01*
X112717448Y-107079212D01*
X112726461Y-107057458D01*
X112726461Y-107057455D01*
X112726463Y-107057452D01*
X112738481Y-106997029D01*
X112750500Y-106936607D01*
X112750500Y-106813393D01*
X112750500Y-106504017D01*
X112770185Y-106436978D01*
X112822989Y-106391223D01*
X112892147Y-106381279D01*
X112955703Y-106410304D01*
X112962181Y-106416336D01*
X112968008Y-106422163D01*
X113083102Y-106508323D01*
X113083109Y-106508327D01*
X113217816Y-106558569D01*
X113217823Y-106558571D01*
X113277351Y-106564972D01*
X113277368Y-106564973D01*
X113350203Y-106564973D01*
X113350203Y-105788973D01*
X113352753Y-105780287D01*
X113351465Y-105771326D01*
X113362443Y-105747285D01*
X113369888Y-105721934D01*
X113376728Y-105716006D01*
X113380490Y-105707770D01*
X113402724Y-105693480D01*
X113422692Y-105676179D01*
X113433206Y-105673891D01*
X113439268Y-105669996D01*
X113474203Y-105664973D01*
X113500544Y-105664973D01*
X113567583Y-105684658D01*
X113613338Y-105737462D01*
X113624544Y-105788973D01*
X113624544Y-106112842D01*
X113624545Y-106112849D01*
X113630952Y-106172456D01*
X113681246Y-106307301D01*
X113681247Y-106307302D01*
X113681248Y-106307304D01*
X113705846Y-106340162D01*
X113767498Y-106422520D01*
X113800512Y-106447233D01*
X113842384Y-106503166D01*
X113850203Y-106546501D01*
X113850203Y-106564973D01*
X113923038Y-106564973D01*
X113923049Y-106564972D01*
X113984522Y-106558362D01*
X114011036Y-106558362D01*
X114017559Y-106559063D01*
X114017561Y-106559064D01*
X114077171Y-106565473D01*
X114722930Y-106565472D01*
X114782541Y-106559064D01*
X114917389Y-106508769D01*
X115032604Y-106422519D01*
X115094257Y-106340161D01*
X115150190Y-106298291D01*
X115193523Y-106290473D01*
X116507653Y-106290473D01*
X116566112Y-106305118D01*
X116571314Y-106307898D01*
X116571320Y-106307902D01*
X116703353Y-106362592D01*
X116703357Y-106362592D01*
X116703358Y-106362593D01*
X116843515Y-106390473D01*
X116843518Y-106390473D01*
X116986430Y-106390473D01*
X117080724Y-106371715D01*
X117126593Y-106362592D01*
X117258626Y-106307902D01*
X117377452Y-106228505D01*
X117478505Y-106127452D01*
X117557902Y-106008626D01*
X117612592Y-105876593D01*
X117637674Y-105750500D01*
X117640473Y-105736430D01*
X117640473Y-105593515D01*
X117612593Y-105453358D01*
X117612592Y-105453357D01*
X117612592Y-105453353D01*
X117557902Y-105321320D01*
X117557901Y-105321319D01*
X117557898Y-105321313D01*
X117478505Y-105202494D01*
X117478502Y-105202490D01*
X117377455Y-105101443D01*
X117377451Y-105101440D01*
X117258632Y-105022047D01*
X117258623Y-105022042D01*
X117126593Y-104967354D01*
X117126587Y-104967352D01*
X116986430Y-104939473D01*
X116986428Y-104939473D01*
X116843518Y-104939473D01*
X116843516Y-104939473D01*
X116703358Y-104967352D01*
X116703352Y-104967354D01*
X116571321Y-105022043D01*
X116566112Y-105024828D01*
X116507653Y-105039473D01*
X116083228Y-105039473D01*
X116016189Y-105019788D01*
X115970434Y-104966984D01*
X115960490Y-104897826D01*
X115961611Y-104891281D01*
X115975500Y-104821457D01*
X115975500Y-104678542D01*
X115947620Y-104538385D01*
X115947619Y-104538384D01*
X115947619Y-104538380D01*
X115892929Y-104406347D01*
X115892928Y-104406346D01*
X115892925Y-104406340D01*
X115813532Y-104287521D01*
X115813529Y-104287517D01*
X115712482Y-104186470D01*
X115712478Y-104186467D01*
X115593659Y-104107074D01*
X115593650Y-104107069D01*
X115507674Y-104071457D01*
X118524499Y-104071457D01*
X118552379Y-104211614D01*
X118552381Y-104211620D01*
X118607069Y-104343650D01*
X118607074Y-104343659D01*
X118686467Y-104462478D01*
X118686470Y-104462482D01*
X118787517Y-104563529D01*
X118787521Y-104563532D01*
X118906340Y-104642925D01*
X118906346Y-104642928D01*
X118906347Y-104642929D01*
X119038380Y-104697619D01*
X119038384Y-104697619D01*
X119038385Y-104697620D01*
X119178542Y-104725500D01*
X119178545Y-104725500D01*
X119321457Y-104725500D01*
X119415751Y-104706742D01*
X119461620Y-104697619D01*
X119593653Y-104642929D01*
X119712479Y-104563532D01*
X119813532Y-104462479D01*
X119892929Y-104343653D01*
X119947619Y-104211620D01*
X119968415Y-104107074D01*
X119975500Y-104071457D01*
X119975500Y-103928542D01*
X119947620Y-103788385D01*
X119947619Y-103788384D01*
X119947619Y-103788380D01*
X119892929Y-103656347D01*
X119892928Y-103656346D01*
X119892925Y-103656340D01*
X119813532Y-103537521D01*
X119813529Y-103537517D01*
X119712482Y-103436470D01*
X119712478Y-103436467D01*
X119593659Y-103357074D01*
X119593650Y-103357069D01*
X119461620Y-103302381D01*
X119461614Y-103302379D01*
X119321457Y-103274500D01*
X119321455Y-103274500D01*
X119178545Y-103274500D01*
X119178543Y-103274500D01*
X119038385Y-103302379D01*
X119038379Y-103302381D01*
X118906349Y-103357069D01*
X118906340Y-103357074D01*
X118787521Y-103436467D01*
X118787517Y-103436470D01*
X118686470Y-103537517D01*
X118686467Y-103537521D01*
X118607074Y-103656340D01*
X118607069Y-103656349D01*
X118552381Y-103788379D01*
X118552379Y-103788385D01*
X118524500Y-103928542D01*
X118524500Y-103928545D01*
X118524500Y-104071455D01*
X118524500Y-104071457D01*
X118524499Y-104071457D01*
X115507674Y-104071457D01*
X115461613Y-104052378D01*
X115455947Y-104050659D01*
X115443561Y-104043234D01*
X115432527Y-104040834D01*
X115404273Y-104019683D01*
X115327955Y-103943365D01*
X115327952Y-103943361D01*
X115327952Y-103943362D01*
X115320886Y-103936296D01*
X115320885Y-103936294D01*
X115233760Y-103849169D01*
X115233756Y-103849166D01*
X115233755Y-103849165D01*
X115191741Y-103821092D01*
X115146935Y-103767480D01*
X115144461Y-103761355D01*
X115118854Y-103692696D01*
X115118852Y-103692694D01*
X115118852Y-103692692D01*
X115032605Y-103577482D01*
X115032602Y-103577479D01*
X114917393Y-103491233D01*
X114917386Y-103491229D01*
X114782540Y-103440935D01*
X114782541Y-103440935D01*
X114722941Y-103434528D01*
X114722939Y-103434527D01*
X114722931Y-103434527D01*
X114722923Y-103434527D01*
X114709500Y-103434527D01*
X114642461Y-103414842D01*
X114596706Y-103362038D01*
X114585500Y-103310527D01*
X114585500Y-103198542D01*
X114557620Y-103058385D01*
X114557619Y-103058384D01*
X114557619Y-103058380D01*
X114502929Y-102926347D01*
X114502928Y-102926346D01*
X114502925Y-102926340D01*
X114423532Y-102807521D01*
X114423529Y-102807517D01*
X114322482Y-102706470D01*
X114322478Y-102706467D01*
X114203659Y-102627074D01*
X114203650Y-102627069D01*
X114071620Y-102572381D01*
X114071614Y-102572379D01*
X113931457Y-102544500D01*
X113931455Y-102544500D01*
X113788545Y-102544500D01*
X113788543Y-102544500D01*
X113648385Y-102572379D01*
X113648379Y-102572381D01*
X113516349Y-102627069D01*
X113516340Y-102627074D01*
X113397521Y-102706467D01*
X113397517Y-102706470D01*
X113296470Y-102807517D01*
X113296467Y-102807521D01*
X113217074Y-102926340D01*
X113217069Y-102926350D01*
X113162380Y-103058380D01*
X113160664Y-103064039D01*
X113129687Y-103115721D01*
X113114096Y-103131312D01*
X113114092Y-103131316D01*
X113114091Y-103131318D01*
X113079864Y-103182541D01*
X113079863Y-103182543D01*
X113079862Y-103182542D01*
X113045639Y-103233759D01*
X113045637Y-103233764D01*
X113017215Y-103302380D01*
X113017216Y-103302381D01*
X113005103Y-103331624D01*
X113005102Y-103331627D01*
X113001074Y-103341353D01*
X112998486Y-103347600D01*
X112977651Y-103452349D01*
X112977329Y-103453968D01*
X112974449Y-103468445D01*
X112974449Y-103526788D01*
X112954764Y-103593827D01*
X112949715Y-103601099D01*
X112881148Y-103692691D01*
X112881144Y-103692698D01*
X112830850Y-103827544D01*
X112824443Y-103887143D01*
X112824442Y-103887162D01*
X112824442Y-104140488D01*
X112818203Y-104161733D01*
X112816624Y-104183820D01*
X112808551Y-104194603D01*
X112804757Y-104207527D01*
X112788024Y-104222025D01*
X112774754Y-104239754D01*
X112762131Y-104244461D01*
X112751953Y-104253282D01*
X112730036Y-104256433D01*
X112709289Y-104264172D01*
X112696127Y-104261309D01*
X112682795Y-104263226D01*
X112662653Y-104254027D01*
X112641016Y-104249321D01*
X112623289Y-104236050D01*
X112619239Y-104234201D01*
X112612762Y-104228170D01*
X112546324Y-104161733D01*
X112523733Y-104139142D01*
X112523729Y-104139139D01*
X112325225Y-103940635D01*
X112325205Y-103940613D01*
X112233763Y-103849171D01*
X112233755Y-103849165D01*
X112191741Y-103821092D01*
X112146935Y-103767480D01*
X112144461Y-103761355D01*
X112118854Y-103692696D01*
X112118852Y-103692694D01*
X112118852Y-103692692D01*
X112032605Y-103577482D01*
X112032602Y-103577479D01*
X111917393Y-103491233D01*
X111917386Y-103491229D01*
X111782541Y-103440936D01*
X111766241Y-103439183D01*
X111701691Y-103412443D01*
X111661844Y-103355049D01*
X111655500Y-103315894D01*
X111655500Y-103198440D01*
X111627620Y-103058283D01*
X111627619Y-103058282D01*
X111627619Y-103058278D01*
X111585318Y-102956156D01*
X111572930Y-102926247D01*
X111572925Y-102926238D01*
X111493532Y-102807419D01*
X111493529Y-102807415D01*
X111392482Y-102706368D01*
X111392478Y-102706365D01*
X111273659Y-102626972D01*
X111273650Y-102626967D01*
X111141620Y-102572279D01*
X111141614Y-102572277D01*
X111001457Y-102544398D01*
X111001455Y-102544398D01*
X110858545Y-102544398D01*
X110858543Y-102544398D01*
X110718385Y-102572277D01*
X110718379Y-102572279D01*
X110586349Y-102626967D01*
X110586340Y-102626972D01*
X110467521Y-102706365D01*
X110467517Y-102706368D01*
X110366470Y-102807415D01*
X110366467Y-102807419D01*
X110287074Y-102926238D01*
X110287069Y-102926247D01*
X110232379Y-103058281D01*
X110230663Y-103063940D01*
X110199686Y-103115621D01*
X110114088Y-103201219D01*
X110114087Y-103201221D01*
X110045639Y-103303657D01*
X110045638Y-103303659D01*
X110026876Y-103348954D01*
X110026877Y-103348955D01*
X109998484Y-103417501D01*
X109998484Y-103417502D01*
X109988351Y-103468442D01*
X109988352Y-103468443D01*
X109975155Y-103534792D01*
X109975152Y-103534808D01*
X109974613Y-103537521D01*
X109974449Y-103538343D01*
X109974449Y-103539420D01*
X109973649Y-103544666D01*
X109963485Y-103566420D01*
X109950335Y-103600271D01*
X109881146Y-103692695D01*
X109881144Y-103692698D01*
X109830850Y-103827544D01*
X109824443Y-103887143D01*
X109824442Y-103887162D01*
X109824442Y-104782897D01*
X109824443Y-104782903D01*
X109830850Y-104842510D01*
X109873822Y-104957722D01*
X109878806Y-105027414D01*
X109873822Y-105044388D01*
X109831599Y-105157593D01*
X109831597Y-105157600D01*
X109825196Y-105217128D01*
X109825196Y-105414973D01*
X110476203Y-105414973D01*
X110484888Y-105417523D01*
X110493850Y-105416235D01*
X110517890Y-105427213D01*
X110543242Y-105434658D01*
X110549169Y-105441498D01*
X110557406Y-105445260D01*
X110571695Y-105467494D01*
X110588997Y-105487462D01*
X110591284Y-105497976D01*
X110595180Y-105504038D01*
X110600203Y-105538973D01*
X110600203Y-105750500D01*
X110580518Y-105817539D01*
X110527714Y-105863294D01*
X110476203Y-105874500D01*
X108407320Y-105874500D01*
X108348861Y-105859855D01*
X108343651Y-105857070D01*
X108211620Y-105802381D01*
X108211614Y-105802379D01*
X108071457Y-105774500D01*
X108071455Y-105774500D01*
X107928545Y-105774500D01*
X107928543Y-105774500D01*
X107788385Y-105802379D01*
X107788379Y-105802381D01*
X107656349Y-105857069D01*
X107656340Y-105857074D01*
X107537521Y-105936467D01*
X107537517Y-105936470D01*
X107436470Y-106037517D01*
X107436467Y-106037521D01*
X107357074Y-106156340D01*
X107357069Y-106156349D01*
X107302381Y-106288379D01*
X107302379Y-106288385D01*
X107274500Y-106428542D01*
X107274500Y-106428545D01*
X107274500Y-106571455D01*
X107274500Y-106571457D01*
X107274499Y-106571457D01*
X100000500Y-106571457D01*
X100000500Y-104071457D01*
X105024499Y-104071457D01*
X105052379Y-104211614D01*
X105052381Y-104211620D01*
X105107069Y-104343650D01*
X105107074Y-104343659D01*
X105186467Y-104462478D01*
X105186470Y-104462482D01*
X105287517Y-104563529D01*
X105287521Y-104563532D01*
X105406340Y-104642925D01*
X105406346Y-104642928D01*
X105406347Y-104642929D01*
X105538380Y-104697619D01*
X105538384Y-104697619D01*
X105538385Y-104697620D01*
X105678542Y-104725500D01*
X105678545Y-104725500D01*
X105821457Y-104725500D01*
X105915751Y-104706742D01*
X105961620Y-104697619D01*
X106093653Y-104642929D01*
X106212479Y-104563532D01*
X106313532Y-104462479D01*
X106392929Y-104343653D01*
X106447619Y-104211620D01*
X106468415Y-104107074D01*
X106475500Y-104071457D01*
X106475500Y-103928542D01*
X106447620Y-103788385D01*
X106447619Y-103788384D01*
X106447619Y-103788380D01*
X106392929Y-103656347D01*
X106392928Y-103656346D01*
X106392925Y-103656340D01*
X106313532Y-103537521D01*
X106313529Y-103537517D01*
X106212482Y-103436470D01*
X106212478Y-103436467D01*
X106093659Y-103357074D01*
X106093650Y-103357069D01*
X105961620Y-103302381D01*
X105961614Y-103302379D01*
X105821457Y-103274500D01*
X105821455Y-103274500D01*
X105678545Y-103274500D01*
X105678543Y-103274500D01*
X105538385Y-103302379D01*
X105538379Y-103302381D01*
X105406349Y-103357069D01*
X105406340Y-103357074D01*
X105287521Y-103436467D01*
X105287517Y-103436470D01*
X105186470Y-103537517D01*
X105186467Y-103537521D01*
X105107074Y-103656340D01*
X105107069Y-103656349D01*
X105052381Y-103788379D01*
X105052379Y-103788385D01*
X105024500Y-103928542D01*
X105024500Y-103928545D01*
X105024500Y-104071455D01*
X105024500Y-104071457D01*
X105024499Y-104071457D01*
X100000500Y-104071457D01*
X100000500Y-103001468D01*
X100000535Y-102998524D01*
X100002249Y-102926349D01*
X100005347Y-102795894D01*
X100005643Y-102789804D01*
X100011743Y-102706468D01*
X100019638Y-102598615D01*
X100020264Y-102592304D01*
X100043032Y-102410444D01*
X100044025Y-102403919D01*
X100075031Y-102231578D01*
X100076426Y-102224890D01*
X100115534Y-102060416D01*
X100117352Y-102053635D01*
X100163293Y-101900010D01*
X100166879Y-101889701D01*
X100282573Y-101599070D01*
X100289003Y-101585408D01*
X100432100Y-101324079D01*
X100440326Y-101311051D01*
X100611072Y-101074644D01*
X100620828Y-101062767D01*
X100819547Y-100849392D01*
X100830456Y-100839019D01*
X101058030Y-100647624D01*
X101069634Y-100638973D01*
X101326878Y-100469607D01*
X101338739Y-100462708D01*
X101625732Y-100316435D01*
X101637476Y-100311200D01*
X101952108Y-100190142D01*
X101963533Y-100186373D01*
X102298776Y-100093567D01*
X102309747Y-100091061D01*
X102645660Y-100030305D01*
X102657501Y-100028750D01*
X102959756Y-100003820D01*
X102994926Y-100000920D01*
X103005118Y-100000500D01*
X121998521Y-100000500D01*
X122001464Y-100000534D01*
G37*
%TD.AperFunction*%
%TD*%
M02*
