%TF.GenerationSoftware,KiCad,Pcbnew,9.0.6*%
%TF.CreationDate,2025-11-27T01:35:14-08:00*%
%TF.ProjectId,encoder-board,656e636f-6465-4722-9d62-6f6172642e6b,rev?*%
%TF.SameCoordinates,Original*%
%TF.FileFunction,Profile,NP*%
%FSLAX46Y46*%
G04 Gerber Fmt 4.6, Leading zero omitted, Abs format (unit mm)*
G04 Created by KiCad (PCBNEW 9.0.6) date 2025-11-27 01:35:14*
%MOMM*%
%LPD*%
G01*
G04 APERTURE LIST*
%ADD10C,0.100000*%
%TA.AperFunction,Profile*%
%ADD11C,0.100000*%
%TD*%
G04 APERTURE END LIST*
D10*
X125000000Y-122000000D02*
X124999990Y-122009477D01*
X124999960Y-122018934D01*
X124999910Y-122028371D01*
X124999840Y-122037788D01*
X124999751Y-122047185D01*
X124999642Y-122056562D01*
X124999512Y-122065920D01*
X124999364Y-122075258D01*
X124999195Y-122084576D01*
X124999007Y-122093874D01*
X124998799Y-122103153D01*
X124998572Y-122112413D01*
X124998325Y-122121653D01*
X124998059Y-122130873D01*
X124997773Y-122140074D01*
X124997468Y-122149255D01*
X124997144Y-122158418D01*
X124996800Y-122167560D01*
X124996437Y-122176684D01*
X124996055Y-122185789D01*
X124995654Y-122194874D01*
X124995233Y-122203940D01*
X124994794Y-122212987D01*
X124994335Y-122222015D01*
X124993857Y-122231024D01*
X124993360Y-122240013D01*
X124992845Y-122248985D01*
X124992310Y-122257936D01*
X124991757Y-122266870D01*
X124991184Y-122275784D01*
X124990593Y-122284680D01*
X124989983Y-122293556D01*
X124989354Y-122302415D01*
X124988707Y-122311254D01*
X124988041Y-122320075D01*
X124987356Y-122328877D01*
X124986653Y-122337661D01*
X124985931Y-122346426D01*
X124985191Y-122355173D01*
X124984432Y-122363901D01*
X124983654Y-122372612D01*
X124982859Y-122381303D01*
X124982045Y-122389977D01*
X124981212Y-122398632D01*
X124980361Y-122407269D01*
X124979492Y-122415887D01*
X124978605Y-122424489D01*
X124977699Y-122433071D01*
X124976776Y-122441636D01*
X124975834Y-122450182D01*
X124974874Y-122458711D01*
X124973896Y-122467221D01*
X124972900Y-122475714D01*
X124971885Y-122484188D01*
X124970853Y-122492646D01*
X124969803Y-122501084D01*
X124968735Y-122509506D01*
X124967649Y-122517910D01*
X124966545Y-122526296D01*
X124965424Y-122534664D01*
X124964284Y-122543016D01*
X124963127Y-122551348D01*
X124961952Y-122559665D01*
X124960760Y-122567963D01*
X124959550Y-122576244D01*
X124958322Y-122584507D01*
X124957076Y-122592754D01*
X124955813Y-122600982D01*
X124954532Y-122609195D01*
X124953234Y-122617388D01*
X124951918Y-122625566D01*
X124950585Y-122633725D01*
X124949235Y-122641869D01*
X124947867Y-122649994D01*
X124946481Y-122658104D01*
X124945078Y-122666194D01*
X124943658Y-122674270D01*
X124942221Y-122682327D01*
X124940766Y-122690369D01*
X124939294Y-122698392D01*
X124937805Y-122706400D01*
X124936299Y-122714390D01*
X124934775Y-122722364D01*
X124933235Y-122730321D01*
X124931677Y-122738262D01*
X124930102Y-122746185D01*
X124928510Y-122754093D01*
X124926901Y-122761982D01*
X124925275Y-122769857D01*
X124923632Y-122777714D01*
X124921972Y-122785556D01*
X124920295Y-122793379D01*
X124918601Y-122801189D01*
X124916891Y-122808980D01*
X124915163Y-122816756D01*
X124913419Y-122824515D01*
X124911657Y-122832259D01*
X124909879Y-122839985D01*
X124908084Y-122847696D01*
X124906273Y-122855390D01*
X124904444Y-122863070D01*
X124902600Y-122870731D01*
X124900738Y-122878379D01*
X124898860Y-122886008D01*
X124896964Y-122893623D01*
X124895053Y-122901221D01*
X124893125Y-122908805D01*
X124891180Y-122916370D01*
X124889218Y-122923923D01*
X124887241Y-122931457D01*
X124885246Y-122938978D01*
X124883236Y-122946480D01*
X124881208Y-122953970D01*
X124879164Y-122961441D01*
X124877104Y-122968899D01*
X124875027Y-122976339D01*
X124872934Y-122983766D01*
X124870825Y-122991175D01*
X124868699Y-122998571D01*
X124866557Y-123005949D01*
X124864398Y-123013315D01*
X124862223Y-123020662D01*
X124860032Y-123027997D01*
X124857825Y-123035313D01*
X124855601Y-123042617D01*
X124853362Y-123049903D01*
X124851105Y-123057177D01*
X124848833Y-123064433D01*
X124846544Y-123071676D01*
X124844240Y-123078902D01*
X124839582Y-123093310D01*
X124834860Y-123107659D01*
X124830073Y-123121948D01*
X124825222Y-123136177D01*
X124820307Y-123150347D01*
X124815328Y-123164458D01*
X124810285Y-123178510D01*
X124805179Y-123192504D01*
X124800008Y-123206440D01*
X124794774Y-123220317D01*
X124789476Y-123234137D01*
X124784115Y-123247899D01*
X124778690Y-123261604D01*
X124773203Y-123275252D01*
X124767652Y-123288843D01*
X124762038Y-123302378D01*
X124756360Y-123315856D01*
X124750620Y-123329278D01*
X124744817Y-123342644D01*
X124738951Y-123355954D01*
X124733023Y-123369209D01*
X124727031Y-123382409D01*
X124720977Y-123395553D01*
X124714860Y-123408643D01*
X124708681Y-123421678D01*
X124702439Y-123434659D01*
X124696134Y-123447586D01*
X124689767Y-123460459D01*
X124683338Y-123473277D01*
X124676846Y-123486043D01*
X124670292Y-123498755D01*
X124663675Y-123511413D01*
X124656996Y-123524019D01*
X124650255Y-123536572D01*
X124643451Y-123549072D01*
X124636585Y-123561520D01*
X124629656Y-123573916D01*
X124622665Y-123586259D01*
X124615612Y-123598551D01*
X124608497Y-123610790D01*
X124601319Y-123622979D01*
X124594078Y-123635116D01*
X124586776Y-123647201D01*
X124579411Y-123659236D01*
X124571983Y-123671220D01*
X124564493Y-123683152D01*
X124556941Y-123695035D01*
X124549326Y-123706867D01*
X124541648Y-123718648D01*
X124533908Y-123730380D01*
X124526105Y-123742061D01*
X124518240Y-123753692D01*
X124510312Y-123765274D01*
X124502321Y-123776806D01*
X124494267Y-123788289D01*
X124486150Y-123799722D01*
X124477970Y-123811106D01*
X124469728Y-123822441D01*
X124461422Y-123833727D01*
X124453053Y-123844964D01*
X124444621Y-123856153D01*
X124436126Y-123867292D01*
X124427567Y-123878383D01*
X124418945Y-123889426D01*
X124410259Y-123900420D01*
X124401510Y-123911366D01*
X124392697Y-123922264D01*
X124383820Y-123933114D01*
X124374880Y-123943915D01*
X124365875Y-123954669D01*
X124356807Y-123965375D01*
X124347674Y-123976033D01*
X124338478Y-123986643D01*
X124329216Y-123997206D01*
X124319891Y-124007721D01*
X124310501Y-124018189D01*
X124301046Y-124028609D01*
X124291526Y-124038981D01*
X124281942Y-124049306D01*
X124272293Y-124059584D01*
X124262578Y-124069815D01*
X124252799Y-124079998D01*
X124242954Y-124090134D01*
X124233044Y-124100223D01*
X124223068Y-124110265D01*
X124213026Y-124120260D01*
X124202919Y-124130207D01*
X124192746Y-124140108D01*
X124182507Y-124149961D01*
X124172201Y-124159767D01*
X124161830Y-124169526D01*
X124151392Y-124179238D01*
X124140887Y-124188903D01*
X124130316Y-124198520D01*
X124119678Y-124208091D01*
X124108973Y-124217614D01*
X124098202Y-124227090D01*
X124087363Y-124236519D01*
X124076456Y-124245901D01*
X124065483Y-124255235D01*
X124054441Y-124264522D01*
X124043332Y-124273762D01*
X124032156Y-124282955D01*
X124020911Y-124292100D01*
X124009598Y-124301197D01*
X123998217Y-124310247D01*
X123986768Y-124319249D01*
X123975251Y-124328204D01*
X123963664Y-124337111D01*
X123952010Y-124345970D01*
X123940286Y-124354781D01*
X123928493Y-124363544D01*
X123916632Y-124372259D01*
X123904701Y-124380925D01*
X123892701Y-124389544D01*
X123880632Y-124398114D01*
X123868493Y-124406635D01*
X123856284Y-124415108D01*
X123844006Y-124423533D01*
X123831658Y-124431908D01*
X123819240Y-124440235D01*
X123806752Y-124448512D01*
X123794194Y-124456740D01*
X123781566Y-124464919D01*
X123768867Y-124473048D01*
X123756098Y-124481128D01*
X123743259Y-124489158D01*
X123730349Y-124497138D01*
X123717369Y-124505067D01*
X123704317Y-124512947D01*
X123691196Y-124520776D01*
X123678003Y-124528554D01*
X123664739Y-124536282D01*
X123651405Y-124543958D01*
X123638000Y-124551584D01*
X123624524Y-124559158D01*
X123610977Y-124566680D01*
X123597358Y-124574151D01*
X123583669Y-124581570D01*
X123569909Y-124588936D01*
X123556078Y-124596250D01*
X123542176Y-124603512D01*
X123528203Y-124610720D01*
X123514159Y-124617876D01*
X123500044Y-124624978D01*
X123485858Y-124632027D01*
X123471602Y-124639021D01*
X123457275Y-124645962D01*
X123442877Y-124652848D01*
X123428408Y-124659680D01*
X123413870Y-124666457D01*
X123399261Y-124673179D01*
X123384581Y-124679845D01*
X123369832Y-124686456D01*
X123355013Y-124693011D01*
X123340124Y-124699509D01*
X123325166Y-124705951D01*
X123310138Y-124712336D01*
X123295042Y-124718664D01*
X123279876Y-124724934D01*
X123264643Y-124731146D01*
X123249340Y-124737300D01*
X123233970Y-124743396D01*
X123218533Y-124749433D01*
X123203028Y-124755411D01*
X123187456Y-124761329D01*
X123171817Y-124767187D01*
X123156113Y-124772985D01*
X123140343Y-124778723D01*
X123124508Y-124784399D01*
X123108608Y-124790014D01*
X123092644Y-124795568D01*
X123076617Y-124801059D01*
X123060527Y-124806488D01*
X123044374Y-124811854D01*
X123028160Y-124817156D01*
X123011885Y-124822395D01*
X122995550Y-124827569D01*
X122979156Y-124832679D01*
X122962704Y-124837724D01*
X122946193Y-124842703D01*
X122929627Y-124847616D01*
X122913004Y-124852463D01*
X122896328Y-124857244D01*
X122879598Y-124861956D01*
X122862815Y-124866601D01*
X122845982Y-124871178D01*
X122829099Y-124875686D01*
X122812168Y-124880124D01*
X122795190Y-124884493D01*
X122778167Y-124888792D01*
X122761100Y-124893019D01*
X122743992Y-124897176D01*
X122726843Y-124901260D01*
X122709657Y-124905272D01*
X122692435Y-124909211D01*
X122675178Y-124913076D01*
X122657891Y-124916867D01*
X122640574Y-124920584D01*
X122623231Y-124924225D01*
X122605864Y-124927790D01*
X122588476Y-124931279D01*
X122571070Y-124934691D01*
X122553650Y-124938025D01*
X122536220Y-124941280D01*
X122518782Y-124944457D01*
X122501340Y-124947553D01*
X122483900Y-124950570D01*
X122466466Y-124953505D01*
X122449042Y-124956359D01*
X122431633Y-124959130D01*
X122414246Y-124961818D01*
X122396887Y-124964422D01*
X122379561Y-124966941D01*
X122362275Y-124969375D01*
X122345039Y-124971723D01*
X122327859Y-124973984D01*
X122310744Y-124976157D01*
X122293705Y-124978241D01*
X122276752Y-124980236D01*
X122259897Y-124982141D01*
X122243153Y-124983955D01*
X122226534Y-124985677D01*
X122210056Y-124987306D01*
X122193737Y-124988842D01*
X122177597Y-124990282D01*
X122161659Y-124991627D01*
X122145949Y-124992876D01*
X122130497Y-124994027D01*
X122115339Y-124995079D01*
X122100516Y-124996032D01*
X122086078Y-124996884D01*
X122072087Y-124997634D01*
X122058620Y-124998282D01*
X122045777Y-124998827D01*
X122033696Y-124999267D01*
X122022574Y-124999603D01*
X122012723Y-124999834D01*
X122004729Y-124999963D01*
X122000000Y-125000000D01*
D11*
X103000000Y-100000000D02*
X122000000Y-100000000D01*
X125000000Y-103000000D02*
X125000000Y-122000000D01*
D10*
X103000000Y-125000000D02*
X102990523Y-124999990D01*
X102981066Y-124999960D01*
X102971629Y-124999910D01*
X102962212Y-124999840D01*
X102952815Y-124999751D01*
X102943438Y-124999642D01*
X102934080Y-124999512D01*
X102924742Y-124999364D01*
X102915424Y-124999195D01*
X102906126Y-124999007D01*
X102896847Y-124998799D01*
X102887587Y-124998572D01*
X102878347Y-124998325D01*
X102869127Y-124998059D01*
X102859926Y-124997773D01*
X102850745Y-124997468D01*
X102841582Y-124997144D01*
X102832440Y-124996800D01*
X102823316Y-124996437D01*
X102814211Y-124996055D01*
X102805126Y-124995654D01*
X102796060Y-124995233D01*
X102787013Y-124994794D01*
X102777985Y-124994335D01*
X102768976Y-124993857D01*
X102759987Y-124993360D01*
X102751015Y-124992845D01*
X102742064Y-124992310D01*
X102733130Y-124991757D01*
X102724216Y-124991184D01*
X102715320Y-124990593D01*
X102706444Y-124989983D01*
X102697585Y-124989354D01*
X102688746Y-124988707D01*
X102679925Y-124988041D01*
X102671123Y-124987356D01*
X102662339Y-124986653D01*
X102653574Y-124985931D01*
X102644827Y-124985191D01*
X102636099Y-124984432D01*
X102627388Y-124983654D01*
X102618697Y-124982859D01*
X102610023Y-124982045D01*
X102601368Y-124981212D01*
X102592731Y-124980361D01*
X102584113Y-124979492D01*
X102575511Y-124978605D01*
X102566929Y-124977699D01*
X102558364Y-124976776D01*
X102549818Y-124975834D01*
X102541289Y-124974874D01*
X102532779Y-124973896D01*
X102524286Y-124972900D01*
X102515812Y-124971885D01*
X102507354Y-124970853D01*
X102498916Y-124969803D01*
X102490494Y-124968735D01*
X102482090Y-124967649D01*
X102473704Y-124966545D01*
X102465336Y-124965424D01*
X102456984Y-124964284D01*
X102448652Y-124963127D01*
X102440335Y-124961952D01*
X102432037Y-124960760D01*
X102423756Y-124959550D01*
X102415493Y-124958322D01*
X102407246Y-124957076D01*
X102399018Y-124955813D01*
X102390805Y-124954532D01*
X102382612Y-124953234D01*
X102374434Y-124951918D01*
X102366275Y-124950585D01*
X102358131Y-124949235D01*
X102350006Y-124947867D01*
X102341896Y-124946481D01*
X102333806Y-124945078D01*
X102325730Y-124943658D01*
X102317673Y-124942221D01*
X102309631Y-124940766D01*
X102301608Y-124939294D01*
X102293600Y-124937805D01*
X102285610Y-124936299D01*
X102277636Y-124934775D01*
X102269679Y-124933235D01*
X102261738Y-124931677D01*
X102253815Y-124930102D01*
X102245907Y-124928510D01*
X102238018Y-124926901D01*
X102230143Y-124925275D01*
X102222286Y-124923632D01*
X102214444Y-124921972D01*
X102206621Y-124920295D01*
X102198811Y-124918601D01*
X102191020Y-124916891D01*
X102183244Y-124915163D01*
X102175485Y-124913419D01*
X102167741Y-124911657D01*
X102160015Y-124909879D01*
X102152304Y-124908084D01*
X102144610Y-124906273D01*
X102136930Y-124904444D01*
X102129269Y-124902600D01*
X102121621Y-124900738D01*
X102113992Y-124898860D01*
X102106377Y-124896964D01*
X102098779Y-124895053D01*
X102091195Y-124893125D01*
X102083630Y-124891180D01*
X102076077Y-124889218D01*
X102068543Y-124887241D01*
X102061022Y-124885246D01*
X102053520Y-124883236D01*
X102046030Y-124881208D01*
X102038559Y-124879164D01*
X102031101Y-124877104D01*
X102023661Y-124875027D01*
X102016234Y-124872934D01*
X102008825Y-124870825D01*
X102001429Y-124868699D01*
X101994051Y-124866557D01*
X101986685Y-124864398D01*
X101979338Y-124862223D01*
X101972003Y-124860032D01*
X101964687Y-124857825D01*
X101957383Y-124855601D01*
X101950097Y-124853362D01*
X101942823Y-124851105D01*
X101935567Y-124848833D01*
X101928324Y-124846544D01*
X101921098Y-124844240D01*
X101906690Y-124839582D01*
X101892341Y-124834860D01*
X101878052Y-124830073D01*
X101863823Y-124825222D01*
X101849653Y-124820307D01*
X101835542Y-124815328D01*
X101821490Y-124810285D01*
X101807496Y-124805179D01*
X101793560Y-124800008D01*
X101779683Y-124794774D01*
X101765863Y-124789476D01*
X101752101Y-124784115D01*
X101738396Y-124778690D01*
X101724748Y-124773203D01*
X101711157Y-124767652D01*
X101697622Y-124762038D01*
X101684144Y-124756360D01*
X101670722Y-124750620D01*
X101657356Y-124744817D01*
X101644046Y-124738951D01*
X101630791Y-124733023D01*
X101617591Y-124727031D01*
X101604447Y-124720977D01*
X101591357Y-124714860D01*
X101578322Y-124708681D01*
X101565341Y-124702439D01*
X101552414Y-124696134D01*
X101539541Y-124689767D01*
X101526723Y-124683338D01*
X101513957Y-124676846D01*
X101501245Y-124670292D01*
X101488587Y-124663675D01*
X101475981Y-124656996D01*
X101463428Y-124650255D01*
X101450928Y-124643451D01*
X101438480Y-124636585D01*
X101426084Y-124629656D01*
X101413741Y-124622665D01*
X101401449Y-124615612D01*
X101389210Y-124608497D01*
X101377021Y-124601319D01*
X101364884Y-124594078D01*
X101352799Y-124586776D01*
X101340764Y-124579411D01*
X101328780Y-124571983D01*
X101316848Y-124564493D01*
X101304965Y-124556941D01*
X101293133Y-124549326D01*
X101281352Y-124541648D01*
X101269620Y-124533908D01*
X101257939Y-124526105D01*
X101246308Y-124518240D01*
X101234726Y-124510312D01*
X101223194Y-124502321D01*
X101211711Y-124494267D01*
X101200278Y-124486150D01*
X101188894Y-124477970D01*
X101177559Y-124469728D01*
X101166273Y-124461422D01*
X101155036Y-124453053D01*
X101143847Y-124444621D01*
X101132708Y-124436126D01*
X101121617Y-124427567D01*
X101110574Y-124418945D01*
X101099580Y-124410259D01*
X101088634Y-124401510D01*
X101077736Y-124392697D01*
X101066886Y-124383820D01*
X101056085Y-124374880D01*
X101045331Y-124365875D01*
X101034625Y-124356807D01*
X101023967Y-124347674D01*
X101013357Y-124338478D01*
X101002794Y-124329216D01*
X100992279Y-124319891D01*
X100981811Y-124310501D01*
X100971391Y-124301046D01*
X100961019Y-124291526D01*
X100950694Y-124281942D01*
X100940416Y-124272293D01*
X100930185Y-124262578D01*
X100920002Y-124252799D01*
X100909866Y-124242954D01*
X100899777Y-124233044D01*
X100889735Y-124223068D01*
X100879740Y-124213026D01*
X100869793Y-124202919D01*
X100859892Y-124192746D01*
X100850039Y-124182507D01*
X100840233Y-124172201D01*
X100830474Y-124161830D01*
X100820762Y-124151392D01*
X100811097Y-124140887D01*
X100801480Y-124130316D01*
X100791909Y-124119678D01*
X100782386Y-124108973D01*
X100772910Y-124098202D01*
X100763481Y-124087363D01*
X100754099Y-124076456D01*
X100744765Y-124065483D01*
X100735478Y-124054441D01*
X100726238Y-124043332D01*
X100717045Y-124032156D01*
X100707900Y-124020911D01*
X100698803Y-124009598D01*
X100689753Y-123998217D01*
X100680751Y-123986768D01*
X100671796Y-123975251D01*
X100662889Y-123963664D01*
X100654030Y-123952010D01*
X100645219Y-123940286D01*
X100636456Y-123928493D01*
X100627741Y-123916632D01*
X100619075Y-123904701D01*
X100610456Y-123892701D01*
X100601886Y-123880632D01*
X100593365Y-123868493D01*
X100584892Y-123856284D01*
X100576467Y-123844006D01*
X100568092Y-123831658D01*
X100559765Y-123819240D01*
X100551488Y-123806752D01*
X100543260Y-123794194D01*
X100535081Y-123781566D01*
X100526952Y-123768867D01*
X100518872Y-123756098D01*
X100510842Y-123743259D01*
X100502862Y-123730349D01*
X100494933Y-123717369D01*
X100487053Y-123704317D01*
X100479224Y-123691196D01*
X100471446Y-123678003D01*
X100463718Y-123664739D01*
X100456042Y-123651405D01*
X100448416Y-123638000D01*
X100440842Y-123624524D01*
X100433320Y-123610977D01*
X100425849Y-123597358D01*
X100418430Y-123583669D01*
X100411064Y-123569909D01*
X100403750Y-123556078D01*
X100396488Y-123542176D01*
X100389280Y-123528203D01*
X100382124Y-123514159D01*
X100375022Y-123500044D01*
X100367973Y-123485858D01*
X100360979Y-123471602D01*
X100354038Y-123457275D01*
X100347152Y-123442877D01*
X100340320Y-123428408D01*
X100333543Y-123413870D01*
X100326821Y-123399261D01*
X100320155Y-123384581D01*
X100313544Y-123369832D01*
X100306989Y-123355013D01*
X100300491Y-123340124D01*
X100294049Y-123325166D01*
X100287664Y-123310138D01*
X100281336Y-123295042D01*
X100275066Y-123279876D01*
X100268854Y-123264643D01*
X100262700Y-123249340D01*
X100256604Y-123233970D01*
X100250567Y-123218533D01*
X100244589Y-123203028D01*
X100238671Y-123187456D01*
X100232813Y-123171817D01*
X100227015Y-123156113D01*
X100221277Y-123140343D01*
X100215601Y-123124508D01*
X100209986Y-123108608D01*
X100204432Y-123092644D01*
X100198941Y-123076617D01*
X100193512Y-123060527D01*
X100188146Y-123044374D01*
X100182844Y-123028160D01*
X100177605Y-123011885D01*
X100172431Y-122995550D01*
X100167321Y-122979156D01*
X100162276Y-122962704D01*
X100157297Y-122946193D01*
X100152384Y-122929627D01*
X100147537Y-122913004D01*
X100142756Y-122896328D01*
X100138044Y-122879598D01*
X100133399Y-122862815D01*
X100128822Y-122845982D01*
X100124314Y-122829099D01*
X100119876Y-122812168D01*
X100115507Y-122795190D01*
X100111208Y-122778167D01*
X100106981Y-122761100D01*
X100102824Y-122743992D01*
X100098740Y-122726843D01*
X100094728Y-122709657D01*
X100090789Y-122692435D01*
X100086924Y-122675178D01*
X100083133Y-122657891D01*
X100079416Y-122640574D01*
X100075775Y-122623231D01*
X100072210Y-122605864D01*
X100068721Y-122588476D01*
X100065309Y-122571070D01*
X100061975Y-122553650D01*
X100058720Y-122536220D01*
X100055543Y-122518782D01*
X100052447Y-122501340D01*
X100049430Y-122483900D01*
X100046495Y-122466466D01*
X100043641Y-122449042D01*
X100040870Y-122431633D01*
X100038182Y-122414246D01*
X100035578Y-122396887D01*
X100033059Y-122379561D01*
X100030625Y-122362275D01*
X100028277Y-122345039D01*
X100026016Y-122327859D01*
X100023843Y-122310744D01*
X100021759Y-122293705D01*
X100019764Y-122276752D01*
X100017859Y-122259897D01*
X100016045Y-122243153D01*
X100014323Y-122226534D01*
X100012694Y-122210056D01*
X100011158Y-122193737D01*
X100009718Y-122177597D01*
X100008373Y-122161659D01*
X100007124Y-122145949D01*
X100005973Y-122130497D01*
X100004921Y-122115339D01*
X100003968Y-122100516D01*
X100003116Y-122086078D01*
X100002366Y-122072087D01*
X100001718Y-122058620D01*
X100001173Y-122045777D01*
X100000733Y-122033696D01*
X100000397Y-122022574D01*
X100000166Y-122012723D01*
X100000037Y-122004729D01*
X100000000Y-122000000D01*
D11*
X100000000Y-103000000D02*
X100000000Y-122000000D01*
D10*
X100000000Y-103000000D02*
X100000010Y-102990523D01*
X100000040Y-102981066D01*
X100000090Y-102971629D01*
X100000160Y-102962212D01*
X100000249Y-102952815D01*
X100000358Y-102943438D01*
X100000488Y-102934080D01*
X100000636Y-102924742D01*
X100000805Y-102915424D01*
X100000993Y-102906126D01*
X100001201Y-102896847D01*
X100001428Y-102887587D01*
X100001675Y-102878347D01*
X100001941Y-102869127D01*
X100002227Y-102859926D01*
X100002532Y-102850745D01*
X100002856Y-102841582D01*
X100003200Y-102832440D01*
X100003563Y-102823316D01*
X100003945Y-102814211D01*
X100004346Y-102805126D01*
X100004767Y-102796060D01*
X100005206Y-102787013D01*
X100005665Y-102777985D01*
X100006143Y-102768976D01*
X100006640Y-102759987D01*
X100007155Y-102751015D01*
X100007690Y-102742064D01*
X100008243Y-102733130D01*
X100008816Y-102724216D01*
X100009407Y-102715320D01*
X100010017Y-102706444D01*
X100010646Y-102697585D01*
X100011293Y-102688746D01*
X100011959Y-102679925D01*
X100012644Y-102671123D01*
X100013347Y-102662339D01*
X100014069Y-102653574D01*
X100014809Y-102644827D01*
X100015568Y-102636099D01*
X100016346Y-102627388D01*
X100017141Y-102618697D01*
X100017955Y-102610023D01*
X100018788Y-102601368D01*
X100019639Y-102592731D01*
X100020508Y-102584113D01*
X100021395Y-102575511D01*
X100022301Y-102566929D01*
X100023224Y-102558364D01*
X100024166Y-102549818D01*
X100025126Y-102541289D01*
X100026104Y-102532779D01*
X100027100Y-102524286D01*
X100028115Y-102515812D01*
X100029147Y-102507354D01*
X100030197Y-102498916D01*
X100031265Y-102490494D01*
X100032351Y-102482090D01*
X100033455Y-102473704D01*
X100034576Y-102465336D01*
X100035716Y-102456984D01*
X100036873Y-102448652D01*
X100038048Y-102440335D01*
X100039240Y-102432037D01*
X100040450Y-102423756D01*
X100041678Y-102415493D01*
X100042924Y-102407246D01*
X100044187Y-102399018D01*
X100045468Y-102390805D01*
X100046766Y-102382612D01*
X100048082Y-102374434D01*
X100049415Y-102366275D01*
X100050765Y-102358131D01*
X100052133Y-102350006D01*
X100053519Y-102341896D01*
X100054922Y-102333806D01*
X100056342Y-102325730D01*
X100057779Y-102317673D01*
X100059234Y-102309631D01*
X100060706Y-102301608D01*
X100062195Y-102293600D01*
X100063701Y-102285610D01*
X100065225Y-102277636D01*
X100066765Y-102269679D01*
X100068323Y-102261738D01*
X100069898Y-102253815D01*
X100071490Y-102245907D01*
X100073099Y-102238018D01*
X100074725Y-102230143D01*
X100076368Y-102222286D01*
X100078028Y-102214444D01*
X100079705Y-102206621D01*
X100081399Y-102198811D01*
X100083109Y-102191020D01*
X100084837Y-102183244D01*
X100086581Y-102175485D01*
X100088343Y-102167741D01*
X100090121Y-102160015D01*
X100091916Y-102152304D01*
X100093727Y-102144610D01*
X100095556Y-102136930D01*
X100097400Y-102129269D01*
X100099262Y-102121621D01*
X100101140Y-102113992D01*
X100103036Y-102106377D01*
X100104947Y-102098779D01*
X100106875Y-102091195D01*
X100108820Y-102083630D01*
X100110782Y-102076077D01*
X100112759Y-102068543D01*
X100114754Y-102061022D01*
X100116764Y-102053520D01*
X100118792Y-102046030D01*
X100120836Y-102038559D01*
X100122896Y-102031101D01*
X100124973Y-102023661D01*
X100127066Y-102016234D01*
X100129175Y-102008825D01*
X100131301Y-102001429D01*
X100133443Y-101994051D01*
X100135602Y-101986685D01*
X100137777Y-101979338D01*
X100139968Y-101972003D01*
X100142175Y-101964687D01*
X100144399Y-101957383D01*
X100146638Y-101950097D01*
X100148895Y-101942823D01*
X100151167Y-101935567D01*
X100153456Y-101928324D01*
X100155760Y-101921098D01*
X100160418Y-101906690D01*
X100165140Y-101892341D01*
X100169927Y-101878052D01*
X100174778Y-101863823D01*
X100179693Y-101849653D01*
X100184672Y-101835542D01*
X100189715Y-101821490D01*
X100194821Y-101807496D01*
X100199992Y-101793560D01*
X100205226Y-101779683D01*
X100210524Y-101765863D01*
X100215885Y-101752101D01*
X100221310Y-101738396D01*
X100226797Y-101724748D01*
X100232348Y-101711157D01*
X100237962Y-101697622D01*
X100243640Y-101684144D01*
X100249380Y-101670722D01*
X100255183Y-101657356D01*
X100261049Y-101644046D01*
X100266977Y-101630791D01*
X100272969Y-101617591D01*
X100279023Y-101604447D01*
X100285140Y-101591357D01*
X100291319Y-101578322D01*
X100297561Y-101565341D01*
X100303866Y-101552414D01*
X100310233Y-101539541D01*
X100316662Y-101526723D01*
X100323154Y-101513957D01*
X100329708Y-101501245D01*
X100336325Y-101488587D01*
X100343004Y-101475981D01*
X100349745Y-101463428D01*
X100356549Y-101450928D01*
X100363415Y-101438480D01*
X100370344Y-101426084D01*
X100377335Y-101413741D01*
X100384388Y-101401449D01*
X100391503Y-101389210D01*
X100398681Y-101377021D01*
X100405922Y-101364884D01*
X100413224Y-101352799D01*
X100420589Y-101340764D01*
X100428017Y-101328780D01*
X100435507Y-101316848D01*
X100443059Y-101304965D01*
X100450674Y-101293133D01*
X100458352Y-101281352D01*
X100466092Y-101269620D01*
X100473895Y-101257939D01*
X100481760Y-101246308D01*
X100489688Y-101234726D01*
X100497679Y-101223194D01*
X100505733Y-101211711D01*
X100513850Y-101200278D01*
X100522030Y-101188894D01*
X100530272Y-101177559D01*
X100538578Y-101166273D01*
X100546947Y-101155036D01*
X100555379Y-101143847D01*
X100563874Y-101132708D01*
X100572433Y-101121617D01*
X100581055Y-101110574D01*
X100589741Y-101099580D01*
X100598490Y-101088634D01*
X100607303Y-101077736D01*
X100616180Y-101066886D01*
X100625120Y-101056085D01*
X100634125Y-101045331D01*
X100643193Y-101034625D01*
X100652326Y-101023967D01*
X100661522Y-101013357D01*
X100670784Y-101002794D01*
X100680109Y-100992279D01*
X100689499Y-100981811D01*
X100698954Y-100971391D01*
X100708474Y-100961019D01*
X100718058Y-100950694D01*
X100727707Y-100940416D01*
X100737422Y-100930185D01*
X100747201Y-100920002D01*
X100757046Y-100909866D01*
X100766956Y-100899777D01*
X100776932Y-100889735D01*
X100786974Y-100879740D01*
X100797081Y-100869793D01*
X100807254Y-100859892D01*
X100817493Y-100850039D01*
X100827799Y-100840233D01*
X100838170Y-100830474D01*
X100848608Y-100820762D01*
X100859113Y-100811097D01*
X100869684Y-100801480D01*
X100880322Y-100791909D01*
X100891027Y-100782386D01*
X100901798Y-100772910D01*
X100912637Y-100763481D01*
X100923544Y-100754099D01*
X100934517Y-100744765D01*
X100945559Y-100735478D01*
X100956668Y-100726238D01*
X100967844Y-100717045D01*
X100979089Y-100707900D01*
X100990402Y-100698803D01*
X101001783Y-100689753D01*
X101013232Y-100680751D01*
X101024749Y-100671796D01*
X101036336Y-100662889D01*
X101047990Y-100654030D01*
X101059714Y-100645219D01*
X101071507Y-100636456D01*
X101083368Y-100627741D01*
X101095299Y-100619075D01*
X101107299Y-100610456D01*
X101119368Y-100601886D01*
X101131507Y-100593365D01*
X101143716Y-100584892D01*
X101155994Y-100576467D01*
X101168342Y-100568092D01*
X101180760Y-100559765D01*
X101193248Y-100551488D01*
X101205806Y-100543260D01*
X101218434Y-100535081D01*
X101231133Y-100526952D01*
X101243902Y-100518872D01*
X101256741Y-100510842D01*
X101269651Y-100502862D01*
X101282631Y-100494933D01*
X101295683Y-100487053D01*
X101308804Y-100479224D01*
X101321997Y-100471446D01*
X101335261Y-100463718D01*
X101348595Y-100456042D01*
X101362000Y-100448416D01*
X101375476Y-100440842D01*
X101389023Y-100433320D01*
X101402642Y-100425849D01*
X101416331Y-100418430D01*
X101430091Y-100411064D01*
X101443922Y-100403750D01*
X101457824Y-100396488D01*
X101471797Y-100389280D01*
X101485841Y-100382124D01*
X101499956Y-100375022D01*
X101514142Y-100367973D01*
X101528398Y-100360979D01*
X101542725Y-100354038D01*
X101557123Y-100347152D01*
X101571592Y-100340320D01*
X101586130Y-100333543D01*
X101600739Y-100326821D01*
X101615419Y-100320155D01*
X101630168Y-100313544D01*
X101644987Y-100306989D01*
X101659876Y-100300491D01*
X101674834Y-100294049D01*
X101689862Y-100287664D01*
X101704958Y-100281336D01*
X101720124Y-100275066D01*
X101735357Y-100268854D01*
X101750660Y-100262700D01*
X101766030Y-100256604D01*
X101781467Y-100250567D01*
X101796972Y-100244589D01*
X101812544Y-100238671D01*
X101828183Y-100232813D01*
X101843887Y-100227015D01*
X101859657Y-100221277D01*
X101875492Y-100215601D01*
X101891392Y-100209986D01*
X101907356Y-100204432D01*
X101923383Y-100198941D01*
X101939473Y-100193512D01*
X101955626Y-100188146D01*
X101971840Y-100182844D01*
X101988115Y-100177605D01*
X102004450Y-100172431D01*
X102020844Y-100167321D01*
X102037296Y-100162276D01*
X102053807Y-100157297D01*
X102070373Y-100152384D01*
X102086996Y-100147537D01*
X102103672Y-100142756D01*
X102120402Y-100138044D01*
X102137185Y-100133399D01*
X102154018Y-100128822D01*
X102170901Y-100124314D01*
X102187832Y-100119876D01*
X102204810Y-100115507D01*
X102221833Y-100111208D01*
X102238900Y-100106981D01*
X102256008Y-100102824D01*
X102273157Y-100098740D01*
X102290343Y-100094728D01*
X102307565Y-100090789D01*
X102324822Y-100086924D01*
X102342109Y-100083133D01*
X102359426Y-100079416D01*
X102376769Y-100075775D01*
X102394136Y-100072210D01*
X102411524Y-100068721D01*
X102428930Y-100065309D01*
X102446350Y-100061975D01*
X102463780Y-100058720D01*
X102481218Y-100055543D01*
X102498660Y-100052447D01*
X102516100Y-100049430D01*
X102533534Y-100046495D01*
X102550958Y-100043641D01*
X102568367Y-100040870D01*
X102585754Y-100038182D01*
X102603113Y-100035578D01*
X102620439Y-100033059D01*
X102637725Y-100030625D01*
X102654961Y-100028277D01*
X102672141Y-100026016D01*
X102689256Y-100023843D01*
X102706295Y-100021759D01*
X102723248Y-100019764D01*
X102740103Y-100017859D01*
X102756847Y-100016045D01*
X102773466Y-100014323D01*
X102789944Y-100012694D01*
X102806263Y-100011158D01*
X102822403Y-100009718D01*
X102838341Y-100008373D01*
X102854051Y-100007124D01*
X102869503Y-100005973D01*
X102884661Y-100004921D01*
X102899484Y-100003968D01*
X102913922Y-100003116D01*
X102927913Y-100002366D01*
X102941380Y-100001718D01*
X102954223Y-100001173D01*
X102966304Y-100000733D01*
X102977426Y-100000397D01*
X102987277Y-100000166D01*
X102995271Y-100000037D01*
X103000000Y-100000000D01*
X122000000Y-100000000D02*
X122009477Y-100000010D01*
X122018934Y-100000040D01*
X122028371Y-100000090D01*
X122037788Y-100000160D01*
X122047185Y-100000249D01*
X122056562Y-100000358D01*
X122065920Y-100000488D01*
X122075258Y-100000636D01*
X122084576Y-100000805D01*
X122093874Y-100000993D01*
X122103153Y-100001201D01*
X122112413Y-100001428D01*
X122121653Y-100001675D01*
X122130873Y-100001941D01*
X122140074Y-100002227D01*
X122149255Y-100002532D01*
X122158418Y-100002856D01*
X122167560Y-100003200D01*
X122176684Y-100003563D01*
X122185789Y-100003945D01*
X122194874Y-100004346D01*
X122203940Y-100004767D01*
X122212987Y-100005206D01*
X122222015Y-100005665D01*
X122231024Y-100006143D01*
X122240013Y-100006640D01*
X122248985Y-100007155D01*
X122257936Y-100007690D01*
X122266870Y-100008243D01*
X122275784Y-100008816D01*
X122284680Y-100009407D01*
X122293556Y-100010017D01*
X122302415Y-100010646D01*
X122311254Y-100011293D01*
X122320075Y-100011959D01*
X122328877Y-100012644D01*
X122337661Y-100013347D01*
X122346426Y-100014069D01*
X122355173Y-100014809D01*
X122363901Y-100015568D01*
X122372612Y-100016346D01*
X122381303Y-100017141D01*
X122389977Y-100017955D01*
X122398632Y-100018788D01*
X122407269Y-100019639D01*
X122415887Y-100020508D01*
X122424489Y-100021395D01*
X122433071Y-100022301D01*
X122441636Y-100023224D01*
X122450182Y-100024166D01*
X122458711Y-100025126D01*
X122467221Y-100026104D01*
X122475714Y-100027100D01*
X122484188Y-100028115D01*
X122492646Y-100029147D01*
X122501084Y-100030197D01*
X122509506Y-100031265D01*
X122517910Y-100032351D01*
X122526296Y-100033455D01*
X122534664Y-100034576D01*
X122543016Y-100035716D01*
X122551348Y-100036873D01*
X122559665Y-100038048D01*
X122567963Y-100039240D01*
X122576244Y-100040450D01*
X122584507Y-100041678D01*
X122592754Y-100042924D01*
X122600982Y-100044187D01*
X122609195Y-100045468D01*
X122617388Y-100046766D01*
X122625566Y-100048082D01*
X122633725Y-100049415D01*
X122641869Y-100050765D01*
X122649994Y-100052133D01*
X122658104Y-100053519D01*
X122666194Y-100054922D01*
X122674270Y-100056342D01*
X122682327Y-100057779D01*
X122690369Y-100059234D01*
X122698392Y-100060706D01*
X122706400Y-100062195D01*
X122714390Y-100063701D01*
X122722364Y-100065225D01*
X122730321Y-100066765D01*
X122738262Y-100068323D01*
X122746185Y-100069898D01*
X122754093Y-100071490D01*
X122761982Y-100073099D01*
X122769857Y-100074725D01*
X122777714Y-100076368D01*
X122785556Y-100078028D01*
X122793379Y-100079705D01*
X122801189Y-100081399D01*
X122808980Y-100083109D01*
X122816756Y-100084837D01*
X122824515Y-100086581D01*
X122832259Y-100088343D01*
X122839985Y-100090121D01*
X122847696Y-100091916D01*
X122855390Y-100093727D01*
X122863070Y-100095556D01*
X122870731Y-100097400D01*
X122878379Y-100099262D01*
X122886008Y-100101140D01*
X122893623Y-100103036D01*
X122901221Y-100104947D01*
X122908805Y-100106875D01*
X122916370Y-100108820D01*
X122923923Y-100110782D01*
X122931457Y-100112759D01*
X122938978Y-100114754D01*
X122946480Y-100116764D01*
X122953970Y-100118792D01*
X122961441Y-100120836D01*
X122968899Y-100122896D01*
X122976339Y-100124973D01*
X122983766Y-100127066D01*
X122991175Y-100129175D01*
X122998571Y-100131301D01*
X123005949Y-100133443D01*
X123013315Y-100135602D01*
X123020662Y-100137777D01*
X123027997Y-100139968D01*
X123035313Y-100142175D01*
X123042617Y-100144399D01*
X123049903Y-100146638D01*
X123057177Y-100148895D01*
X123064433Y-100151167D01*
X123071676Y-100153456D01*
X123078902Y-100155760D01*
X123093310Y-100160418D01*
X123107659Y-100165140D01*
X123121948Y-100169927D01*
X123136177Y-100174778D01*
X123150347Y-100179693D01*
X123164458Y-100184672D01*
X123178510Y-100189715D01*
X123192504Y-100194821D01*
X123206440Y-100199992D01*
X123220317Y-100205226D01*
X123234137Y-100210524D01*
X123247899Y-100215885D01*
X123261604Y-100221310D01*
X123275252Y-100226797D01*
X123288843Y-100232348D01*
X123302378Y-100237962D01*
X123315856Y-100243640D01*
X123329278Y-100249380D01*
X123342644Y-100255183D01*
X123355954Y-100261049D01*
X123369209Y-100266977D01*
X123382409Y-100272969D01*
X123395553Y-100279023D01*
X123408643Y-100285140D01*
X123421678Y-100291319D01*
X123434659Y-100297561D01*
X123447586Y-100303866D01*
X123460459Y-100310233D01*
X123473277Y-100316662D01*
X123486043Y-100323154D01*
X123498755Y-100329708D01*
X123511413Y-100336325D01*
X123524019Y-100343004D01*
X123536572Y-100349745D01*
X123549072Y-100356549D01*
X123561520Y-100363415D01*
X123573916Y-100370344D01*
X123586259Y-100377335D01*
X123598551Y-100384388D01*
X123610790Y-100391503D01*
X123622979Y-100398681D01*
X123635116Y-100405922D01*
X123647201Y-100413224D01*
X123659236Y-100420589D01*
X123671220Y-100428017D01*
X123683152Y-100435507D01*
X123695035Y-100443059D01*
X123706867Y-100450674D01*
X123718648Y-100458352D01*
X123730380Y-100466092D01*
X123742061Y-100473895D01*
X123753692Y-100481760D01*
X123765274Y-100489688D01*
X123776806Y-100497679D01*
X123788289Y-100505733D01*
X123799722Y-100513850D01*
X123811106Y-100522030D01*
X123822441Y-100530272D01*
X123833727Y-100538578D01*
X123844964Y-100546947D01*
X123856153Y-100555379D01*
X123867292Y-100563874D01*
X123878383Y-100572433D01*
X123889426Y-100581055D01*
X123900420Y-100589741D01*
X123911366Y-100598490D01*
X123922264Y-100607303D01*
X123933114Y-100616180D01*
X123943915Y-100625120D01*
X123954669Y-100634125D01*
X123965375Y-100643193D01*
X123976033Y-100652326D01*
X123986643Y-100661522D01*
X123997206Y-100670784D01*
X124007721Y-100680109D01*
X124018189Y-100689499D01*
X124028609Y-100698954D01*
X124038981Y-100708474D01*
X124049306Y-100718058D01*
X124059584Y-100727707D01*
X124069815Y-100737422D01*
X124079998Y-100747201D01*
X124090134Y-100757046D01*
X124100223Y-100766956D01*
X124110265Y-100776932D01*
X124120260Y-100786974D01*
X124130207Y-100797081D01*
X124140108Y-100807254D01*
X124149961Y-100817493D01*
X124159767Y-100827799D01*
X124169526Y-100838170D01*
X124179238Y-100848608D01*
X124188903Y-100859113D01*
X124198520Y-100869684D01*
X124208091Y-100880322D01*
X124217614Y-100891027D01*
X124227090Y-100901798D01*
X124236519Y-100912637D01*
X124245901Y-100923544D01*
X124255235Y-100934517D01*
X124264522Y-100945559D01*
X124273762Y-100956668D01*
X124282955Y-100967844D01*
X124292100Y-100979089D01*
X124301197Y-100990402D01*
X124310247Y-101001783D01*
X124319249Y-101013232D01*
X124328204Y-101024749D01*
X124337111Y-101036336D01*
X124345970Y-101047990D01*
X124354781Y-101059714D01*
X124363544Y-101071507D01*
X124372259Y-101083368D01*
X124380925Y-101095299D01*
X124389544Y-101107299D01*
X124398114Y-101119368D01*
X124406635Y-101131507D01*
X124415108Y-101143716D01*
X124423533Y-101155994D01*
X124431908Y-101168342D01*
X124440235Y-101180760D01*
X124448512Y-101193248D01*
X124456740Y-101205806D01*
X124464919Y-101218434D01*
X124473048Y-101231133D01*
X124481128Y-101243902D01*
X124489158Y-101256741D01*
X124497138Y-101269651D01*
X124505067Y-101282631D01*
X124512947Y-101295683D01*
X124520776Y-101308804D01*
X124528554Y-101321997D01*
X124536282Y-101335261D01*
X124543958Y-101348595D01*
X124551584Y-101362000D01*
X124559158Y-101375476D01*
X124566680Y-101389023D01*
X124574151Y-101402642D01*
X124581570Y-101416331D01*
X124588936Y-101430091D01*
X124596250Y-101443922D01*
X124603512Y-101457824D01*
X124610720Y-101471797D01*
X124617876Y-101485841D01*
X124624978Y-101499956D01*
X124632027Y-101514142D01*
X124639021Y-101528398D01*
X124645962Y-101542725D01*
X124652848Y-101557123D01*
X124659680Y-101571592D01*
X124666457Y-101586130D01*
X124673179Y-101600739D01*
X124679845Y-101615419D01*
X124686456Y-101630168D01*
X124693011Y-101644987D01*
X124699509Y-101659876D01*
X124705951Y-101674834D01*
X124712336Y-101689862D01*
X124718664Y-101704958D01*
X124724934Y-101720124D01*
X124731146Y-101735357D01*
X124737300Y-101750660D01*
X124743396Y-101766030D01*
X124749433Y-101781467D01*
X124755411Y-101796972D01*
X124761329Y-101812544D01*
X124767187Y-101828183D01*
X124772985Y-101843887D01*
X124778723Y-101859657D01*
X124784399Y-101875492D01*
X124790014Y-101891392D01*
X124795568Y-101907356D01*
X124801059Y-101923383D01*
X124806488Y-101939473D01*
X124811854Y-101955626D01*
X124817156Y-101971840D01*
X124822395Y-101988115D01*
X124827569Y-102004450D01*
X124832679Y-102020844D01*
X124837724Y-102037296D01*
X124842703Y-102053807D01*
X124847616Y-102070373D01*
X124852463Y-102086996D01*
X124857244Y-102103672D01*
X124861956Y-102120402D01*
X124866601Y-102137185D01*
X124871178Y-102154018D01*
X124875686Y-102170901D01*
X124880124Y-102187832D01*
X124884493Y-102204810D01*
X124888792Y-102221833D01*
X124893019Y-102238900D01*
X124897176Y-102256008D01*
X124901260Y-102273157D01*
X124905272Y-102290343D01*
X124909211Y-102307565D01*
X124913076Y-102324822D01*
X124916867Y-102342109D01*
X124920584Y-102359426D01*
X124924225Y-102376769D01*
X124927790Y-102394136D01*
X124931279Y-102411524D01*
X124934691Y-102428930D01*
X124938025Y-102446350D01*
X124941280Y-102463780D01*
X124944457Y-102481218D01*
X124947553Y-102498660D01*
X124950570Y-102516100D01*
X124953505Y-102533534D01*
X124956359Y-102550958D01*
X124959130Y-102568367D01*
X124961818Y-102585754D01*
X124964422Y-102603113D01*
X124966941Y-102620439D01*
X124969375Y-102637725D01*
X124971723Y-102654961D01*
X124973984Y-102672141D01*
X124976157Y-102689256D01*
X124978241Y-102706295D01*
X124980236Y-102723248D01*
X124982141Y-102740103D01*
X124983955Y-102756847D01*
X124985677Y-102773466D01*
X124987306Y-102789944D01*
X124988842Y-102806263D01*
X124990282Y-102822403D01*
X124991627Y-102838341D01*
X124992876Y-102854051D01*
X124994027Y-102869503D01*
X124995079Y-102884661D01*
X124996032Y-102899484D01*
X124996884Y-102913922D01*
X124997634Y-102927913D01*
X124998282Y-102941380D01*
X124998827Y-102954223D01*
X124999267Y-102966304D01*
X124999603Y-102977426D01*
X124999834Y-102987277D01*
X124999963Y-102995271D01*
X125000000Y-103000000D01*
D11*
X103000000Y-125000000D02*
X122000000Y-125000000D01*
M02*
