%TF.GenerationSoftware,KiCad,Pcbnew,9.0.6*%
%TF.CreationDate,2025-11-27T01:35:14-08:00*%
%TF.ProjectId,encoder-board,656e636f-6465-4722-9d62-6f6172642e6b,rev?*%
%TF.SameCoordinates,Original*%
%TF.FileFunction,Copper,L3,Inr*%
%TF.FilePolarity,Positive*%
%FSLAX46Y46*%
G04 Gerber Fmt 4.6, Leading zero omitted, Abs format (unit mm)*
G04 Created by KiCad (PCBNEW 9.0.6) date 2025-11-27 01:35:14*
%MOMM*%
%LPD*%
G01*
G04 APERTURE LIST*
%TA.AperFunction,ComponentPad*%
%ADD10R,1.700000X1.700000*%
%TD*%
%TA.AperFunction,ComponentPad*%
%ADD11C,1.700000*%
%TD*%
%TA.AperFunction,ViaPad*%
%ADD12C,0.800000*%
%TD*%
%TA.AperFunction,ViaPad*%
%ADD13C,0.450000*%
%TD*%
G04 APERTURE END LIST*
D10*
%TO.N,GND*%
%TO.C,J1*%
X108380000Y-123000000D03*
D11*
%TO.N,SENSE_B*%
X110920000Y-123000000D03*
%TO.N,SENSE_A*%
X113460000Y-123000000D03*
%TO.N,+5V*%
X116000000Y-123000000D03*
%TD*%
D12*
%TO.N,GND*%
X123500000Y-113000000D03*
X123500000Y-111000000D03*
X101500000Y-115000000D03*
X101500000Y-119000000D03*
X122000000Y-119000000D03*
X122000000Y-121000000D03*
X122000000Y-117000000D03*
X122000000Y-103000000D03*
X101500000Y-109000000D03*
X122000000Y-115000000D03*
X112500000Y-114500000D03*
X105000000Y-124000000D03*
X101500000Y-103000000D03*
D13*
X116750000Y-107750000D03*
D12*
X112500000Y-117500000D03*
X103000000Y-121000000D03*
X101500000Y-105000000D03*
X101500000Y-107000000D03*
X101500000Y-117000000D03*
X103000000Y-113000000D03*
X103000000Y-115000000D03*
X123500000Y-103000000D03*
X103000000Y-109000000D03*
X122000000Y-105000000D03*
X122000000Y-107000000D03*
X101500000Y-113000000D03*
X112500000Y-111500000D03*
X103000000Y-117000000D03*
D13*
X113000000Y-106750000D03*
X108250000Y-107750000D03*
D12*
X103000000Y-103000000D03*
X122000000Y-111000000D03*
D13*
X116740000Y-102330000D03*
D12*
X123500000Y-117000000D03*
X103000000Y-107000000D03*
D13*
X109750000Y-105250000D03*
D12*
X103000000Y-119000000D03*
X123500000Y-115000000D03*
X123500000Y-109000000D03*
X122000000Y-109000000D03*
D13*
X109750000Y-105950000D03*
X108260000Y-101710000D03*
D12*
X106500000Y-122000000D03*
X123500000Y-121000000D03*
D13*
X108250000Y-102340000D03*
D12*
X103000000Y-111000000D03*
D13*
X116740000Y-101600000D03*
D12*
X105000000Y-122000000D03*
X123500000Y-119000000D03*
D13*
X116750000Y-108250000D03*
D12*
X106500000Y-124000000D03*
D13*
X108250000Y-108250000D03*
D12*
X123500000Y-105000000D03*
X101500000Y-121000000D03*
X101500000Y-111000000D03*
D13*
X113750000Y-106750000D03*
D12*
X123500000Y-107000000D03*
X122000000Y-113000000D03*
X103000000Y-105000000D03*
D13*
%TO.N,Net-(U1-A)*%
X116914973Y-105664973D03*
%TO.N,Net-(U2-A)*%
X108000000Y-106500000D03*
%TO.N,SENSE_A*%
X115250000Y-104750000D03*
D12*
%TO.N,+5V*%
X118500000Y-121962500D03*
D13*
X113860000Y-103270000D03*
X119250000Y-104000000D03*
X105750000Y-104000000D03*
X110930000Y-103269898D03*
%TO.N,SENSE_B*%
X111750000Y-107250000D03*
%TD*%
%TA.AperFunction,Conductor*%
%TO.N,+5V*%
G36*
X122001464Y-100000534D02*
G01*
X122204102Y-100005347D01*
X122210177Y-100005642D01*
X122401379Y-100019637D01*
X122407694Y-100020264D01*
X122589554Y-100043032D01*
X122596085Y-100044026D01*
X122768413Y-100075029D01*
X122775115Y-100076428D01*
X122939573Y-100115532D01*
X122946372Y-100117355D01*
X123099981Y-100163291D01*
X123110304Y-100166882D01*
X123400922Y-100282570D01*
X123414596Y-100289006D01*
X123675909Y-100432094D01*
X123688954Y-100440331D01*
X123925346Y-100611066D01*
X123937238Y-100620835D01*
X124150597Y-100819538D01*
X124160987Y-100830466D01*
X124221469Y-100902381D01*
X124352365Y-101058020D01*
X124361033Y-101069645D01*
X124530385Y-101326869D01*
X124537295Y-101338749D01*
X124618655Y-101498380D01*
X124666252Y-101591768D01*
X124683554Y-101625714D01*
X124688805Y-101637494D01*
X124809852Y-101952098D01*
X124813628Y-101963543D01*
X124906426Y-102298756D01*
X124908941Y-102309769D01*
X124969690Y-102645641D01*
X124971250Y-102657518D01*
X124997265Y-102972925D01*
X124999080Y-102994923D01*
X124999500Y-103005116D01*
X124999500Y-121998520D01*
X124999465Y-122001465D01*
X124994651Y-122204087D01*
X124994355Y-122210194D01*
X124980363Y-122401344D01*
X124979734Y-122407695D01*
X124956968Y-122589547D01*
X124955969Y-122596100D01*
X124924970Y-122768403D01*
X124923566Y-122775131D01*
X124884472Y-122939552D01*
X124882636Y-122946396D01*
X124836708Y-123099976D01*
X124833114Y-123110309D01*
X124717433Y-123400908D01*
X124710988Y-123414602D01*
X124567899Y-123675915D01*
X124559660Y-123688963D01*
X124388937Y-123925339D01*
X124379157Y-123937245D01*
X124180461Y-124150597D01*
X124169531Y-124160988D01*
X123941978Y-124352365D01*
X123930353Y-124361033D01*
X123673129Y-124530385D01*
X123661249Y-124537295D01*
X123374291Y-124683550D01*
X123362511Y-124688801D01*
X123047900Y-124809852D01*
X123036455Y-124813628D01*
X122701244Y-124906425D01*
X122690231Y-124908940D01*
X122354355Y-124969691D01*
X122342478Y-124971251D01*
X122005075Y-124999080D01*
X121994882Y-124999500D01*
X107033774Y-124999500D01*
X106966735Y-124979815D01*
X106920980Y-124927011D01*
X106911036Y-124857853D01*
X106940061Y-124794297D01*
X106964883Y-124772398D01*
X107009965Y-124742274D01*
X107074035Y-124699464D01*
X107199464Y-124574035D01*
X107298013Y-124426547D01*
X107300495Y-124420554D01*
X107344331Y-124366151D01*
X107410624Y-124344082D01*
X107428310Y-124344713D01*
X107482127Y-124350500D01*
X109277872Y-124350499D01*
X109337483Y-124344091D01*
X109472331Y-124293796D01*
X109587546Y-124207546D01*
X109673796Y-124092331D01*
X109722810Y-123960916D01*
X109764681Y-123904984D01*
X109830145Y-123880566D01*
X109898418Y-123895417D01*
X109926673Y-123916569D01*
X110040213Y-124030109D01*
X110212179Y-124155048D01*
X110212181Y-124155049D01*
X110212184Y-124155051D01*
X110401588Y-124251557D01*
X110603757Y-124317246D01*
X110813713Y-124350500D01*
X110813714Y-124350500D01*
X111026286Y-124350500D01*
X111026287Y-124350500D01*
X111236243Y-124317246D01*
X111438412Y-124251557D01*
X111627816Y-124155051D01*
X111714138Y-124092335D01*
X111799786Y-124030109D01*
X111799788Y-124030106D01*
X111799792Y-124030104D01*
X111950104Y-123879792D01*
X111950106Y-123879788D01*
X111950109Y-123879786D01*
X112075048Y-123707820D01*
X112075047Y-123707820D01*
X112075051Y-123707816D01*
X112079514Y-123699054D01*
X112127488Y-123648259D01*
X112195308Y-123631463D01*
X112261444Y-123653999D01*
X112300486Y-123699056D01*
X112304951Y-123707820D01*
X112429890Y-123879786D01*
X112580213Y-124030109D01*
X112752179Y-124155048D01*
X112752181Y-124155049D01*
X112752184Y-124155051D01*
X112941588Y-124251557D01*
X113143757Y-124317246D01*
X113353713Y-124350500D01*
X113353714Y-124350500D01*
X113566286Y-124350500D01*
X113566287Y-124350500D01*
X113776243Y-124317246D01*
X113978412Y-124251557D01*
X114167816Y-124155051D01*
X114254138Y-124092335D01*
X114339786Y-124030109D01*
X114339788Y-124030106D01*
X114339792Y-124030104D01*
X114490104Y-123879792D01*
X114490106Y-123879788D01*
X114490109Y-123879786D01*
X114575890Y-123761717D01*
X114615051Y-123707816D01*
X114619793Y-123698508D01*
X114667763Y-123647711D01*
X114735583Y-123630911D01*
X114801719Y-123653445D01*
X114840763Y-123698500D01*
X114845373Y-123707547D01*
X114884728Y-123761716D01*
X115517037Y-123129408D01*
X115534075Y-123192993D01*
X115599901Y-123307007D01*
X115692993Y-123400099D01*
X115807007Y-123465925D01*
X115870590Y-123482962D01*
X115238282Y-124115269D01*
X115238282Y-124115270D01*
X115292449Y-124154624D01*
X115481782Y-124251095D01*
X115683870Y-124316757D01*
X115893754Y-124350000D01*
X116106246Y-124350000D01*
X116316127Y-124316757D01*
X116316130Y-124316757D01*
X116518217Y-124251095D01*
X116707554Y-124154622D01*
X116761716Y-124115270D01*
X116761717Y-124115270D01*
X116129408Y-123482962D01*
X116192993Y-123465925D01*
X116307007Y-123400099D01*
X116400099Y-123307007D01*
X116465925Y-123192993D01*
X116482962Y-123129409D01*
X117115270Y-123761717D01*
X117115270Y-123761716D01*
X117154622Y-123707554D01*
X117251095Y-123518217D01*
X117316757Y-123316130D01*
X117316757Y-123316127D01*
X117350000Y-123106246D01*
X117350000Y-122893753D01*
X117316757Y-122683872D01*
X117316757Y-122683869D01*
X117251095Y-122481782D01*
X117154624Y-122292449D01*
X117115270Y-122238282D01*
X117115269Y-122238282D01*
X116482962Y-122870590D01*
X116465925Y-122807007D01*
X116400099Y-122692993D01*
X116307007Y-122599901D01*
X116192993Y-122534075D01*
X116129409Y-122517037D01*
X116761716Y-121884728D01*
X116707550Y-121845375D01*
X116518217Y-121748904D01*
X116316129Y-121683242D01*
X116106246Y-121650000D01*
X115893754Y-121650000D01*
X115683872Y-121683242D01*
X115683869Y-121683242D01*
X115481782Y-121748904D01*
X115292439Y-121845380D01*
X115238282Y-121884727D01*
X115238282Y-121884728D01*
X115870591Y-122517037D01*
X115807007Y-122534075D01*
X115692993Y-122599901D01*
X115599901Y-122692993D01*
X115534075Y-122807007D01*
X115517037Y-122870591D01*
X114884728Y-122238282D01*
X114884727Y-122238282D01*
X114845380Y-122292440D01*
X114845376Y-122292446D01*
X114840760Y-122301505D01*
X114792781Y-122352297D01*
X114724959Y-122369087D01*
X114658826Y-122346543D01*
X114619794Y-122301493D01*
X114615051Y-122292184D01*
X114615049Y-122292181D01*
X114615048Y-122292179D01*
X114490109Y-122120213D01*
X114339786Y-121969890D01*
X114167820Y-121844951D01*
X113978414Y-121748444D01*
X113978413Y-121748443D01*
X113978412Y-121748443D01*
X113776243Y-121682754D01*
X113776241Y-121682753D01*
X113776240Y-121682753D01*
X113614957Y-121657208D01*
X113566287Y-121649500D01*
X113353713Y-121649500D01*
X113305042Y-121657208D01*
X113143760Y-121682753D01*
X112941585Y-121748444D01*
X112752179Y-121844951D01*
X112580213Y-121969890D01*
X112429890Y-122120213D01*
X112304949Y-122292182D01*
X112300484Y-122300946D01*
X112252509Y-122351742D01*
X112184688Y-122368536D01*
X112118553Y-122345998D01*
X112079516Y-122300946D01*
X112075050Y-122292182D01*
X111950109Y-122120213D01*
X111799786Y-121969890D01*
X111627820Y-121844951D01*
X111438414Y-121748444D01*
X111438413Y-121748443D01*
X111438412Y-121748443D01*
X111236243Y-121682754D01*
X111236241Y-121682753D01*
X111236240Y-121682753D01*
X111074957Y-121657208D01*
X111026287Y-121649500D01*
X110813713Y-121649500D01*
X110765042Y-121657208D01*
X110603760Y-121682753D01*
X110401585Y-121748444D01*
X110212179Y-121844951D01*
X110040215Y-121969889D01*
X109926673Y-122083431D01*
X109865350Y-122116915D01*
X109795658Y-122111931D01*
X109739725Y-122070059D01*
X109722810Y-122039082D01*
X109673797Y-121907671D01*
X109673793Y-121907664D01*
X109587547Y-121792455D01*
X109587544Y-121792452D01*
X109472335Y-121706206D01*
X109472328Y-121706202D01*
X109337482Y-121655908D01*
X109337483Y-121655908D01*
X109277883Y-121649501D01*
X109277881Y-121649500D01*
X109277873Y-121649500D01*
X109277864Y-121649500D01*
X107482129Y-121649500D01*
X107482123Y-121649501D01*
X107428310Y-121655286D01*
X107359551Y-121642879D01*
X107308414Y-121595268D01*
X107300497Y-121579450D01*
X107298013Y-121573453D01*
X107298012Y-121573451D01*
X107298009Y-121573446D01*
X107199464Y-121425965D01*
X107199461Y-121425961D01*
X107074038Y-121300538D01*
X107074034Y-121300535D01*
X106926553Y-121201990D01*
X106926540Y-121201983D01*
X106762667Y-121134106D01*
X106762658Y-121134103D01*
X106588694Y-121099500D01*
X106588691Y-121099500D01*
X106411309Y-121099500D01*
X106411306Y-121099500D01*
X106237341Y-121134103D01*
X106237332Y-121134106D01*
X106073459Y-121201983D01*
X106073446Y-121201990D01*
X105925965Y-121300535D01*
X105925961Y-121300538D01*
X105837681Y-121388819D01*
X105776358Y-121422304D01*
X105706666Y-121417320D01*
X105662319Y-121388819D01*
X105574038Y-121300538D01*
X105574034Y-121300535D01*
X105426553Y-121201990D01*
X105426540Y-121201983D01*
X105262667Y-121134106D01*
X105262658Y-121134103D01*
X105088694Y-121099500D01*
X105088691Y-121099500D01*
X104911309Y-121099500D01*
X104911306Y-121099500D01*
X104737341Y-121134103D01*
X104737332Y-121134106D01*
X104573459Y-121201983D01*
X104573446Y-121201990D01*
X104425965Y-121300535D01*
X104425961Y-121300538D01*
X104300538Y-121425961D01*
X104300535Y-121425965D01*
X104201990Y-121573446D01*
X104201983Y-121573459D01*
X104134106Y-121737332D01*
X104134103Y-121737341D01*
X104099500Y-121911304D01*
X104099500Y-122088695D01*
X104134103Y-122262658D01*
X104134106Y-122262667D01*
X104201983Y-122426540D01*
X104201990Y-122426553D01*
X104300535Y-122574034D01*
X104300538Y-122574038D01*
X104425961Y-122699461D01*
X104425965Y-122699464D01*
X104573446Y-122798009D01*
X104573459Y-122798016D01*
X104696363Y-122848923D01*
X104737334Y-122865894D01*
X104757594Y-122869924D01*
X104800118Y-122878383D01*
X104862028Y-122910768D01*
X104896603Y-122971484D01*
X104892863Y-123041253D01*
X104851996Y-123097925D01*
X104800118Y-123121617D01*
X104737340Y-123134104D01*
X104737332Y-123134106D01*
X104573459Y-123201983D01*
X104573446Y-123201990D01*
X104425965Y-123300535D01*
X104425961Y-123300538D01*
X104300538Y-123425961D01*
X104300535Y-123425965D01*
X104201990Y-123573446D01*
X104201983Y-123573459D01*
X104134106Y-123737332D01*
X104134103Y-123737341D01*
X104099500Y-123911304D01*
X104099500Y-124088695D01*
X104134103Y-124262658D01*
X104134106Y-124262667D01*
X104201983Y-124426540D01*
X104201990Y-124426553D01*
X104300535Y-124574034D01*
X104300538Y-124574038D01*
X104425961Y-124699461D01*
X104425965Y-124699464D01*
X104535117Y-124772398D01*
X104579922Y-124826010D01*
X104588629Y-124895335D01*
X104558474Y-124958363D01*
X104499031Y-124995082D01*
X104466226Y-124999500D01*
X103001480Y-124999500D01*
X102998535Y-124999465D01*
X102795911Y-124994651D01*
X102789804Y-124994355D01*
X102598654Y-124980363D01*
X102592303Y-124979734D01*
X102410451Y-124956968D01*
X102403898Y-124955969D01*
X102231595Y-124924970D01*
X102224867Y-124923566D01*
X102060446Y-124884472D01*
X102053602Y-124882636D01*
X101900022Y-124836708D01*
X101889689Y-124833114D01*
X101599090Y-124717433D01*
X101585396Y-124710988D01*
X101324083Y-124567899D01*
X101311035Y-124559660D01*
X101074659Y-124388937D01*
X101062758Y-124379161D01*
X100849392Y-124180451D01*
X100839010Y-124169531D01*
X100828459Y-124156986D01*
X100647631Y-123941975D01*
X100638965Y-123930353D01*
X100626423Y-123911304D01*
X100469612Y-123673128D01*
X100462703Y-123661249D01*
X100456082Y-123648259D01*
X100316447Y-123374288D01*
X100311197Y-123362511D01*
X100293351Y-123316130D01*
X100190144Y-123047895D01*
X100186370Y-123036455D01*
X100184173Y-123028517D01*
X100093569Y-122701229D01*
X100091061Y-122690247D01*
X100030304Y-122354339D01*
X100028749Y-122342493D01*
X100000920Y-122005074D01*
X100000500Y-121994882D01*
X100000500Y-103001478D01*
X100000535Y-102998534D01*
X100001143Y-102972925D01*
X100002606Y-102911304D01*
X100599500Y-102911304D01*
X100599500Y-103088695D01*
X100634103Y-103262658D01*
X100634106Y-103262667D01*
X100701983Y-103426540D01*
X100701990Y-103426553D01*
X100800535Y-103574034D01*
X100800538Y-103574038D01*
X100925961Y-103699461D01*
X100925965Y-103699464D01*
X101073446Y-103798009D01*
X101073459Y-103798016D01*
X101196363Y-103848923D01*
X101237334Y-103865894D01*
X101257594Y-103869924D01*
X101300118Y-103878383D01*
X101362028Y-103910768D01*
X101396603Y-103971484D01*
X101392863Y-104041253D01*
X101351996Y-104097925D01*
X101300118Y-104121617D01*
X101237340Y-104134104D01*
X101237332Y-104134106D01*
X101073459Y-104201983D01*
X101073446Y-104201990D01*
X100925965Y-104300535D01*
X100925961Y-104300538D01*
X100800538Y-104425961D01*
X100800535Y-104425965D01*
X100701990Y-104573446D01*
X100701983Y-104573459D01*
X100634106Y-104737332D01*
X100634103Y-104737341D01*
X100599500Y-104911304D01*
X100599500Y-105088695D01*
X100634103Y-105262658D01*
X100634106Y-105262667D01*
X100701983Y-105426540D01*
X100701990Y-105426553D01*
X100800535Y-105574034D01*
X100800538Y-105574038D01*
X100925961Y-105699461D01*
X100925965Y-105699464D01*
X101073446Y-105798009D01*
X101073459Y-105798016D01*
X101196363Y-105848923D01*
X101237334Y-105865894D01*
X101257594Y-105869924D01*
X101300118Y-105878383D01*
X101362028Y-105910768D01*
X101396603Y-105971484D01*
X101392863Y-106041253D01*
X101351996Y-106097925D01*
X101300118Y-106121617D01*
X101237340Y-106134104D01*
X101237332Y-106134106D01*
X101073459Y-106201983D01*
X101073446Y-106201990D01*
X100925965Y-106300535D01*
X100925961Y-106300538D01*
X100800538Y-106425961D01*
X100800535Y-106425965D01*
X100701990Y-106573446D01*
X100701983Y-106573459D01*
X100634106Y-106737332D01*
X100634103Y-106737341D01*
X100599500Y-106911304D01*
X100599500Y-107088695D01*
X100634103Y-107262658D01*
X100634106Y-107262667D01*
X100701983Y-107426540D01*
X100701990Y-107426553D01*
X100800535Y-107574034D01*
X100800538Y-107574038D01*
X100925961Y-107699461D01*
X100925965Y-107699464D01*
X101073446Y-107798009D01*
X101073459Y-107798016D01*
X101130052Y-107821457D01*
X101237334Y-107865894D01*
X101257594Y-107869924D01*
X101300118Y-107878383D01*
X101362028Y-107910768D01*
X101396603Y-107971484D01*
X101392863Y-108041253D01*
X101351996Y-108097925D01*
X101300118Y-108121617D01*
X101237340Y-108134104D01*
X101237332Y-108134106D01*
X101073459Y-108201983D01*
X101073446Y-108201990D01*
X100925965Y-108300535D01*
X100925961Y-108300538D01*
X100800538Y-108425961D01*
X100800535Y-108425965D01*
X100701990Y-108573446D01*
X100701983Y-108573459D01*
X100634106Y-108737332D01*
X100634103Y-108737341D01*
X100599500Y-108911304D01*
X100599500Y-109088695D01*
X100634103Y-109262658D01*
X100634106Y-109262667D01*
X100701983Y-109426540D01*
X100701990Y-109426553D01*
X100800535Y-109574034D01*
X100800538Y-109574038D01*
X100925961Y-109699461D01*
X100925965Y-109699464D01*
X101073446Y-109798009D01*
X101073459Y-109798016D01*
X101196363Y-109848923D01*
X101237334Y-109865894D01*
X101257594Y-109869924D01*
X101300118Y-109878383D01*
X101362028Y-109910768D01*
X101396603Y-109971484D01*
X101392863Y-110041253D01*
X101351996Y-110097925D01*
X101300118Y-110121617D01*
X101237340Y-110134104D01*
X101237332Y-110134106D01*
X101073459Y-110201983D01*
X101073446Y-110201990D01*
X100925965Y-110300535D01*
X100925961Y-110300538D01*
X100800538Y-110425961D01*
X100800535Y-110425965D01*
X100701990Y-110573446D01*
X100701983Y-110573459D01*
X100634106Y-110737332D01*
X100634103Y-110737341D01*
X100599500Y-110911304D01*
X100599500Y-111088695D01*
X100634103Y-111262658D01*
X100634106Y-111262667D01*
X100701983Y-111426540D01*
X100701990Y-111426553D01*
X100800535Y-111574034D01*
X100800538Y-111574038D01*
X100925961Y-111699461D01*
X100925965Y-111699464D01*
X101073446Y-111798009D01*
X101073459Y-111798016D01*
X101196363Y-111848923D01*
X101237334Y-111865894D01*
X101257594Y-111869924D01*
X101300118Y-111878383D01*
X101362028Y-111910768D01*
X101396603Y-111971484D01*
X101392863Y-112041253D01*
X101351996Y-112097925D01*
X101300118Y-112121617D01*
X101237340Y-112134104D01*
X101237332Y-112134106D01*
X101073459Y-112201983D01*
X101073446Y-112201990D01*
X100925965Y-112300535D01*
X100925961Y-112300538D01*
X100800538Y-112425961D01*
X100800535Y-112425965D01*
X100701990Y-112573446D01*
X100701983Y-112573459D01*
X100634106Y-112737332D01*
X100634103Y-112737341D01*
X100599500Y-112911304D01*
X100599500Y-113088695D01*
X100634103Y-113262658D01*
X100634106Y-113262667D01*
X100701983Y-113426540D01*
X100701990Y-113426553D01*
X100800535Y-113574034D01*
X100800538Y-113574038D01*
X100925961Y-113699461D01*
X100925965Y-113699464D01*
X101073446Y-113798009D01*
X101073459Y-113798016D01*
X101196363Y-113848923D01*
X101237334Y-113865894D01*
X101257594Y-113869924D01*
X101300118Y-113878383D01*
X101362028Y-113910768D01*
X101396603Y-113971484D01*
X101392863Y-114041253D01*
X101351996Y-114097925D01*
X101300118Y-114121617D01*
X101237340Y-114134104D01*
X101237332Y-114134106D01*
X101073459Y-114201983D01*
X101073446Y-114201990D01*
X100925965Y-114300535D01*
X100925961Y-114300538D01*
X100800538Y-114425961D01*
X100800535Y-114425965D01*
X100701990Y-114573446D01*
X100701983Y-114573459D01*
X100634106Y-114737332D01*
X100634103Y-114737341D01*
X100599500Y-114911304D01*
X100599500Y-115088695D01*
X100634103Y-115262658D01*
X100634106Y-115262667D01*
X100701983Y-115426540D01*
X100701990Y-115426553D01*
X100800535Y-115574034D01*
X100800538Y-115574038D01*
X100925961Y-115699461D01*
X100925965Y-115699464D01*
X101073446Y-115798009D01*
X101073459Y-115798016D01*
X101196363Y-115848923D01*
X101237334Y-115865894D01*
X101257594Y-115869924D01*
X101300118Y-115878383D01*
X101362028Y-115910768D01*
X101396603Y-115971484D01*
X101392863Y-116041253D01*
X101351996Y-116097925D01*
X101300118Y-116121617D01*
X101237340Y-116134104D01*
X101237332Y-116134106D01*
X101073459Y-116201983D01*
X101073446Y-116201990D01*
X100925965Y-116300535D01*
X100925961Y-116300538D01*
X100800538Y-116425961D01*
X100800535Y-116425965D01*
X100701990Y-116573446D01*
X100701983Y-116573459D01*
X100634106Y-116737332D01*
X100634103Y-116737341D01*
X100599500Y-116911304D01*
X100599500Y-117088695D01*
X100634103Y-117262658D01*
X100634106Y-117262667D01*
X100701983Y-117426540D01*
X100701990Y-117426553D01*
X100800535Y-117574034D01*
X100800538Y-117574038D01*
X100925961Y-117699461D01*
X100925965Y-117699464D01*
X101073446Y-117798009D01*
X101073459Y-117798016D01*
X101196363Y-117848923D01*
X101237334Y-117865894D01*
X101257594Y-117869924D01*
X101300118Y-117878383D01*
X101362028Y-117910768D01*
X101396603Y-117971484D01*
X101392863Y-118041253D01*
X101351996Y-118097925D01*
X101300118Y-118121617D01*
X101237340Y-118134104D01*
X101237332Y-118134106D01*
X101073459Y-118201983D01*
X101073446Y-118201990D01*
X100925965Y-118300535D01*
X100925961Y-118300538D01*
X100800538Y-118425961D01*
X100800535Y-118425965D01*
X100701990Y-118573446D01*
X100701983Y-118573459D01*
X100634106Y-118737332D01*
X100634103Y-118737341D01*
X100599500Y-118911304D01*
X100599500Y-119088695D01*
X100634103Y-119262658D01*
X100634106Y-119262667D01*
X100701983Y-119426540D01*
X100701990Y-119426553D01*
X100800535Y-119574034D01*
X100800538Y-119574038D01*
X100925961Y-119699461D01*
X100925965Y-119699464D01*
X101073446Y-119798009D01*
X101073459Y-119798016D01*
X101196363Y-119848923D01*
X101237334Y-119865894D01*
X101257594Y-119869924D01*
X101300118Y-119878383D01*
X101362028Y-119910768D01*
X101396603Y-119971484D01*
X101392863Y-120041253D01*
X101351996Y-120097925D01*
X101300118Y-120121617D01*
X101237340Y-120134104D01*
X101237332Y-120134106D01*
X101073459Y-120201983D01*
X101073446Y-120201990D01*
X100925965Y-120300535D01*
X100925961Y-120300538D01*
X100800538Y-120425961D01*
X100800535Y-120425965D01*
X100701990Y-120573446D01*
X100701983Y-120573459D01*
X100634106Y-120737332D01*
X100634103Y-120737341D01*
X100599500Y-120911304D01*
X100599500Y-121088695D01*
X100634103Y-121262658D01*
X100634106Y-121262667D01*
X100701983Y-121426540D01*
X100701990Y-121426553D01*
X100800535Y-121574034D01*
X100800538Y-121574038D01*
X100925961Y-121699461D01*
X100925965Y-121699464D01*
X101073446Y-121798009D01*
X101073459Y-121798016D01*
X101187796Y-121845375D01*
X101237334Y-121865894D01*
X101237336Y-121865894D01*
X101237341Y-121865896D01*
X101411304Y-121900499D01*
X101411307Y-121900500D01*
X101411309Y-121900500D01*
X101588693Y-121900500D01*
X101588694Y-121900499D01*
X101667987Y-121884727D01*
X101762658Y-121865896D01*
X101762661Y-121865894D01*
X101762666Y-121865894D01*
X101926547Y-121798013D01*
X102074035Y-121699464D01*
X102117591Y-121655908D01*
X102162319Y-121611181D01*
X102223642Y-121577696D01*
X102293334Y-121582680D01*
X102337681Y-121611181D01*
X102425961Y-121699461D01*
X102425965Y-121699464D01*
X102573446Y-121798009D01*
X102573459Y-121798016D01*
X102687796Y-121845375D01*
X102737334Y-121865894D01*
X102737336Y-121865894D01*
X102737341Y-121865896D01*
X102911304Y-121900499D01*
X102911307Y-121900500D01*
X102911309Y-121900500D01*
X103088693Y-121900500D01*
X103088694Y-121900499D01*
X103167987Y-121884727D01*
X103262658Y-121865896D01*
X103262661Y-121865894D01*
X103262666Y-121865894D01*
X103426547Y-121798013D01*
X103574035Y-121699464D01*
X103699464Y-121574035D01*
X103798013Y-121426547D01*
X103799771Y-121422304D01*
X103850207Y-121300538D01*
X103865894Y-121262666D01*
X103900500Y-121088691D01*
X103900500Y-120911309D01*
X103900500Y-120911306D01*
X103900499Y-120911304D01*
X103865896Y-120737341D01*
X103865893Y-120737332D01*
X103798016Y-120573459D01*
X103798009Y-120573446D01*
X103699464Y-120425965D01*
X103699461Y-120425961D01*
X103574038Y-120300538D01*
X103574034Y-120300535D01*
X103426553Y-120201990D01*
X103426540Y-120201983D01*
X103262667Y-120134106D01*
X103262658Y-120134103D01*
X103199882Y-120121617D01*
X103137971Y-120089232D01*
X103103397Y-120028517D01*
X103107136Y-119958747D01*
X103148003Y-119902075D01*
X103199882Y-119878383D01*
X103262658Y-119865896D01*
X103262661Y-119865894D01*
X103262666Y-119865894D01*
X103426547Y-119798013D01*
X103574035Y-119699464D01*
X103699464Y-119574035D01*
X103798013Y-119426547D01*
X103865894Y-119262666D01*
X103900500Y-119088691D01*
X103900500Y-118911309D01*
X103900500Y-118911306D01*
X103900499Y-118911304D01*
X103865896Y-118737341D01*
X103865893Y-118737332D01*
X103798016Y-118573459D01*
X103798009Y-118573446D01*
X103699464Y-118425965D01*
X103699461Y-118425961D01*
X103574038Y-118300538D01*
X103574034Y-118300535D01*
X103426553Y-118201990D01*
X103426540Y-118201983D01*
X103262667Y-118134106D01*
X103262658Y-118134103D01*
X103199882Y-118121617D01*
X103137971Y-118089232D01*
X103103397Y-118028517D01*
X103107136Y-117958747D01*
X103148003Y-117902075D01*
X103199882Y-117878383D01*
X103262658Y-117865896D01*
X103262661Y-117865894D01*
X103262666Y-117865894D01*
X103426547Y-117798013D01*
X103574035Y-117699464D01*
X103699464Y-117574035D01*
X103798013Y-117426547D01*
X103804327Y-117411304D01*
X111599500Y-117411304D01*
X111599500Y-117588695D01*
X111634103Y-117762658D01*
X111634106Y-117762667D01*
X111701983Y-117926540D01*
X111701990Y-117926553D01*
X111800535Y-118074034D01*
X111800538Y-118074038D01*
X111925961Y-118199461D01*
X111925965Y-118199464D01*
X112073446Y-118298009D01*
X112073459Y-118298016D01*
X112196363Y-118348923D01*
X112237334Y-118365894D01*
X112237336Y-118365894D01*
X112237341Y-118365896D01*
X112411304Y-118400499D01*
X112411307Y-118400500D01*
X112411309Y-118400500D01*
X112588693Y-118400500D01*
X112588694Y-118400499D01*
X112647415Y-118388819D01*
X112762658Y-118365896D01*
X112762661Y-118365894D01*
X112762666Y-118365894D01*
X112926547Y-118298013D01*
X113074035Y-118199464D01*
X113199464Y-118074035D01*
X113298013Y-117926547D01*
X113365894Y-117762666D01*
X113378467Y-117699461D01*
X113396026Y-117611181D01*
X113400500Y-117588691D01*
X113400500Y-117411309D01*
X113400500Y-117411306D01*
X113400499Y-117411304D01*
X113365896Y-117237341D01*
X113365893Y-117237332D01*
X113298016Y-117073459D01*
X113298009Y-117073446D01*
X113199464Y-116925965D01*
X113199461Y-116925961D01*
X113074038Y-116800538D01*
X113074034Y-116800535D01*
X112926553Y-116701990D01*
X112926540Y-116701983D01*
X112762667Y-116634106D01*
X112762658Y-116634103D01*
X112588694Y-116599500D01*
X112588691Y-116599500D01*
X112411309Y-116599500D01*
X112411306Y-116599500D01*
X112237341Y-116634103D01*
X112237332Y-116634106D01*
X112073459Y-116701983D01*
X112073446Y-116701990D01*
X111925965Y-116800535D01*
X111925961Y-116800538D01*
X111800538Y-116925961D01*
X111800535Y-116925965D01*
X111701990Y-117073446D01*
X111701983Y-117073459D01*
X111634106Y-117237332D01*
X111634103Y-117237341D01*
X111599500Y-117411304D01*
X103804327Y-117411304D01*
X103865894Y-117262666D01*
X103870932Y-117237341D01*
X103900499Y-117088695D01*
X103900500Y-117088693D01*
X103900500Y-116911306D01*
X103900499Y-116911304D01*
X103865896Y-116737341D01*
X103865893Y-116737332D01*
X103798016Y-116573459D01*
X103798009Y-116573446D01*
X103699464Y-116425965D01*
X103699461Y-116425961D01*
X103574038Y-116300538D01*
X103574034Y-116300535D01*
X103426553Y-116201990D01*
X103426540Y-116201983D01*
X103262667Y-116134106D01*
X103262658Y-116134103D01*
X103199882Y-116121617D01*
X103137971Y-116089232D01*
X103103397Y-116028517D01*
X103107136Y-115958747D01*
X103148003Y-115902075D01*
X103199882Y-115878383D01*
X103262658Y-115865896D01*
X103262661Y-115865894D01*
X103262666Y-115865894D01*
X103426547Y-115798013D01*
X103574035Y-115699464D01*
X103699464Y-115574035D01*
X103798013Y-115426547D01*
X103865894Y-115262666D01*
X103878467Y-115199461D01*
X103900499Y-115088695D01*
X103900500Y-115088693D01*
X103900500Y-114911306D01*
X103900499Y-114911304D01*
X103865896Y-114737341D01*
X103865893Y-114737332D01*
X103798016Y-114573459D01*
X103798009Y-114573446D01*
X103731633Y-114474108D01*
X103699464Y-114425965D01*
X103699461Y-114425961D01*
X103684804Y-114411304D01*
X111599500Y-114411304D01*
X111599500Y-114588695D01*
X111634103Y-114762658D01*
X111634106Y-114762667D01*
X111701983Y-114926540D01*
X111701990Y-114926553D01*
X111800535Y-115074034D01*
X111800538Y-115074038D01*
X111925961Y-115199461D01*
X111925965Y-115199464D01*
X112073446Y-115298009D01*
X112073459Y-115298016D01*
X112196363Y-115348923D01*
X112237334Y-115365894D01*
X112237336Y-115365894D01*
X112237341Y-115365896D01*
X112411304Y-115400499D01*
X112411307Y-115400500D01*
X112411309Y-115400500D01*
X112588693Y-115400500D01*
X112588694Y-115400499D01*
X112646682Y-115388964D01*
X112762658Y-115365896D01*
X112762661Y-115365894D01*
X112762666Y-115365894D01*
X112926547Y-115298013D01*
X113074035Y-115199464D01*
X113199464Y-115074035D01*
X113298013Y-114926547D01*
X113365894Y-114762666D01*
X113370932Y-114737341D01*
X113400499Y-114588695D01*
X113400500Y-114588693D01*
X113400500Y-114411306D01*
X113400499Y-114411304D01*
X113365896Y-114237341D01*
X113365893Y-114237332D01*
X113298016Y-114073459D01*
X113298009Y-114073446D01*
X113199464Y-113925965D01*
X113199461Y-113925961D01*
X113074038Y-113800538D01*
X113074034Y-113800535D01*
X112926553Y-113701990D01*
X112926540Y-113701983D01*
X112762667Y-113634106D01*
X112762658Y-113634103D01*
X112588694Y-113599500D01*
X112588691Y-113599500D01*
X112411309Y-113599500D01*
X112411306Y-113599500D01*
X112237341Y-113634103D01*
X112237332Y-113634106D01*
X112073459Y-113701983D01*
X112073446Y-113701990D01*
X111925965Y-113800535D01*
X111925961Y-113800538D01*
X111800538Y-113925961D01*
X111800535Y-113925965D01*
X111701990Y-114073446D01*
X111701983Y-114073459D01*
X111634106Y-114237332D01*
X111634103Y-114237341D01*
X111599500Y-114411304D01*
X103684804Y-114411304D01*
X103574038Y-114300538D01*
X103574034Y-114300535D01*
X103426553Y-114201990D01*
X103426540Y-114201983D01*
X103262667Y-114134106D01*
X103262658Y-114134103D01*
X103199882Y-114121617D01*
X103137971Y-114089232D01*
X103103397Y-114028517D01*
X103107136Y-113958747D01*
X103148003Y-113902075D01*
X103199882Y-113878383D01*
X103262658Y-113865896D01*
X103262661Y-113865894D01*
X103262666Y-113865894D01*
X103426547Y-113798013D01*
X103574035Y-113699464D01*
X103699464Y-113574035D01*
X103798013Y-113426547D01*
X103865894Y-113262666D01*
X103900500Y-113088691D01*
X103900500Y-112911309D01*
X103900500Y-112911306D01*
X103900499Y-112911304D01*
X103865896Y-112737341D01*
X103865893Y-112737332D01*
X103798016Y-112573459D01*
X103798009Y-112573446D01*
X103699464Y-112425965D01*
X103699461Y-112425961D01*
X103574038Y-112300538D01*
X103574034Y-112300535D01*
X103426553Y-112201990D01*
X103426540Y-112201983D01*
X103262667Y-112134106D01*
X103262658Y-112134103D01*
X103199882Y-112121617D01*
X103137971Y-112089232D01*
X103103397Y-112028517D01*
X103107136Y-111958747D01*
X103148003Y-111902075D01*
X103199882Y-111878383D01*
X103262658Y-111865896D01*
X103262661Y-111865894D01*
X103262666Y-111865894D01*
X103426547Y-111798013D01*
X103574035Y-111699464D01*
X103699464Y-111574035D01*
X103798013Y-111426547D01*
X103804327Y-111411304D01*
X111599500Y-111411304D01*
X111599500Y-111588695D01*
X111634103Y-111762658D01*
X111634106Y-111762667D01*
X111701983Y-111926540D01*
X111701990Y-111926553D01*
X111800535Y-112074034D01*
X111800538Y-112074038D01*
X111925961Y-112199461D01*
X111925965Y-112199464D01*
X112073446Y-112298009D01*
X112073459Y-112298016D01*
X112196363Y-112348923D01*
X112237334Y-112365894D01*
X112237336Y-112365894D01*
X112237341Y-112365896D01*
X112411304Y-112400499D01*
X112411307Y-112400500D01*
X112411309Y-112400500D01*
X112588693Y-112400500D01*
X112588694Y-112400499D01*
X112647415Y-112388819D01*
X112762658Y-112365896D01*
X112762661Y-112365894D01*
X112762666Y-112365894D01*
X112926547Y-112298013D01*
X113074035Y-112199464D01*
X113199464Y-112074035D01*
X113298013Y-111926547D01*
X113365894Y-111762666D01*
X113378467Y-111699461D01*
X113396026Y-111611181D01*
X113400500Y-111588691D01*
X113400500Y-111411309D01*
X113400500Y-111411306D01*
X113400499Y-111411304D01*
X113365896Y-111237341D01*
X113365893Y-111237332D01*
X113298016Y-111073459D01*
X113298009Y-111073446D01*
X113199464Y-110925965D01*
X113199461Y-110925961D01*
X113074038Y-110800538D01*
X113074034Y-110800535D01*
X112926553Y-110701990D01*
X112926540Y-110701983D01*
X112762667Y-110634106D01*
X112762658Y-110634103D01*
X112588694Y-110599500D01*
X112588691Y-110599500D01*
X112411309Y-110599500D01*
X112411306Y-110599500D01*
X112237341Y-110634103D01*
X112237332Y-110634106D01*
X112073459Y-110701983D01*
X112073446Y-110701990D01*
X111925965Y-110800535D01*
X111925961Y-110800538D01*
X111800538Y-110925961D01*
X111800535Y-110925965D01*
X111701990Y-111073446D01*
X111701983Y-111073459D01*
X111634106Y-111237332D01*
X111634103Y-111237341D01*
X111599500Y-111411304D01*
X103804327Y-111411304D01*
X103865894Y-111262666D01*
X103870932Y-111237341D01*
X103900499Y-111088695D01*
X103900500Y-111088693D01*
X103900500Y-110911306D01*
X103900499Y-110911304D01*
X103865896Y-110737341D01*
X103865893Y-110737332D01*
X103798016Y-110573459D01*
X103798009Y-110573446D01*
X103699464Y-110425965D01*
X103699461Y-110425961D01*
X103574038Y-110300538D01*
X103574034Y-110300535D01*
X103426553Y-110201990D01*
X103426540Y-110201983D01*
X103262667Y-110134106D01*
X103262658Y-110134103D01*
X103199882Y-110121617D01*
X103137971Y-110089232D01*
X103103397Y-110028517D01*
X103107136Y-109958747D01*
X103148003Y-109902075D01*
X103199882Y-109878383D01*
X103262658Y-109865896D01*
X103262661Y-109865894D01*
X103262666Y-109865894D01*
X103426547Y-109798013D01*
X103574035Y-109699464D01*
X103699464Y-109574035D01*
X103798013Y-109426547D01*
X103865894Y-109262666D01*
X103900500Y-109088691D01*
X103900500Y-108911309D01*
X103900500Y-108911306D01*
X103900499Y-108911304D01*
X103865896Y-108737341D01*
X103865893Y-108737332D01*
X103798016Y-108573459D01*
X103798009Y-108573446D01*
X103699464Y-108425965D01*
X103699461Y-108425961D01*
X103574038Y-108300538D01*
X103574034Y-108300535D01*
X103426553Y-108201990D01*
X103426540Y-108201983D01*
X103262667Y-108134106D01*
X103262658Y-108134103D01*
X103199882Y-108121617D01*
X103137971Y-108089232D01*
X103103397Y-108028517D01*
X103107136Y-107958747D01*
X103148003Y-107902075D01*
X103199882Y-107878383D01*
X103262658Y-107865896D01*
X103262661Y-107865894D01*
X103262666Y-107865894D01*
X103426547Y-107798013D01*
X103574035Y-107699464D01*
X103699464Y-107574035D01*
X103798013Y-107426547D01*
X103865894Y-107262666D01*
X103875877Y-107212482D01*
X103899513Y-107093653D01*
X103900500Y-107088691D01*
X103900500Y-106911309D01*
X103900500Y-106911306D01*
X103900499Y-106911304D01*
X103865896Y-106737341D01*
X103865893Y-106737332D01*
X103855240Y-106711614D01*
X103806081Y-106592930D01*
X103798016Y-106573459D01*
X103798009Y-106573446D01*
X103796680Y-106571457D01*
X107274499Y-106571457D01*
X107302379Y-106711614D01*
X107302381Y-106711620D01*
X107357069Y-106843650D01*
X107357074Y-106843659D01*
X107436467Y-106962478D01*
X107436470Y-106962482D01*
X107537517Y-107063529D01*
X107537521Y-107063532D01*
X107640861Y-107132582D01*
X107685666Y-107186194D01*
X107694373Y-107255519D01*
X107675072Y-107304575D01*
X107607074Y-107406340D01*
X107607069Y-107406349D01*
X107552381Y-107538379D01*
X107552379Y-107538385D01*
X107524500Y-107678542D01*
X107524500Y-107678545D01*
X107524500Y-107821455D01*
X107524500Y-107821457D01*
X107524499Y-107821457D01*
X107552381Y-107961626D01*
X107553106Y-107964014D01*
X107553117Y-107965324D01*
X107553569Y-107967594D01*
X107553138Y-107967679D01*
X107553725Y-108033881D01*
X107553106Y-108035986D01*
X107552381Y-108038373D01*
X107524500Y-108178542D01*
X107524500Y-108178545D01*
X107524500Y-108321455D01*
X107524500Y-108321457D01*
X107524499Y-108321457D01*
X107552379Y-108461614D01*
X107552381Y-108461620D01*
X107607069Y-108593650D01*
X107607074Y-108593659D01*
X107686467Y-108712478D01*
X107686470Y-108712482D01*
X107787517Y-108813529D01*
X107787521Y-108813532D01*
X107906340Y-108892925D01*
X107906346Y-108892928D01*
X107906347Y-108892929D01*
X108038380Y-108947619D01*
X108038384Y-108947619D01*
X108038385Y-108947620D01*
X108178542Y-108975500D01*
X108178545Y-108975500D01*
X108321457Y-108975500D01*
X108415751Y-108956742D01*
X108461620Y-108947619D01*
X108593653Y-108892929D01*
X108712479Y-108813532D01*
X108813532Y-108712479D01*
X108892929Y-108593653D01*
X108947619Y-108461620D01*
X108975500Y-108321455D01*
X108975500Y-108178545D01*
X108975500Y-108178542D01*
X108947619Y-108038379D01*
X108946897Y-108035999D01*
X108946885Y-108034689D01*
X108946431Y-108032406D01*
X108946864Y-108032319D01*
X108946271Y-107966133D01*
X108946897Y-107964001D01*
X108947619Y-107961620D01*
X108975500Y-107821457D01*
X108975500Y-107678542D01*
X108947620Y-107538385D01*
X108947619Y-107538384D01*
X108947619Y-107538380D01*
X108892929Y-107406347D01*
X108892928Y-107406346D01*
X108892925Y-107406340D01*
X108813532Y-107287521D01*
X108813529Y-107287517D01*
X108712482Y-107186470D01*
X108712478Y-107186467D01*
X108609138Y-107117417D01*
X108564333Y-107063805D01*
X108555626Y-106994480D01*
X108574924Y-106945428D01*
X108642929Y-106843653D01*
X108697619Y-106711620D01*
X108711538Y-106641647D01*
X108725500Y-106571457D01*
X108725500Y-106428542D01*
X108697620Y-106288385D01*
X108697619Y-106288384D01*
X108697619Y-106288380D01*
X108642929Y-106156347D01*
X108642928Y-106156346D01*
X108642925Y-106156340D01*
X108563532Y-106037521D01*
X108563529Y-106037517D01*
X108462482Y-105936470D01*
X108462478Y-105936467D01*
X108343659Y-105857074D01*
X108343650Y-105857069D01*
X108211620Y-105802381D01*
X108211614Y-105802379D01*
X108071457Y-105774500D01*
X108071455Y-105774500D01*
X107928545Y-105774500D01*
X107928543Y-105774500D01*
X107788385Y-105802379D01*
X107788379Y-105802381D01*
X107656349Y-105857069D01*
X107656340Y-105857074D01*
X107537521Y-105936467D01*
X107537517Y-105936470D01*
X107436470Y-106037517D01*
X107436467Y-106037521D01*
X107357074Y-106156340D01*
X107357069Y-106156349D01*
X107302381Y-106288379D01*
X107302379Y-106288385D01*
X107274500Y-106428542D01*
X107274500Y-106428545D01*
X107274500Y-106571455D01*
X107274500Y-106571457D01*
X107274499Y-106571457D01*
X103796680Y-106571457D01*
X103743151Y-106491346D01*
X103743150Y-106491345D01*
X103699461Y-106425961D01*
X103574038Y-106300538D01*
X103574034Y-106300535D01*
X103426553Y-106201990D01*
X103426540Y-106201983D01*
X103262667Y-106134106D01*
X103262658Y-106134103D01*
X103199882Y-106121617D01*
X103137971Y-106089232D01*
X103103397Y-106028517D01*
X103107136Y-105958747D01*
X103148003Y-105902075D01*
X103199882Y-105878383D01*
X103262658Y-105865896D01*
X103262661Y-105865894D01*
X103262666Y-105865894D01*
X103416002Y-105802381D01*
X103426540Y-105798016D01*
X103426540Y-105798015D01*
X103426547Y-105798013D01*
X103574035Y-105699464D01*
X103699464Y-105574035D01*
X103798013Y-105426547D01*
X103841542Y-105321457D01*
X109024499Y-105321457D01*
X109052379Y-105461614D01*
X109052382Y-105461624D01*
X109090044Y-105552548D01*
X109097513Y-105622017D01*
X109090044Y-105647452D01*
X109052382Y-105738375D01*
X109052379Y-105738385D01*
X109024500Y-105878542D01*
X109024500Y-105878545D01*
X109024500Y-106021455D01*
X109024500Y-106021457D01*
X109024499Y-106021457D01*
X109052379Y-106161614D01*
X109052381Y-106161620D01*
X109107069Y-106293650D01*
X109107074Y-106293659D01*
X109186467Y-106412478D01*
X109186470Y-106412482D01*
X109287517Y-106513529D01*
X109287521Y-106513532D01*
X109406340Y-106592925D01*
X109406346Y-106592928D01*
X109406347Y-106592929D01*
X109538380Y-106647619D01*
X109538384Y-106647619D01*
X109538385Y-106647620D01*
X109678542Y-106675500D01*
X109678545Y-106675500D01*
X109821457Y-106675500D01*
X109915751Y-106656742D01*
X109961620Y-106647619D01*
X110093653Y-106592929D01*
X110093659Y-106592925D01*
X110201456Y-106520898D01*
X110268134Y-106500020D01*
X110270347Y-106500000D01*
X111174626Y-106500000D01*
X111241665Y-106519685D01*
X111287420Y-106572489D01*
X111297364Y-106641647D01*
X111268339Y-106705203D01*
X111262307Y-106711681D01*
X111186470Y-106787517D01*
X111186467Y-106787521D01*
X111107074Y-106906340D01*
X111107069Y-106906349D01*
X111052381Y-107038379D01*
X111052379Y-107038385D01*
X111024500Y-107178542D01*
X111024500Y-107178545D01*
X111024500Y-107321455D01*
X111024500Y-107321457D01*
X111024499Y-107321457D01*
X111052379Y-107461614D01*
X111052381Y-107461620D01*
X111107069Y-107593650D01*
X111107074Y-107593659D01*
X111186467Y-107712478D01*
X111186470Y-107712482D01*
X111287517Y-107813529D01*
X111287521Y-107813532D01*
X111406340Y-107892925D01*
X111406346Y-107892928D01*
X111406347Y-107892929D01*
X111538380Y-107947619D01*
X111538384Y-107947619D01*
X111538385Y-107947620D01*
X111678542Y-107975500D01*
X111678545Y-107975500D01*
X111821457Y-107975500D01*
X111915751Y-107956742D01*
X111961620Y-107947619D01*
X112093653Y-107892929D01*
X112200618Y-107821457D01*
X116024499Y-107821457D01*
X116052381Y-107961626D01*
X116053106Y-107964014D01*
X116053117Y-107965324D01*
X116053569Y-107967594D01*
X116053138Y-107967679D01*
X116053725Y-108033881D01*
X116053106Y-108035986D01*
X116052381Y-108038373D01*
X116024500Y-108178542D01*
X116024500Y-108178545D01*
X116024500Y-108321455D01*
X116024500Y-108321457D01*
X116024499Y-108321457D01*
X116052379Y-108461614D01*
X116052381Y-108461620D01*
X116107069Y-108593650D01*
X116107074Y-108593659D01*
X116186467Y-108712478D01*
X116186470Y-108712482D01*
X116287517Y-108813529D01*
X116287521Y-108813532D01*
X116406340Y-108892925D01*
X116406346Y-108892928D01*
X116406347Y-108892929D01*
X116538380Y-108947619D01*
X116538384Y-108947619D01*
X116538385Y-108947620D01*
X116678542Y-108975500D01*
X116678545Y-108975500D01*
X116821457Y-108975500D01*
X116915751Y-108956742D01*
X116961620Y-108947619D01*
X117093653Y-108892929D01*
X117212479Y-108813532D01*
X117313532Y-108712479D01*
X117392929Y-108593653D01*
X117447619Y-108461620D01*
X117475500Y-108321455D01*
X117475500Y-108178545D01*
X117475500Y-108178542D01*
X117447619Y-108038379D01*
X117446897Y-108035999D01*
X117446885Y-108034689D01*
X117446431Y-108032406D01*
X117446864Y-108032319D01*
X117446271Y-107966133D01*
X117446897Y-107964001D01*
X117447619Y-107961620D01*
X117475500Y-107821457D01*
X117475500Y-107678542D01*
X117447620Y-107538385D01*
X117447619Y-107538384D01*
X117447619Y-107538380D01*
X117392929Y-107406347D01*
X117392928Y-107406346D01*
X117392925Y-107406340D01*
X117313532Y-107287521D01*
X117313529Y-107287517D01*
X117212482Y-107186470D01*
X117212478Y-107186467D01*
X117093659Y-107107074D01*
X117093650Y-107107069D01*
X116961620Y-107052381D01*
X116961614Y-107052379D01*
X116821457Y-107024500D01*
X116821455Y-107024500D01*
X116678545Y-107024500D01*
X116678543Y-107024500D01*
X116538385Y-107052379D01*
X116538379Y-107052381D01*
X116406349Y-107107069D01*
X116406340Y-107107074D01*
X116287521Y-107186467D01*
X116287517Y-107186470D01*
X116186470Y-107287517D01*
X116186467Y-107287521D01*
X116107074Y-107406340D01*
X116107069Y-107406349D01*
X116052381Y-107538379D01*
X116052379Y-107538385D01*
X116024500Y-107678542D01*
X116024500Y-107678545D01*
X116024500Y-107821455D01*
X116024500Y-107821457D01*
X116024499Y-107821457D01*
X112200618Y-107821457D01*
X112212479Y-107813532D01*
X112313532Y-107712479D01*
X112392929Y-107593653D01*
X112447619Y-107461620D01*
X112450464Y-107447317D01*
X112455482Y-107435527D01*
X112469853Y-107418042D01*
X112480340Y-107397991D01*
X112491610Y-107391571D01*
X112499848Y-107381550D01*
X112521390Y-107374610D01*
X112541053Y-107363412D01*
X112554004Y-107364105D01*
X112566352Y-107360128D01*
X112588224Y-107365936D01*
X112610823Y-107367146D01*
X112631216Y-107377353D01*
X112633881Y-107378061D01*
X112634933Y-107379214D01*
X112638470Y-107380984D01*
X112654315Y-107391571D01*
X112656344Y-107392927D01*
X112656349Y-107392930D01*
X112672452Y-107399600D01*
X112788380Y-107447619D01*
X112788384Y-107447619D01*
X112788385Y-107447620D01*
X112928542Y-107475500D01*
X112928545Y-107475500D01*
X113071457Y-107475500D01*
X113165751Y-107456742D01*
X113211620Y-107447619D01*
X113327548Y-107399599D01*
X113397016Y-107392131D01*
X113422450Y-107399599D01*
X113538380Y-107447619D01*
X113538384Y-107447619D01*
X113538385Y-107447620D01*
X113678542Y-107475500D01*
X113678545Y-107475500D01*
X113821457Y-107475500D01*
X113915751Y-107456742D01*
X113961620Y-107447619D01*
X114093653Y-107392929D01*
X114212479Y-107313532D01*
X114313532Y-107212479D01*
X114392929Y-107093653D01*
X114447619Y-106961620D01*
X114458615Y-106906340D01*
X114475500Y-106821457D01*
X114475500Y-106678542D01*
X114475499Y-106678540D01*
X114469463Y-106648191D01*
X114475690Y-106578599D01*
X114518553Y-106523422D01*
X114584443Y-106500178D01*
X114591080Y-106500000D01*
X115000000Y-106500000D01*
X115000000Y-105736430D01*
X116189472Y-105736430D01*
X116217352Y-105876587D01*
X116217354Y-105876593D01*
X116272042Y-106008623D01*
X116272047Y-106008632D01*
X116351440Y-106127451D01*
X116351443Y-106127455D01*
X116452490Y-106228502D01*
X116452494Y-106228505D01*
X116571313Y-106307898D01*
X116571319Y-106307901D01*
X116571320Y-106307902D01*
X116703353Y-106362592D01*
X116703357Y-106362592D01*
X116703358Y-106362593D01*
X116843515Y-106390473D01*
X116843518Y-106390473D01*
X116986430Y-106390473D01*
X117080724Y-106371715D01*
X117126593Y-106362592D01*
X117258626Y-106307902D01*
X117377452Y-106228505D01*
X117478505Y-106127452D01*
X117557902Y-106008626D01*
X117612592Y-105876593D01*
X117640473Y-105736428D01*
X117640473Y-105593518D01*
X117640473Y-105593515D01*
X117612593Y-105453358D01*
X117612592Y-105453357D01*
X117612592Y-105453353D01*
X117557902Y-105321320D01*
X117557901Y-105321319D01*
X117557898Y-105321313D01*
X117478505Y-105202494D01*
X117478502Y-105202490D01*
X117377455Y-105101443D01*
X117377451Y-105101440D01*
X117258632Y-105022047D01*
X117258623Y-105022042D01*
X117126593Y-104967354D01*
X117126587Y-104967352D01*
X116986430Y-104939473D01*
X116986428Y-104939473D01*
X116843518Y-104939473D01*
X116843516Y-104939473D01*
X116703358Y-104967352D01*
X116703352Y-104967354D01*
X116571322Y-105022042D01*
X116571313Y-105022047D01*
X116452494Y-105101440D01*
X116452490Y-105101443D01*
X116351443Y-105202490D01*
X116351440Y-105202494D01*
X116272047Y-105321313D01*
X116272042Y-105321322D01*
X116217354Y-105453352D01*
X116217352Y-105453358D01*
X116189473Y-105593515D01*
X116189473Y-105593518D01*
X116189473Y-105736428D01*
X116189473Y-105736430D01*
X116189472Y-105736430D01*
X115000000Y-105736430D01*
X115000000Y-105591079D01*
X115019685Y-105524040D01*
X115072489Y-105478285D01*
X115141647Y-105468341D01*
X115148168Y-105469457D01*
X115178545Y-105475500D01*
X115321457Y-105475500D01*
X115370176Y-105465809D01*
X115429945Y-105453919D01*
X115461620Y-105447619D01*
X115593653Y-105392929D01*
X115712479Y-105313532D01*
X115813532Y-105212479D01*
X115892929Y-105093653D01*
X115947619Y-104961620D01*
X115975500Y-104821455D01*
X115975500Y-104678545D01*
X115975500Y-104678542D01*
X115947620Y-104538385D01*
X115947619Y-104538384D01*
X115947619Y-104538380D01*
X115892929Y-104406347D01*
X115892928Y-104406346D01*
X115892925Y-104406340D01*
X115813532Y-104287521D01*
X115813529Y-104287517D01*
X115712482Y-104186470D01*
X115712478Y-104186467D01*
X115593659Y-104107074D01*
X115593650Y-104107069D01*
X115461620Y-104052381D01*
X115461614Y-104052379D01*
X115321457Y-104024500D01*
X115321455Y-104024500D01*
X115178545Y-104024500D01*
X115178540Y-104024500D01*
X115148191Y-104030537D01*
X115078599Y-104024310D01*
X115023422Y-103981447D01*
X115000178Y-103915557D01*
X115000000Y-103908920D01*
X115000000Y-103500000D01*
X110000000Y-103500000D01*
X110000000Y-104408920D01*
X109980315Y-104475959D01*
X109927511Y-104521714D01*
X109858353Y-104531658D01*
X109851809Y-104530537D01*
X109821459Y-104524500D01*
X109821455Y-104524500D01*
X109678545Y-104524500D01*
X109678543Y-104524500D01*
X109538385Y-104552379D01*
X109538379Y-104552381D01*
X109406349Y-104607069D01*
X109406340Y-104607074D01*
X109287521Y-104686467D01*
X109287517Y-104686470D01*
X109186470Y-104787517D01*
X109186467Y-104787521D01*
X109107074Y-104906340D01*
X109107069Y-104906349D01*
X109052381Y-105038379D01*
X109052379Y-105038385D01*
X109024500Y-105178542D01*
X109024500Y-105178545D01*
X109024500Y-105321455D01*
X109024500Y-105321457D01*
X109024499Y-105321457D01*
X103841542Y-105321457D01*
X103865894Y-105262666D01*
X103865896Y-105262658D01*
X103888651Y-105148262D01*
X103888651Y-105148261D01*
X103900500Y-105088693D01*
X103900500Y-104911306D01*
X103900499Y-104911304D01*
X103865896Y-104737341D01*
X103865893Y-104737332D01*
X103798016Y-104573459D01*
X103798009Y-104573446D01*
X103699464Y-104425965D01*
X103699461Y-104425961D01*
X103574038Y-104300538D01*
X103574034Y-104300535D01*
X103426553Y-104201990D01*
X103426540Y-104201983D01*
X103262667Y-104134106D01*
X103262658Y-104134103D01*
X103199882Y-104121617D01*
X103137971Y-104089232D01*
X103103397Y-104028517D01*
X103107136Y-103958747D01*
X103148003Y-103902075D01*
X103199882Y-103878383D01*
X103262658Y-103865896D01*
X103262661Y-103865894D01*
X103262666Y-103865894D01*
X103426547Y-103798013D01*
X103574035Y-103699464D01*
X103699464Y-103574035D01*
X103798013Y-103426547D01*
X103865894Y-103262666D01*
X103900500Y-103088691D01*
X103900500Y-102911309D01*
X103900500Y-102911306D01*
X103900499Y-102911304D01*
X103865896Y-102737341D01*
X103865893Y-102737332D01*
X103798016Y-102573459D01*
X103798009Y-102573446D01*
X103699464Y-102425965D01*
X103699461Y-102425961D01*
X103684957Y-102411457D01*
X107524499Y-102411457D01*
X107552379Y-102551614D01*
X107552381Y-102551620D01*
X107607069Y-102683650D01*
X107607074Y-102683659D01*
X107686467Y-102802478D01*
X107686470Y-102802482D01*
X107787517Y-102903529D01*
X107787521Y-102903532D01*
X107906340Y-102982925D01*
X107906346Y-102982928D01*
X107906347Y-102982929D01*
X108038380Y-103037619D01*
X108038384Y-103037619D01*
X108038385Y-103037620D01*
X108178542Y-103065500D01*
X108178545Y-103065500D01*
X108321457Y-103065500D01*
X108415751Y-103046742D01*
X108461620Y-103037619D01*
X108593653Y-102982929D01*
X108712479Y-102903532D01*
X108813532Y-102802479D01*
X108892929Y-102683653D01*
X108947619Y-102551620D01*
X108973342Y-102422304D01*
X108975500Y-102411457D01*
X108975500Y-102268542D01*
X108947620Y-102128385D01*
X108947619Y-102128384D01*
X108947619Y-102128380D01*
X108929451Y-102084520D01*
X108921983Y-102015055D01*
X108929450Y-101989624D01*
X108957619Y-101921620D01*
X108985500Y-101781455D01*
X108985500Y-101671457D01*
X116014499Y-101671457D01*
X116042379Y-101811614D01*
X116042382Y-101811624D01*
X116086257Y-101917548D01*
X116093726Y-101987017D01*
X116086257Y-102012452D01*
X116042382Y-102118375D01*
X116042379Y-102118385D01*
X116014500Y-102258542D01*
X116014500Y-102258545D01*
X116014500Y-102401455D01*
X116014500Y-102401457D01*
X116014499Y-102401457D01*
X116042379Y-102541614D01*
X116042381Y-102541620D01*
X116097069Y-102673650D01*
X116097074Y-102673659D01*
X116176467Y-102792478D01*
X116176470Y-102792482D01*
X116277517Y-102893529D01*
X116277521Y-102893532D01*
X116396340Y-102972925D01*
X116396346Y-102972928D01*
X116396347Y-102972929D01*
X116528380Y-103027619D01*
X116528384Y-103027619D01*
X116528385Y-103027620D01*
X116668542Y-103055500D01*
X116668545Y-103055500D01*
X116811457Y-103055500D01*
X116905751Y-103036742D01*
X116951620Y-103027619D01*
X117083653Y-102972929D01*
X117175881Y-102911304D01*
X121099500Y-102911304D01*
X121099500Y-103088695D01*
X121134103Y-103262658D01*
X121134106Y-103262667D01*
X121201983Y-103426540D01*
X121201990Y-103426553D01*
X121300535Y-103574034D01*
X121300538Y-103574038D01*
X121425961Y-103699461D01*
X121425965Y-103699464D01*
X121573446Y-103798009D01*
X121573459Y-103798016D01*
X121696363Y-103848923D01*
X121737334Y-103865894D01*
X121757594Y-103869924D01*
X121800118Y-103878383D01*
X121862028Y-103910768D01*
X121896603Y-103971484D01*
X121892863Y-104041253D01*
X121851996Y-104097925D01*
X121800118Y-104121617D01*
X121737340Y-104134104D01*
X121737332Y-104134106D01*
X121573459Y-104201983D01*
X121573446Y-104201990D01*
X121425965Y-104300535D01*
X121425961Y-104300538D01*
X121300538Y-104425961D01*
X121300535Y-104425965D01*
X121201990Y-104573446D01*
X121201983Y-104573459D01*
X121134106Y-104737332D01*
X121134103Y-104737341D01*
X121099500Y-104911304D01*
X121099500Y-105088695D01*
X121134103Y-105262658D01*
X121134106Y-105262667D01*
X121201983Y-105426540D01*
X121201990Y-105426553D01*
X121300535Y-105574034D01*
X121300538Y-105574038D01*
X121425961Y-105699461D01*
X121425965Y-105699464D01*
X121573446Y-105798009D01*
X121573459Y-105798016D01*
X121696363Y-105848923D01*
X121737334Y-105865894D01*
X121757594Y-105869924D01*
X121800118Y-105878383D01*
X121862028Y-105910768D01*
X121896603Y-105971484D01*
X121892863Y-106041253D01*
X121851996Y-106097925D01*
X121800118Y-106121617D01*
X121737340Y-106134104D01*
X121737332Y-106134106D01*
X121573459Y-106201983D01*
X121573446Y-106201990D01*
X121425965Y-106300535D01*
X121425961Y-106300538D01*
X121300538Y-106425961D01*
X121300535Y-106425965D01*
X121201990Y-106573446D01*
X121201983Y-106573459D01*
X121134106Y-106737332D01*
X121134103Y-106737341D01*
X121099500Y-106911304D01*
X121099500Y-107088695D01*
X121134103Y-107262658D01*
X121134106Y-107262667D01*
X121201983Y-107426540D01*
X121201990Y-107426553D01*
X121300535Y-107574034D01*
X121300538Y-107574038D01*
X121425961Y-107699461D01*
X121425965Y-107699464D01*
X121573446Y-107798009D01*
X121573459Y-107798016D01*
X121630052Y-107821457D01*
X121737334Y-107865894D01*
X121757594Y-107869924D01*
X121800118Y-107878383D01*
X121862028Y-107910768D01*
X121896603Y-107971484D01*
X121892863Y-108041253D01*
X121851996Y-108097925D01*
X121800118Y-108121617D01*
X121737340Y-108134104D01*
X121737332Y-108134106D01*
X121573459Y-108201983D01*
X121573446Y-108201990D01*
X121425965Y-108300535D01*
X121425961Y-108300538D01*
X121300538Y-108425961D01*
X121300535Y-108425965D01*
X121201990Y-108573446D01*
X121201983Y-108573459D01*
X121134106Y-108737332D01*
X121134103Y-108737341D01*
X121099500Y-108911304D01*
X121099500Y-109088695D01*
X121134103Y-109262658D01*
X121134106Y-109262667D01*
X121201983Y-109426540D01*
X121201990Y-109426553D01*
X121300535Y-109574034D01*
X121300538Y-109574038D01*
X121425961Y-109699461D01*
X121425965Y-109699464D01*
X121573446Y-109798009D01*
X121573459Y-109798016D01*
X121696363Y-109848923D01*
X121737334Y-109865894D01*
X121757594Y-109869924D01*
X121800118Y-109878383D01*
X121862028Y-109910768D01*
X121896603Y-109971484D01*
X121892863Y-110041253D01*
X121851996Y-110097925D01*
X121800118Y-110121617D01*
X121737340Y-110134104D01*
X121737332Y-110134106D01*
X121573459Y-110201983D01*
X121573446Y-110201990D01*
X121425965Y-110300535D01*
X121425961Y-110300538D01*
X121300538Y-110425961D01*
X121300535Y-110425965D01*
X121201990Y-110573446D01*
X121201983Y-110573459D01*
X121134106Y-110737332D01*
X121134103Y-110737341D01*
X121099500Y-110911304D01*
X121099500Y-111088695D01*
X121134103Y-111262658D01*
X121134106Y-111262667D01*
X121201983Y-111426540D01*
X121201990Y-111426553D01*
X121300535Y-111574034D01*
X121300538Y-111574038D01*
X121425961Y-111699461D01*
X121425965Y-111699464D01*
X121573446Y-111798009D01*
X121573459Y-111798016D01*
X121696363Y-111848923D01*
X121737334Y-111865894D01*
X121757594Y-111869924D01*
X121800118Y-111878383D01*
X121862028Y-111910768D01*
X121896603Y-111971484D01*
X121892863Y-112041253D01*
X121851996Y-112097925D01*
X121800118Y-112121617D01*
X121737340Y-112134104D01*
X121737332Y-112134106D01*
X121573459Y-112201983D01*
X121573446Y-112201990D01*
X121425965Y-112300535D01*
X121425961Y-112300538D01*
X121300538Y-112425961D01*
X121300535Y-112425965D01*
X121201990Y-112573446D01*
X121201983Y-112573459D01*
X121134106Y-112737332D01*
X121134103Y-112737341D01*
X121099500Y-112911304D01*
X121099500Y-113088695D01*
X121134103Y-113262658D01*
X121134106Y-113262667D01*
X121201983Y-113426540D01*
X121201990Y-113426553D01*
X121300535Y-113574034D01*
X121300538Y-113574038D01*
X121425961Y-113699461D01*
X121425965Y-113699464D01*
X121573446Y-113798009D01*
X121573459Y-113798016D01*
X121696363Y-113848923D01*
X121737334Y-113865894D01*
X121757594Y-113869924D01*
X121800118Y-113878383D01*
X121862028Y-113910768D01*
X121896603Y-113971484D01*
X121892863Y-114041253D01*
X121851996Y-114097925D01*
X121800118Y-114121617D01*
X121737340Y-114134104D01*
X121737332Y-114134106D01*
X121573459Y-114201983D01*
X121573446Y-114201990D01*
X121425965Y-114300535D01*
X121425961Y-114300538D01*
X121300538Y-114425961D01*
X121300535Y-114425965D01*
X121201990Y-114573446D01*
X121201983Y-114573459D01*
X121134106Y-114737332D01*
X121134103Y-114737341D01*
X121099500Y-114911304D01*
X121099500Y-115088695D01*
X121134103Y-115262658D01*
X121134106Y-115262667D01*
X121201983Y-115426540D01*
X121201990Y-115426553D01*
X121300535Y-115574034D01*
X121300538Y-115574038D01*
X121425961Y-115699461D01*
X121425965Y-115699464D01*
X121573446Y-115798009D01*
X121573459Y-115798016D01*
X121696363Y-115848923D01*
X121737334Y-115865894D01*
X121757594Y-115869924D01*
X121800118Y-115878383D01*
X121862028Y-115910768D01*
X121896603Y-115971484D01*
X121892863Y-116041253D01*
X121851996Y-116097925D01*
X121800118Y-116121617D01*
X121737340Y-116134104D01*
X121737332Y-116134106D01*
X121573459Y-116201983D01*
X121573446Y-116201990D01*
X121425965Y-116300535D01*
X121425961Y-116300538D01*
X121300538Y-116425961D01*
X121300535Y-116425965D01*
X121201990Y-116573446D01*
X121201983Y-116573459D01*
X121134106Y-116737332D01*
X121134103Y-116737341D01*
X121099500Y-116911304D01*
X121099500Y-117088695D01*
X121134103Y-117262658D01*
X121134106Y-117262667D01*
X121201983Y-117426540D01*
X121201990Y-117426553D01*
X121300535Y-117574034D01*
X121300538Y-117574038D01*
X121425961Y-117699461D01*
X121425965Y-117699464D01*
X121573446Y-117798009D01*
X121573459Y-117798016D01*
X121696363Y-117848923D01*
X121737334Y-117865894D01*
X121757594Y-117869924D01*
X121800118Y-117878383D01*
X121862028Y-117910768D01*
X121896603Y-117971484D01*
X121892863Y-118041253D01*
X121851996Y-118097925D01*
X121800118Y-118121617D01*
X121737340Y-118134104D01*
X121737332Y-118134106D01*
X121573459Y-118201983D01*
X121573446Y-118201990D01*
X121425965Y-118300535D01*
X121425961Y-118300538D01*
X121300538Y-118425961D01*
X121300535Y-118425965D01*
X121201990Y-118573446D01*
X121201983Y-118573459D01*
X121134106Y-118737332D01*
X121134103Y-118737341D01*
X121099500Y-118911304D01*
X121099500Y-119088695D01*
X121134103Y-119262658D01*
X121134106Y-119262667D01*
X121201983Y-119426540D01*
X121201990Y-119426553D01*
X121300535Y-119574034D01*
X121300538Y-119574038D01*
X121425961Y-119699461D01*
X121425965Y-119699464D01*
X121573446Y-119798009D01*
X121573459Y-119798016D01*
X121696363Y-119848923D01*
X121737334Y-119865894D01*
X121757594Y-119869924D01*
X121800118Y-119878383D01*
X121862028Y-119910768D01*
X121896603Y-119971484D01*
X121892863Y-120041253D01*
X121851996Y-120097925D01*
X121800118Y-120121617D01*
X121737340Y-120134104D01*
X121737332Y-120134106D01*
X121573459Y-120201983D01*
X121573446Y-120201990D01*
X121425965Y-120300535D01*
X121425961Y-120300538D01*
X121300538Y-120425961D01*
X121300535Y-120425965D01*
X121201990Y-120573446D01*
X121201983Y-120573459D01*
X121134106Y-120737332D01*
X121134103Y-120737341D01*
X121099500Y-120911304D01*
X121099500Y-121088695D01*
X121134103Y-121262658D01*
X121134106Y-121262667D01*
X121201983Y-121426540D01*
X121201990Y-121426553D01*
X121300535Y-121574034D01*
X121300538Y-121574038D01*
X121425961Y-121699461D01*
X121425965Y-121699464D01*
X121573446Y-121798009D01*
X121573459Y-121798016D01*
X121687796Y-121845375D01*
X121737334Y-121865894D01*
X121737336Y-121865894D01*
X121737341Y-121865896D01*
X121911304Y-121900499D01*
X121911307Y-121900500D01*
X121911309Y-121900500D01*
X122088693Y-121900500D01*
X122088694Y-121900499D01*
X122167987Y-121884727D01*
X122262658Y-121865896D01*
X122262661Y-121865894D01*
X122262666Y-121865894D01*
X122426547Y-121798013D01*
X122574035Y-121699464D01*
X122617591Y-121655908D01*
X122662319Y-121611181D01*
X122723642Y-121577696D01*
X122793334Y-121582680D01*
X122837681Y-121611181D01*
X122925961Y-121699461D01*
X122925965Y-121699464D01*
X123073446Y-121798009D01*
X123073459Y-121798016D01*
X123187796Y-121845375D01*
X123237334Y-121865894D01*
X123237336Y-121865894D01*
X123237341Y-121865896D01*
X123411304Y-121900499D01*
X123411307Y-121900500D01*
X123411309Y-121900500D01*
X123588693Y-121900500D01*
X123588694Y-121900499D01*
X123667987Y-121884727D01*
X123762658Y-121865896D01*
X123762661Y-121865894D01*
X123762666Y-121865894D01*
X123926547Y-121798013D01*
X124074035Y-121699464D01*
X124199464Y-121574035D01*
X124298013Y-121426547D01*
X124299771Y-121422304D01*
X124350207Y-121300538D01*
X124365894Y-121262666D01*
X124400500Y-121088691D01*
X124400500Y-120911309D01*
X124400500Y-120911306D01*
X124400499Y-120911304D01*
X124365896Y-120737341D01*
X124365893Y-120737332D01*
X124298016Y-120573459D01*
X124298009Y-120573446D01*
X124199464Y-120425965D01*
X124199461Y-120425961D01*
X124074038Y-120300538D01*
X124074034Y-120300535D01*
X123926553Y-120201990D01*
X123926540Y-120201983D01*
X123762667Y-120134106D01*
X123762658Y-120134103D01*
X123699882Y-120121617D01*
X123637971Y-120089232D01*
X123603397Y-120028517D01*
X123607136Y-119958747D01*
X123648003Y-119902075D01*
X123699882Y-119878383D01*
X123762658Y-119865896D01*
X123762661Y-119865894D01*
X123762666Y-119865894D01*
X123926547Y-119798013D01*
X124074035Y-119699464D01*
X124199464Y-119574035D01*
X124298013Y-119426547D01*
X124365894Y-119262666D01*
X124400500Y-119088691D01*
X124400500Y-118911309D01*
X124400500Y-118911306D01*
X124400499Y-118911304D01*
X124365896Y-118737341D01*
X124365893Y-118737332D01*
X124298016Y-118573459D01*
X124298009Y-118573446D01*
X124199464Y-118425965D01*
X124199461Y-118425961D01*
X124074038Y-118300538D01*
X124074034Y-118300535D01*
X123926553Y-118201990D01*
X123926540Y-118201983D01*
X123762667Y-118134106D01*
X123762658Y-118134103D01*
X123699882Y-118121617D01*
X123637971Y-118089232D01*
X123603397Y-118028517D01*
X123607136Y-117958747D01*
X123648003Y-117902075D01*
X123699882Y-117878383D01*
X123762658Y-117865896D01*
X123762661Y-117865894D01*
X123762666Y-117865894D01*
X123926547Y-117798013D01*
X124074035Y-117699464D01*
X124199464Y-117574035D01*
X124298013Y-117426547D01*
X124365894Y-117262666D01*
X124370932Y-117237341D01*
X124400499Y-117088695D01*
X124400500Y-117088693D01*
X124400500Y-116911306D01*
X124400499Y-116911304D01*
X124365896Y-116737341D01*
X124365893Y-116737332D01*
X124298016Y-116573459D01*
X124298009Y-116573446D01*
X124199464Y-116425965D01*
X124199461Y-116425961D01*
X124074038Y-116300538D01*
X124074034Y-116300535D01*
X123926553Y-116201990D01*
X123926540Y-116201983D01*
X123762667Y-116134106D01*
X123762658Y-116134103D01*
X123699882Y-116121617D01*
X123637971Y-116089232D01*
X123603397Y-116028517D01*
X123607136Y-115958747D01*
X123648003Y-115902075D01*
X123699882Y-115878383D01*
X123762658Y-115865896D01*
X123762661Y-115865894D01*
X123762666Y-115865894D01*
X123926547Y-115798013D01*
X124074035Y-115699464D01*
X124199464Y-115574035D01*
X124298013Y-115426547D01*
X124365894Y-115262666D01*
X124378467Y-115199461D01*
X124400499Y-115088695D01*
X124400500Y-115088693D01*
X124400500Y-114911306D01*
X124400499Y-114911304D01*
X124365896Y-114737341D01*
X124365893Y-114737332D01*
X124298016Y-114573459D01*
X124298009Y-114573446D01*
X124199464Y-114425965D01*
X124199461Y-114425961D01*
X124074038Y-114300538D01*
X124074034Y-114300535D01*
X123926553Y-114201990D01*
X123926540Y-114201983D01*
X123762667Y-114134106D01*
X123762658Y-114134103D01*
X123699882Y-114121617D01*
X123637971Y-114089232D01*
X123603397Y-114028517D01*
X123607136Y-113958747D01*
X123648003Y-113902075D01*
X123699882Y-113878383D01*
X123762658Y-113865896D01*
X123762661Y-113865894D01*
X123762666Y-113865894D01*
X123926547Y-113798013D01*
X124074035Y-113699464D01*
X124199464Y-113574035D01*
X124298013Y-113426547D01*
X124365894Y-113262666D01*
X124400500Y-113088691D01*
X124400500Y-112911309D01*
X124400500Y-112911306D01*
X124400499Y-112911304D01*
X124365896Y-112737341D01*
X124365893Y-112737332D01*
X124298016Y-112573459D01*
X124298009Y-112573446D01*
X124199464Y-112425965D01*
X124199461Y-112425961D01*
X124074038Y-112300538D01*
X124074034Y-112300535D01*
X123926553Y-112201990D01*
X123926540Y-112201983D01*
X123762667Y-112134106D01*
X123762658Y-112134103D01*
X123699882Y-112121617D01*
X123637971Y-112089232D01*
X123603397Y-112028517D01*
X123607136Y-111958747D01*
X123648003Y-111902075D01*
X123699882Y-111878383D01*
X123762658Y-111865896D01*
X123762661Y-111865894D01*
X123762666Y-111865894D01*
X123926547Y-111798013D01*
X124074035Y-111699464D01*
X124199464Y-111574035D01*
X124298013Y-111426547D01*
X124365894Y-111262666D01*
X124370932Y-111237341D01*
X124400499Y-111088695D01*
X124400500Y-111088693D01*
X124400500Y-110911306D01*
X124400499Y-110911304D01*
X124365896Y-110737341D01*
X124365893Y-110737332D01*
X124298016Y-110573459D01*
X124298009Y-110573446D01*
X124199464Y-110425965D01*
X124199461Y-110425961D01*
X124074038Y-110300538D01*
X124074034Y-110300535D01*
X123926553Y-110201990D01*
X123926540Y-110201983D01*
X123762667Y-110134106D01*
X123762658Y-110134103D01*
X123699882Y-110121617D01*
X123637971Y-110089232D01*
X123603397Y-110028517D01*
X123607136Y-109958747D01*
X123648003Y-109902075D01*
X123699882Y-109878383D01*
X123762658Y-109865896D01*
X123762661Y-109865894D01*
X123762666Y-109865894D01*
X123926547Y-109798013D01*
X124074035Y-109699464D01*
X124199464Y-109574035D01*
X124298013Y-109426547D01*
X124365894Y-109262666D01*
X124400500Y-109088691D01*
X124400500Y-108911309D01*
X124400500Y-108911306D01*
X124400499Y-108911304D01*
X124365896Y-108737341D01*
X124365893Y-108737332D01*
X124298016Y-108573459D01*
X124298009Y-108573446D01*
X124199464Y-108425965D01*
X124199461Y-108425961D01*
X124074038Y-108300538D01*
X124074034Y-108300535D01*
X123926553Y-108201990D01*
X123926540Y-108201983D01*
X123762667Y-108134106D01*
X123762658Y-108134103D01*
X123699882Y-108121617D01*
X123637971Y-108089232D01*
X123603397Y-108028517D01*
X123607136Y-107958747D01*
X123648003Y-107902075D01*
X123699882Y-107878383D01*
X123762658Y-107865896D01*
X123762661Y-107865894D01*
X123762666Y-107865894D01*
X123926547Y-107798013D01*
X124074035Y-107699464D01*
X124199464Y-107574035D01*
X124298013Y-107426547D01*
X124365894Y-107262666D01*
X124375877Y-107212482D01*
X124399513Y-107093653D01*
X124400500Y-107088691D01*
X124400500Y-106911309D01*
X124400500Y-106911306D01*
X124400499Y-106911304D01*
X124365896Y-106737341D01*
X124365893Y-106737332D01*
X124355240Y-106711614D01*
X124306081Y-106592930D01*
X124298016Y-106573459D01*
X124298009Y-106573446D01*
X124199464Y-106425965D01*
X124199461Y-106425961D01*
X124074038Y-106300538D01*
X124074034Y-106300535D01*
X123926553Y-106201990D01*
X123926540Y-106201983D01*
X123762667Y-106134106D01*
X123762658Y-106134103D01*
X123699882Y-106121617D01*
X123637971Y-106089232D01*
X123603397Y-106028517D01*
X123607136Y-105958747D01*
X123648003Y-105902075D01*
X123699882Y-105878383D01*
X123762658Y-105865896D01*
X123762661Y-105865894D01*
X123762666Y-105865894D01*
X123916002Y-105802381D01*
X123926540Y-105798016D01*
X123926540Y-105798015D01*
X123926547Y-105798013D01*
X124074035Y-105699464D01*
X124199464Y-105574035D01*
X124298013Y-105426547D01*
X124365894Y-105262666D01*
X124375877Y-105212482D01*
X124399513Y-105093653D01*
X124400500Y-105088691D01*
X124400500Y-104911309D01*
X124400500Y-104911306D01*
X124400499Y-104911304D01*
X124365896Y-104737341D01*
X124365893Y-104737332D01*
X124298016Y-104573459D01*
X124298009Y-104573446D01*
X124199464Y-104425965D01*
X124199461Y-104425961D01*
X124074038Y-104300538D01*
X124074034Y-104300535D01*
X123926553Y-104201990D01*
X123926540Y-104201983D01*
X123762667Y-104134106D01*
X123762658Y-104134103D01*
X123699882Y-104121617D01*
X123637971Y-104089232D01*
X123603397Y-104028517D01*
X123607136Y-103958747D01*
X123648003Y-103902075D01*
X123699882Y-103878383D01*
X123762658Y-103865896D01*
X123762661Y-103865894D01*
X123762666Y-103865894D01*
X123926547Y-103798013D01*
X124074035Y-103699464D01*
X124199464Y-103574035D01*
X124298013Y-103426547D01*
X124365894Y-103262666D01*
X124400500Y-103088691D01*
X124400500Y-102911309D01*
X124400500Y-102911306D01*
X124400499Y-102911304D01*
X124365896Y-102737341D01*
X124365893Y-102737332D01*
X124298016Y-102573459D01*
X124298009Y-102573446D01*
X124199464Y-102425965D01*
X124199461Y-102425961D01*
X124074038Y-102300538D01*
X124074034Y-102300535D01*
X123926553Y-102201990D01*
X123926540Y-102201983D01*
X123762667Y-102134106D01*
X123762658Y-102134103D01*
X123588694Y-102099500D01*
X123588691Y-102099500D01*
X123411309Y-102099500D01*
X123411306Y-102099500D01*
X123237341Y-102134103D01*
X123237332Y-102134106D01*
X123073459Y-102201983D01*
X123073446Y-102201990D01*
X122925965Y-102300535D01*
X122925961Y-102300538D01*
X122837681Y-102388819D01*
X122776358Y-102422304D01*
X122706666Y-102417320D01*
X122662319Y-102388819D01*
X122574038Y-102300538D01*
X122574034Y-102300535D01*
X122426553Y-102201990D01*
X122426540Y-102201983D01*
X122262667Y-102134106D01*
X122262658Y-102134103D01*
X122088694Y-102099500D01*
X122088691Y-102099500D01*
X121911309Y-102099500D01*
X121911306Y-102099500D01*
X121737341Y-102134103D01*
X121737332Y-102134106D01*
X121573459Y-102201983D01*
X121573446Y-102201990D01*
X121425965Y-102300535D01*
X121425961Y-102300538D01*
X121300538Y-102425961D01*
X121300535Y-102425965D01*
X121201990Y-102573446D01*
X121201983Y-102573459D01*
X121134106Y-102737332D01*
X121134103Y-102737341D01*
X121099500Y-102911304D01*
X117175881Y-102911304D01*
X117202479Y-102893532D01*
X117202482Y-102893529D01*
X117278476Y-102817536D01*
X117303529Y-102792482D01*
X117303532Y-102792479D01*
X117382929Y-102673653D01*
X117437619Y-102541620D01*
X117460625Y-102425965D01*
X117465500Y-102401457D01*
X117465500Y-102258542D01*
X117437620Y-102118385D01*
X117437619Y-102118384D01*
X117437619Y-102118380D01*
X117393741Y-102012451D01*
X117386273Y-101942984D01*
X117393742Y-101917547D01*
X117401001Y-101900023D01*
X117437619Y-101811620D01*
X117465500Y-101671455D01*
X117465500Y-101528545D01*
X117465500Y-101528542D01*
X117437620Y-101388385D01*
X117437619Y-101388384D01*
X117437619Y-101388380D01*
X117382929Y-101256347D01*
X117382928Y-101256346D01*
X117382925Y-101256340D01*
X117303532Y-101137521D01*
X117303529Y-101137517D01*
X117202482Y-101036470D01*
X117202478Y-101036467D01*
X117083659Y-100957074D01*
X117083650Y-100957069D01*
X116951620Y-100902381D01*
X116951614Y-100902379D01*
X116811457Y-100874500D01*
X116811455Y-100874500D01*
X116668545Y-100874500D01*
X116668543Y-100874500D01*
X116528385Y-100902379D01*
X116528379Y-100902381D01*
X116396349Y-100957069D01*
X116396340Y-100957074D01*
X116277521Y-101036467D01*
X116277517Y-101036470D01*
X116176470Y-101137517D01*
X116176467Y-101137521D01*
X116097074Y-101256340D01*
X116097069Y-101256349D01*
X116042381Y-101388379D01*
X116042379Y-101388385D01*
X116014500Y-101528542D01*
X116014500Y-101528545D01*
X116014500Y-101671455D01*
X116014500Y-101671457D01*
X116014499Y-101671457D01*
X108985500Y-101671457D01*
X108985500Y-101638545D01*
X108985500Y-101638542D01*
X108967220Y-101546645D01*
X108957620Y-101498385D01*
X108957619Y-101498384D01*
X108957619Y-101498380D01*
X108915318Y-101396258D01*
X108902930Y-101366349D01*
X108902925Y-101366340D01*
X108823532Y-101247521D01*
X108823529Y-101247517D01*
X108722482Y-101146470D01*
X108722478Y-101146467D01*
X108603659Y-101067074D01*
X108603650Y-101067069D01*
X108471620Y-101012381D01*
X108471614Y-101012379D01*
X108331457Y-100984500D01*
X108331455Y-100984500D01*
X108188545Y-100984500D01*
X108188543Y-100984500D01*
X108048385Y-101012379D01*
X108048379Y-101012381D01*
X107916349Y-101067069D01*
X107916340Y-101067074D01*
X107797521Y-101146467D01*
X107797517Y-101146470D01*
X107696470Y-101247517D01*
X107696467Y-101247521D01*
X107617074Y-101366340D01*
X107617069Y-101366349D01*
X107562381Y-101498379D01*
X107562379Y-101498385D01*
X107534500Y-101638542D01*
X107534500Y-101638545D01*
X107534500Y-101781455D01*
X107534500Y-101781457D01*
X107534499Y-101781457D01*
X107562379Y-101921614D01*
X107562382Y-101921624D01*
X107580546Y-101965476D01*
X107588015Y-102034946D01*
X107580547Y-102060378D01*
X107552381Y-102128379D01*
X107552379Y-102128386D01*
X107524500Y-102268542D01*
X107524500Y-102268545D01*
X107524500Y-102411455D01*
X107524500Y-102411457D01*
X107524499Y-102411457D01*
X103684957Y-102411457D01*
X103574038Y-102300538D01*
X103574034Y-102300535D01*
X103426553Y-102201990D01*
X103426540Y-102201983D01*
X103262667Y-102134106D01*
X103262658Y-102134103D01*
X103088694Y-102099500D01*
X103088691Y-102099500D01*
X102911309Y-102099500D01*
X102911306Y-102099500D01*
X102737341Y-102134103D01*
X102737332Y-102134106D01*
X102573459Y-102201983D01*
X102573446Y-102201990D01*
X102425965Y-102300535D01*
X102425961Y-102300538D01*
X102337681Y-102388819D01*
X102276358Y-102422304D01*
X102206666Y-102417320D01*
X102162319Y-102388819D01*
X102074038Y-102300538D01*
X102074034Y-102300535D01*
X101926553Y-102201990D01*
X101926540Y-102201983D01*
X101762667Y-102134106D01*
X101762658Y-102134103D01*
X101588694Y-102099500D01*
X101588691Y-102099500D01*
X101411309Y-102099500D01*
X101411306Y-102099500D01*
X101237341Y-102134103D01*
X101237332Y-102134106D01*
X101073459Y-102201983D01*
X101073446Y-102201990D01*
X100925965Y-102300535D01*
X100925961Y-102300538D01*
X100800538Y-102425961D01*
X100800535Y-102425965D01*
X100701990Y-102573446D01*
X100701983Y-102573459D01*
X100634106Y-102737332D01*
X100634103Y-102737341D01*
X100599500Y-102911304D01*
X100002606Y-102911304D01*
X100005347Y-102795894D01*
X100005643Y-102789804D01*
X100019638Y-102598615D01*
X100020264Y-102592304D01*
X100043032Y-102410444D01*
X100044025Y-102403919D01*
X100075031Y-102231578D01*
X100076426Y-102224890D01*
X100115534Y-102060416D01*
X100117352Y-102053635D01*
X100163293Y-101900010D01*
X100166879Y-101889701D01*
X100282573Y-101599070D01*
X100289003Y-101585408D01*
X100432100Y-101324079D01*
X100440326Y-101311051D01*
X100611072Y-101074644D01*
X100620828Y-101062767D01*
X100819547Y-100849392D01*
X100830456Y-100839019D01*
X101058030Y-100647624D01*
X101069634Y-100638973D01*
X101326878Y-100469607D01*
X101338739Y-100462708D01*
X101625732Y-100316435D01*
X101637476Y-100311200D01*
X101952108Y-100190142D01*
X101963533Y-100186373D01*
X102298776Y-100093567D01*
X102309747Y-100091061D01*
X102645660Y-100030305D01*
X102657501Y-100028750D01*
X102959756Y-100003820D01*
X102994926Y-100000920D01*
X103005118Y-100000500D01*
X121998521Y-100000500D01*
X122001464Y-100000534D01*
G37*
%TD.AperFunction*%
%TD*%
M02*
