M48
; DRILL file {KiCad 9.0.6} date 2025-11-27T01:35:14-0800
; FORMAT={-:-/ absolute / inch / decimal}
; #@! TF.CreationDate,2025-11-27T01:35:14-08:00
; #@! TF.GenerationSoftware,Kicad,Pcbnew,9.0.6
; #@! TF.FileFunction,Plated,1,4,PTH
FMAT,2
INCH
; #@! TA.AperFunction,Plated,PTH,ViaDrill
T1C0.0079
; #@! TA.AperFunction,Plated,PTH,ViaDrill
T2C0.0157
; #@! TA.AperFunction,Plated,PTH,ComponentDrill
T3C0.0394
%
G90
G05
T1
X4.1634Y-4.0945
X4.252Y-4.1929
X4.2618Y-4.0291
X4.2618Y-4.2421
X4.2618Y-4.2618
X4.2622Y-4.0043
X4.3209Y-4.1437
X4.3209Y-4.1713
X4.3673Y-4.0657
X4.3996Y-4.2224
X4.4488Y-4.2028
X4.4783Y-4.2028
X4.4827Y-4.0657
X4.5374Y-4.124
X4.5961Y-4.0
X4.5961Y-4.0287
X4.5965Y-4.2421
X4.5965Y-4.2618
X4.603Y-4.16
X4.6949Y-4.0945
T2
X3.9961Y-4.0551
X3.9961Y-4.1339
X3.9961Y-4.2126
X3.9961Y-4.2913
X3.9961Y-4.3701
X3.9961Y-4.4488
X3.9961Y-4.5276
X3.9961Y-4.6063
X3.9961Y-4.685
X3.9961Y-4.7638
X4.0551Y-4.0551
X4.0551Y-4.1339
X4.0551Y-4.2126
X4.0551Y-4.2913
X4.0551Y-4.3701
X4.0551Y-4.4488
X4.0551Y-4.5276
X4.0551Y-4.6063
X4.0551Y-4.685
X4.0551Y-4.7638
X4.1339Y-4.8031
X4.1339Y-4.8819
X4.1929Y-4.8031
X4.1929Y-4.8819
X4.4291Y-4.3898
X4.4291Y-4.5079
X4.4291Y-4.626
X4.6654Y-4.8017
X4.8031Y-4.0551
X4.8031Y-4.1339
X4.8031Y-4.2126
X4.8031Y-4.2913
X4.8031Y-4.3701
X4.8031Y-4.4488
X4.8031Y-4.5276
X4.8031Y-4.6063
X4.8031Y-4.685
X4.8031Y-4.7638
X4.8622Y-4.0551
X4.8622Y-4.1339
X4.8622Y-4.2126
X4.8622Y-4.2913
X4.8622Y-4.3701
X4.8622Y-4.4488
X4.8622Y-4.5276
X4.8622Y-4.6063
X4.8622Y-4.685
X4.8622Y-4.7638
T3
X4.2669Y-4.8425
X4.3669Y-4.8425
X4.4669Y-4.8425
X4.5669Y-4.8425
M30
